<?xml version="1.0" standalone="no"?>
<!DOCTYPE svg PUBLIC "-//W3C//DTD SVG 20010904//EN"
 "http://www.w3.org/TR/2001/REC-SVG-20010904/DTD/svg10.dtd">
<svg version="1.0" xmlns="http://www.w3.org/2000/svg"
 width="860.000000pt" height="860.000000pt" viewBox="0 0 860.000000 860.000000"
 preserveAspectRatio="xMidYMid meet">
<metadata>
Created by potrace 1.16, written by Peter Selinger 2001-2019
</metadata>
<g transform="translate(0.000000,860.000000) scale(0.100000,-0.100000)"
fill="#000000" stroke="none">
<path d="M6241 7734 c-18 -23 -35 -35 -44 -31 -23 9 -47 -48 -36 -85 11 -39
13 -117 4 -145 -6 -19 -2 -25 20 -33 38 -14 75 -13 75 4 0 7 -9 25 -20 38
l-19 25 25 24 c15 14 35 23 49 21 18 -3 27 5 44 41 28 57 28 110 -1 137 -12
11 -28 20 -35 20 -7 0 -13 5 -13 10 0 20 -19 9 -49 -26z"/>
<path d="M1473 7568 c-12 -13 -27 -42 -34 -65 -12 -44 -35 -56 -46 -26 -12 30
-22 -21 -13 -62 11 -47 52 -92 109 -117 35 -16 55 -19 106 -13 57 6 67 4 121
-26 62 -33 179 -135 204 -177 19 -32 61 -71 78 -72 6 0 12 -7 12 -16 0 -9 15
-31 34 -50 19 -19 37 -41 40 -50 4 -11 12 -14 24 -9 42 18 52 17 52 -1 0 -11
-7 -28 -15 -38 -8 -11 -15 -28 -15 -38 0 -10 -4 -18 -8 -18 -20 0 -93 -86
-136 -159 -114 -198 -159 -385 -159 -661 0 -167 13 -253 60 -390 41 -121 81
-189 155 -261 70 -68 82 -89 49 -89 -33 0 -128 114 -176 213 -49 100 -59 105
-20 10 41 -102 91 -177 162 -244 120 -113 226 -172 337 -188 33 -5 88 -23 121
-40 92 -47 160 -64 224 -56 50 6 54 8 37 21 -17 12 -18 17 -6 59 11 39 57 117
79 135 48 38 184 335 197 430 1 8 10 49 20 90 26 111 26 533 0 675 -40 218
-131 450 -211 540 l-35 40 35 -60 c72 -125 145 -343 161 -484 6 -53 4 -61 -10
-61 -9 0 -16 4 -16 8 0 4 -37 7 -82 6 -46 -1 -88 3 -94 8 -7 5 -16 7 -20 6
-22 -7 -53 32 -69 87 -45 154 -67 217 -100 295 -19 47 -35 92 -35 102 0 28 55
83 114 114 l55 28 23 -19 23 -20 -20 25 c-27 34 -44 47 -85 69 -43 23 -150 52
-150 41 0 -4 -23 -10 -51 -14 -61 -8 -120 -31 -173 -65 -21 -14 -57 -38 -80
-53 -49 -33 -56 -34 -56 -9 0 11 -5 21 -12 23 -8 3 -5 13 10 33 25 32 30 100
8 108 -7 3 -27 -3 -44 -14 -31 -18 -32 -18 -43 3 -6 11 -9 37 -5 57 3 20 2 31
-2 24 -8 -13 -60 -11 -87 5 -18 9 -19 14 -8 41 11 30 10 31 -13 25 -19 -5 -24
-2 -24 12 0 18 -99 119 -108 109 -3 -2 16 -23 41 -46 79 -69 56 -107 -29 -49
-46 32 -53 54 -33 92 8 14 8 23 0 31 -8 8 -11 5 -11 -11 0 -29 -13 -28 -64 8
-29 19 -45 39 -49 57 -8 43 1 46 41 17 30 -21 27 -17 -13 22 -42 41 -57 49
-93 51 -31 1 -56 12 -91 38 -27 19 -53 35 -58 35 -5 0 -19 -10 -30 -22z m887
-928 c67 -85 130 -299 130 -444 l0 -65 -62 5 c-34 3 -77 11 -97 17 -36 12 -42
20 -85 119 -28 65 -64 104 -106 113 l-28 6 24 61 c27 71 66 138 107 191 42 51
75 50 117 -3z m-172 -316 c51 -61 67 -131 67 -285 l0 -136 -40 -78 c-46 -89
-76 -117 -130 -117 -47 0 -88 37 -123 112 -21 45 -26 74 -30 162 -5 129 17
219 74 295 50 66 73 83 116 83 30 0 42 -6 66 -36z"/>
<path d="M2963 7575 c-29 -8 -75 -26 -102 -39 -52 -27 -157 -118 -193 -169
-20 -28 -20 -31 -4 -42 15 -12 14 -15 -16 -39 -54 -42 -20 -30 97 35 226 126
292 158 350 173 75 20 148 20 211 1 63 -19 65 -19 29 5 -50 33 -190 79 -257
85 -40 3 -82 0 -115 -10z"/>
<path d="M6097 7357 c-3 -8 7 -21 24 -31 39 -23 32 -42 -13 -38 -43 4 -56 -11
-54 -63 1 -39 2 -40 69 -68 37 -15 72 -25 78 -21 6 3 8 24 4 50 -5 38 -3 44
12 44 13 0 8 7 -14 21 -18 12 -33 29 -33 40 0 24 7 24 48 -1 30 -18 32 -18 32
-2 0 30 -29 61 -68 72 -50 14 -79 13 -85 -3z"/>
<path d="M4701 7311 c-11 -11 -21 -27 -21 -34 0 -17 28 -43 60 -56 25 -10 25
-10 -5 -10 -44 0 -78 22 -91 60 -10 30 -13 31 -20 15 -10 -25 14 -67 48 -84
38 -18 136 -18 155 0 20 21 21 84 1 104 -9 9 -36 18 -61 21 -36 4 -49 1 -66
-16z"/>
<path d="M4510 7228 c0 -33 49 -100 94 -128 44 -27 169 -38 232 -21 48 13 114
78 114 113 l0 21 -22 -21 c-25 -23 -86 -39 -133 -36 -151 12 -205 26 -250 65
l-35 31 0 -24z"/>
<path d="M4503 6350 c-309 -81 -526 -343 -511 -615 20 -351 422 -714 907 -820
249 -54 543 -46 751 22 181 59 375 185 427 278 6 11 24 16 59 16 58 2 73 8
141 66 46 38 112 132 111 157 0 5 4 12 9 15 27 18 71 116 103 226 40 138 48
195 38 273 -18 148 -82 275 -174 344 -63 48 -100 57 -127 30 l-20 -21 37 -6
c55 -11 118 -65 154 -133 34 -64 41 -102 18 -102 -8 0 -54 -20 -103 -45 -110
-55 -171 -116 -219 -219 l-33 -73 -83 -16 c-141 -28 -265 -38 -469 -38 -197
-1 -316 7 -338 20 -7 4 -20 48 -31 97 -24 115 -43 163 -96 244 -84 128 -168
196 -280 225 -118 31 -277 12 -381 -44 -29 -16 -53 -26 -53 -22 0 9 108 62
165 82 83 28 244 14 350 -30 11 -5 41 -16 66 -25 25 -9 90 -47 145 -85 126
-88 225 -138 289 -146 l50 -5 -50 24 c-27 13 -71 42 -97 63 -227 187 -318 242
-443 268 -96 20 -224 18 -312 -5z"/>
<path d="M3127 4773 c-14 -13 -6 -21 36 -36 62 -23 151 -44 242 -57 135 -19
208 -35 212 -45 1 -5 -23 -24 -55 -41 -31 -17 -57 -35 -56 -40 0 -5 25 -22 55
-38 30 -16 95 -53 145 -82 51 -30 96 -54 100 -54 5 0 26 -5 47 -11 29 -8 37
-14 33 -26 -5 -13 -4 -13 7 -4 12 9 13 7 9 -14 -4 -25 12 -37 84 -59 24 -7 58
18 51 38 -6 19 40 46 80 46 65 0 140 -61 195 -158 17 -29 33 -51 35 -48 8 7
-54 114 -94 164 -35 43 -39 67 -6 41 14 -12 16 -12 8 0 -6 10 -4 13 6 9 36
-14 498 38 649 73 46 11 116 31 155 45 38 14 90 30 115 36 25 6 49 14 54 18 5
5 -22 19 -60 31 -63 21 -86 23 -254 21 -102 -1 -194 2 -205 8 -28 12 -125 39
-125 33 0 -2 19 -13 43 -24 l42 -20 -120 6 c-66 3 -167 10 -225 15 -58 6 -157
15 -220 21 -150 14 -145 13 -365 43 -104 14 -228 30 -275 36 -47 6 -105 20
-130 31 -25 11 -64 22 -87 24 -23 2 -51 8 -62 14 -22 12 -54 14 -64 4z"/>
<path d="M5403 4570 c-71 -41 -69 -57 12 -110 74 -48 106 -82 140 -150 40 -79
57 -163 55 -279 -1 -58 3 -146 10 -196 7 -54 9 -129 5 -188 -6 -80 -4 -101 9
-122 27 -40 21 -57 -16 -50 -33 6 -33 5 -72 -72 -40 -81 -80 -139 -127 -184
-36 -34 -44 -89 -35 -242 9 -178 51 -302 161 -472 98 -153 214 -255 390 -343
120 -60 215 -75 327 -51 46 10 50 13 34 23 -52 30 -58 44 -53 120 2 39 7 82
11 96 9 37 76 173 140 283 59 102 73 145 46 138 -39 -11 -97 -5 -123 14 -26
19 -125 159 -177 251 l-24 41 52 63 c29 34 52 69 52 78 0 23 -35 79 -57 90
-32 18 -73 1 -134 -56 -55 -51 -62 -54 -85 -43 -23 10 -25 15 -19 48 16 85
106 203 154 203 46 0 242 -217 315 -348 47 -84 96 -198 96 -223 0 -10 5 -19
10 -19 17 0 11 76 -9 128 -27 69 -102 192 -178 294 -73 99 -231 253 -300 293
-44 27 -47 27 -79 11 -32 -15 -36 -14 -54 1 -19 16 -19 17 12 36 20 12 40 16
56 12 24 -6 25 -5 10 16 -22 33 -82 61 -135 63 -30 1 -49 7 -56 17 -13 21 -2
50 23 56 25 7 26 30 3 56 -17 19 -17 20 2 31 31 17 85 76 85 92 0 8 9 31 20
51 24 45 25 64 6 126 -13 42 -12 46 5 50 24 7 27 67 3 67 -8 0 -48 31 -88 69
-79 75 -151 125 -166 116 -6 -3 -18 -1 -27 5 -15 9 -14 10 7 5 23 -6 22 -4
-10 24 -78 68 43 10 131 -63 14 -11 -6 9 -44 47 -75 73 -69 87 14 32 l54 -35
-40 36 c-106 96 -242 121 -342 64z m394 -244 c70 -78 70 -73 5 -167 -57 -82
-82 -105 -82 -76 0 9 -22 53 -50 98 -27 45 -50 87 -50 92 0 5 9 25 21 43 11
19 16 34 10 34 -14 0 -14 31 -1 65 l10 26 46 -33 c26 -18 66 -55 91 -82z"/>
<path d="M2711 4535 c-146 -68 -287 -273 -304 -439 -1 -13 7 -22 26 -27 22 -6
27 -4 27 10 0 21 25 46 61 60 27 10 27 9 34 -46 4 -31 9 -62 12 -70 6 -16 -49
-18 -79 -2 -20 11 -21 10 -14 -42 4 -32 15 -63 27 -75 18 -19 19 -27 10 -60
-6 -22 -18 -48 -26 -58 -8 -11 -15 -25 -15 -30 1 -6 8 2 16 17 14 26 19 28 52
22 43 -8 70 -27 32 -23 -21 3 -26 -2 -28 -24 -3 -24 -8 -28 -35 -28 -51 0
-102 -18 -127 -45 -29 -31 -17 -48 35 -49 22 -1 34 -5 31 -12 -3 -7 8 -23 22
-37 29 -27 160 -117 171 -117 8 0 81 109 81 121 0 4 12 25 26 46 19 28 25 49
24 83 -1 25 1 60 5 78 7 32 8 32 70 32 56 0 68 4 107 33 31 24 47 45 57 77 29
95 54 118 88 81 22 -24 68 -42 87 -35 16 6 20 -8 36 -131 6 -44 16 -102 23
-130 11 -46 16 -52 62 -75 70 -34 173 -33 249 4 63 31 154 123 189 192 30 58
57 147 57 184 0 23 -3 27 -24 23 -32 -6 -106 31 -147 73 -31 32 -32 34 -15 53
18 20 127 81 145 81 6 0 17 -12 25 -27 l15 -28 1 29 c1 72 -79 168 -202 242
-79 48 -140 55 -200 24 -80 -41 -118 -94 -133 -183 -6 -36 -8 -38 -23 -24 -35
30 -61 38 -83 26 -18 -9 -26 -6 -55 22 -19 18 -34 41 -34 51 0 48 -77 135
-142 163 -58 24 -153 19 -217 -10z m6 -73 c13 -8 -12 -89 -64 -202 l-30 -66
-62 -11 c-34 -7 -76 -19 -93 -27 -40 -20 -41 -20 -32 7 37 121 146 266 219
292 48 17 47 17 62 7z m233 -192 c49 -25 55 -35 37 -64 -27 -41 -125 -50 -217
-21 -27 8 -25 17 8 47 69 64 106 72 172 38z"/>
<path d="M5244 4145 c-32 -49 19 -155 75 -155 28 0 51 37 50 80 -1 28 -2 31
-7 12 -10 -33 -23 -29 -46 13 -16 28 -18 39 -8 42 10 4 10 8 1 19 -18 22 -47
17 -65 -11z"/>
<path d="M3932 3915 c-65 -55 -65 -145 1 -185 100 -61 222 34 174 135 -34 71
-121 96 -175 50z"/>
<path d="M4920 3806 c-41 -7 -92 -20 -112 -29 -52 -22 -118 -92 -150 -157 -29
-62 -68 -105 -68 -77 0 25 -40 47 -86 47 -53 0 -99 -36 -115 -89 -23 -77 46
-141 132 -122 22 5 48 16 57 24 18 17 63 101 82 154 7 19 21 34 35 37 16 4 22
11 19 21 -5 11 1 15 20 15 15 0 29 7 32 15 4 8 15 15 25 15 10 0 19 5 19 10 0
6 16 10 35 10 20 0 50 6 68 13 18 8 59 15 92 16 33 1 67 4 77 7 9 3 20 0 23
-7 6 -8 10 -8 15 1 5 8 15 10 26 5 11 -5 22 -7 26 -7 4 1 31 -9 60 -22 68 -30
122 -87 143 -151 23 -70 41 -95 70 -95 32 0 61 39 74 100 18 85 -17 134 -64
90 -14 -13 -27 -21 -30 -18 -3 2 -9 29 -15 58 -13 68 -38 111 -76 130 -38 20
-309 24 -414 6z"/>
<path d="M3803 3387 c-68 -111 -178 -237 -208 -237 -32 0 -12 -20 40 -39 123
-46 204 -61 332 -61 92 0 132 4 154 15 16 9 33 14 38 11 12 -8 35 -85 28 -93
-4 -3 -31 0 -61 7 -50 12 -58 11 -83 -6 -16 -11 -46 -19 -70 -19 -59 -1 -94
-29 -117 -97 -17 -48 -18 -61 -7 -97 15 -51 56 -79 163 -111 43 -13 83 -29 89
-36 6 -8 21 -14 33 -14 11 0 27 -4 35 -9 12 -8 13 -12 1 -26 -11 -13 -10 -19
7 -38 11 -12 22 -27 24 -33 7 -19 134 -102 183 -118 49 -17 191 -20 236 -6 17
6 2 8 -52 9 -102 1 -176 17 -180 39 -2 9 6 31 19 47 65 88 103 240 83 330 -15
68 -36 99 -104 152 l-58 46 4 54 c3 29 9 58 15 64 12 12 160 29 259 29 81 0
86 -3 129 -90 37 -75 54 -93 70 -76 7 7 14 21 17 31 5 27 90 45 196 44 l84 -2
35 62 34 61 58 0 c39 0 63 5 71 14 9 12 3 19 -39 40 -59 30 -72 31 -111 11
-40 -21 -37 -5 3 20 26 17 33 28 37 65 l5 45 27 -29 c14 -16 34 -46 44 -68 18
-40 59 -62 74 -39 10 17 3 78 -16 129 -27 74 -88 89 -295 72 -206 -16 -223
-23 -343 -140 -117 -113 -166 -141 -268 -148 -93 -6 -178 12 -276 60 -91 44
-137 89 -222 215 l-48 72 -69 -112z"/>
<path d="M2706 3317 c7 -34 17 -149 23 -255 l9 -192 31 -36 c38 -42 103 -169
124 -241 9 -29 13 -69 11 -90 -10 -65 -10 -66 -51 -44 -57 29 -73 52 -88 132
l-14 74 5 -80 c8 -104 18 -126 108 -234 41 -50 81 -101 88 -113 12 -21 13 -19
19 32 4 30 9 75 12 100 29 230 31 276 19 434 -16 223 -59 352 -148 448 -39 43
-141 128 -153 128 -4 0 -2 -28 5 -63z"/>
<path d="M5051 2704 c-58 -96 -92 -142 -149 -196 -83 -78 -83 -80 -20 -148 27
-30 33 -32 75 -26 l46 6 -39 -44 c-22 -24 -47 -45 -57 -45 -32 -2 -76 -31 -91
-59 -23 -45 -45 -57 -100 -57 -49 0 -51 -1 -54 -30 -3 -33 27 -75 54 -75 9 0
30 -12 47 -26 l31 -26 40 48 c87 105 154 154 212 154 12 0 52 -22 88 -50 94
-72 127 -90 165 -90 41 0 88 28 119 69 12 17 29 31 37 31 8 0 35 -26 60 -57
25 -32 53 -66 61 -75 20 -26 34 -22 34 10 0 30 -53 118 -103 170 -47 49 -77
42 -159 -36 -39 -37 -67 -37 -47 0 13 24 -2 68 -23 68 -7 0 10 20 38 45 73 63
84 92 87 225 l2 112 -42 38 c-24 21 -43 43 -43 49 0 25 -69 86 -127 113 -35
15 -64 28 -65 28 -2 0 -37 -57 -77 -126z"/>
<path d="M6740 2715 c-57 -18 -115 -66 -139 -113 -11 -22 -21 -72 -25 -121
-12 -144 -17 -159 -94 -236 -38 -39 -86 -85 -106 -103 -43 -39 -55 -76 -35
-111 13 -22 23 -26 64 -28 28 -1 60 0 71 2 25 6 92 57 146 112 47 48 68 36 39
-21 -20 -39 -18 -65 6 -79 9 -6 11 -13 5 -20 -5 -7 -12 -24 -16 -39 -4 -17
-16 -30 -35 -36 -30 -11 -54 -42 -49 -65 5 -20 -48 -77 -72 -77 -61 0 -104
-56 -81 -106 8 -19 18 -24 47 -24 21 0 45 7 55 16 17 15 20 15 44 -4 22 -17
31 -19 51 -10 32 15 84 94 84 129 0 19 8 34 25 45 19 13 25 25 25 54 0 24 7
43 19 54 11 10 22 29 25 42 8 32 23 23 37 -25 10 -35 9 -43 -15 -83 -26 -45
-34 -92 -17 -102 5 -4 3 -30 -5 -64 -19 -79 -17 -109 6 -132 28 -28 47 -25 82
13 25 26 28 33 14 35 -9 2 -16 10 -16 17 0 18 23 32 28 17 5 -17 34 -15 61 4
16 12 20 19 12 27 -15 15 -14 50 2 45 6 -3 15 -24 18 -47 3 -23 13 -49 22 -59
16 -15 20 -15 44 -2 14 8 33 26 42 40 l15 25 -21 -18 c-25 -22 -43 -15 -43 14
0 17 6 20 33 17 24 -2 39 4 61 26 24 24 26 30 13 37 -23 13 -10 51 17 47 15
-2 22 3 24 19 2 16 -3 22 -20 25 -15 2 -23 10 -23 23 0 15 8 21 33 23 17 2 32
6 32 8 0 16 -23 44 -35 44 -40 0 -61 91 -25 110 22 12 27 36 9 42 -6 2 -12 19
-14 38 -2 26 -7 34 -24 35 -11 1 -30 13 -41 26 -11 13 -25 30 -31 37 -15 18
-3 62 17 62 9 0 29 -9 45 -21 l29 -20 0 20 c0 12 -10 31 -22 43 -16 16 -24 36
-25 68 -4 119 -22 172 -84 243 -71 83 -185 116 -289 82z"/>
<path d="M3536 2702 c-21 -9 -37 -20 -35 -24 2 -4 -16 -18 -41 -30 -78 -40
-111 -123 -80 -202 7 -19 6 -25 -2 -23 -7 1 -17 -15 -22 -36 -9 -36 -3 -78 19
-129 5 -13 2 -18 -10 -18 -31 0 -9 -59 43 -115 26 -29 71 -82 99 -118 60 -75
97 -99 159 -100 55 0 76 18 127 112 36 67 37 70 18 80 -11 6 -33 11 -50 11
-35 0 -40 19 -19 65 10 22 16 25 41 19 60 -13 105 72 73 137 -12 23 -13 36 -5
51 6 11 11 50 11 87 1 147 -95 251 -232 251 -31 -1 -72 -8 -94 -18z m208 -196
c24 -15 35 -54 20 -68 -3 -3 -23 1 -44 9 -40 16 -124 11 -135 -8 -4 -5 -16 -9
-28 -9 -11 0 -36 -14 -54 -32 -26 -25 -33 -28 -33 -14 0 24 24 67 53 94 55 51
165 65 221 28z"/>
<path d="M4830 2529 c-67 -19 -198 -26 -262 -14 -36 7 -38 6 -38 -19 0 -15 8
-30 19 -36 27 -14 114 -13 129 2 9 9 12 9 12 -1 0 -16 80 -7 123 14 15 8 34
12 41 9 8 -3 23 8 35 24 34 49 35 48 -59 21z"/>
<path d="M2253 2335 c-126 -28 -227 -106 -329 -252 -88 -125 -208 -242 -326
-317 -62 -38 -75 -66 -33 -66 17 0 29 -8 37 -25 15 -33 -15 -101 -54 -121 -33
-17 -36 -34 -7 -41 14 -4 18 -11 14 -22 -5 -13 -4 -14 6 -3 7 6 21 12 30 12
36 0 31 -57 -9 -93 -20 -19 -21 -19 -28 19 -6 32 -8 35 -15 19 -4 -11 -8 -41
-8 -67 -1 -38 3 -48 19 -53 25 -8 31 -62 9 -76 -13 -7 -1 -36 17 -43 8 -3 14
-12 14 -20 0 -8 17 -33 38 -55 20 -22 47 -54 60 -71 27 -35 61 -46 91 -30 32
16 28 67 -10 118 -30 41 -87 178 -69 167 4 -3 18 -25 30 -50 20 -42 106 -136
141 -155 28 -15 53 12 52 56 -1 59 -13 96 -41 126 -15 16 -27 42 -28 61 -2 18
-12 54 -23 81 -23 53 -27 133 -8 181 22 56 67 121 92 135 19 10 33 11 63 2 34
-10 157 -92 174 -117 4 -5 8 -36 8 -68 0 -48 4 -62 24 -82 21 -21 23 -29 15
-57 -23 -81 -3 -148 44 -148 9 0 17 -4 17 -10 0 -5 -7 -10 -15 -10 -22 0 -19
-77 5 -125 11 -22 20 -45 20 -52 0 -8 12 -19 26 -25 24 -11 29 -9 50 15 14 16
24 41 24 57 0 17 6 50 12 76 11 39 10 49 -4 74 -11 20 -13 32 -6 36 14 9 2 77
-23 125 -18 36 -18 42 -4 62 8 12 15 35 15 52 0 43 -27 125 -51 158 l-20 28
34 34 c19 19 41 35 49 35 8 0 33 -22 56 -48 25 -30 53 -52 74 -58 33 -10 33
-10 33 -70 0 -42 5 -68 18 -85 10 -13 27 -38 38 -56 11 -17 31 -34 45 -37 17
-5 29 -19 40 -47 17 -40 55 -69 93 -69 25 0 51 36 51 73 0 33 -25 97 -38 97
-5 0 -12 14 -16 31 -3 17 -15 42 -26 56 -21 27 -26 53 -10 53 5 0 24 -18 41
-40 18 -22 39 -40 48 -40 9 0 23 -13 33 -29 23 -41 60 -63 92 -55 36 9 48 36
40 90 -5 35 -14 51 -45 77 -29 26 -37 38 -32 55 3 13 1 22 -6 22 -6 0 -11 8
-11 18 0 40 -91 161 -141 187 -23 12 -27 24 -37 94 -14 101 -46 165 -112 224
-89 80 -220 111 -347 82z"/>
<path d="M5424 1865 c-27 -42 14 -118 82 -150 115 -55 109 101 -7 161 -39 20
-56 18 -75 -11z"/>
<path d="M3653 1701 c-56 -35 -55 -90 3 -141 25 -21 45 -30 70 -30 48 0 92 25
100 56 14 56 -54 134 -116 134 -14 0 -39 -9 -57 -19z"/>
<path d="M2524 1482 c-16 -10 -34 -48 -34 -70 0 -11 -7 -23 -16 -26 -23 -9
-13 -60 27 -142 35 -71 45 -80 84 -70 61 15 53 222 -11 291 -24 26 -32 29 -50
17z"/>
<path d="M4371 1461 c-46 -46 -55 -196 -19 -320 l21 -76 81 -1 c53 0 96 -7
126 -19 25 -10 117 -42 204 -72 88 -29 164 -57 170 -62 33 -24 205 -72 356
-98 116 -20 493 -29 570 -14 68 14 142 44 160 66 11 13 8 13 -30 0 -96 -34
-213 -49 -385 -48 -145 1 -188 5 -290 27 -66 15 -145 31 -175 37 -110 21 -156
74 -162 190 -6 91 -45 172 -120 249 -81 83 -160 88 -243 15 -34 -30 -41 -32
-46 -18 -4 12 -8 13 -13 4 -11 -18 -43 13 -72 71 -40 80 -94 108 -133 69z"/>
<path d="M2942 1323 c-28 -71 -44 -148 -38 -184 12 -77 40 -149 59 -155 36
-11 42 11 42 164 0 125 -3 152 -18 175 -22 34 -32 34 -45 0z"/>
<path d="M3102 1233 c-32 -46 -43 -96 -44 -205 -2 -142 25 -196 122 -248 19
-10 71 -49 115 -86 88 -74 161 -112 281 -145 66 -18 115 -22 292 -26 227 -6
324 3 417 38 54 20 120 58 113 64 -2 2 -31 -4 -65 -15 -163 -51 -484 -68 -668
-35 -273 48 -348 122 -395 390 -21 125 -62 255 -87 280 -23 24 -60 18 -81 -12z"/>
</g>
</svg>
