<?xml version="1.0" standalone="no"?>
<!DOCTYPE svg PUBLIC "-//W3C//DTD SVG 20010904//EN"
 "http://www.w3.org/TR/2001/REC-SVG-20010904/DTD/svg10.dtd">
<svg version="1.0" xmlns="http://www.w3.org/2000/svg"
 width="860.000000pt" height="860.000000pt" viewBox="0 0 860.000000 860.000000"
 preserveAspectRatio="xMidYMid meet">
<metadata>
Created by potrace 1.16, written by Peter Selinger 2001-2019
</metadata>
<g transform="translate(0.000000,860.000000) scale(0.100000,-0.100000)"
fill="#000000" stroke="none">
<path d="M4270 7711 c-36 -5 -101 -12 -145 -16 -72 -7 -87 -13 -150 -54 -72
-47 -154 -122 -174 -158 -9 -18 -8 -20 8 -16 10 2 25 -3 34 -12 9 -9 21 -13
27 -10 5 3 10 0 10 -7 0 -7 24 -40 53 -74 122 -141 126 -148 73 -142 l-35 4 6
-111 c2 -60 11 -124 18 -142 18 -43 153 -182 253 -260 82 -65 90 -75 73 -102
-12 -19 -69 27 -223 182 -124 124 -168 192 -168 257 0 21 -12 59 -26 86 -28
53 -106 154 -149 194 l-27 25 -28 -34 c-20 -23 -34 -32 -46 -27 -14 5 -16 2
-11 -22 7 -34 -5 -58 -24 -46 -8 5 -44 9 -81 10 l-68 2 0 -44 0 -44 60 1 c68
2 110 -18 69 -33 -17 -7 -20 -11 -11 -20 17 -17 15 -38 -3 -38 -19 0 -19 -21
0 -46 21 -27 18 -35 -9 -28 -13 3 -27 1 -31 -5 -3 -6 -11 -9 -16 -6 -5 4 -9
-1 -9 -9 0 -18 -16 -21 -25 -6 -8 12 14 120 28 137 6 9 4 15 -8 19 -27 11 -39
-12 -36 -70 3 -67 -17 -175 -36 -198 -8 -9 -35 -26 -59 -37 -24 -12 -44 -25
-44 -30 0 -5 -13 -14 -29 -21 -27 -11 -33 -9 -65 17 -20 15 -36 31 -36 36 0
10 18 9 25 -3 3 -5 13 -10 21 -10 12 0 10 8 -7 43 -36 71 -45 77 -113 77 l-61
0 42 -42 c36 -36 44 -40 58 -28 12 10 19 10 28 1 9 -9 7 -13 -10 -17 -22 -6
-22 -6 6 -43 16 -20 32 -46 35 -58 9 -28 38 -38 103 -34 56 3 123 -21 123 -45
0 -10 -14 -6 -49 13 -27 16 -52 25 -56 22 -3 -4 10 -22 30 -42 25 -25 36 -45
37 -69 4 -76 -5 -125 -29 -167 -20 -34 -24 -53 -20 -87 6 -60 134 -314 194
-388 68 -83 207 -176 264 -176 20 0 25 -15 9 -25 -16 -10 -12 -33 10 -55 26
-26 46 -25 75 5 14 13 26 21 27 17 0 -4 2 -11 3 -17 2 -5 3 -20 4 -33 3 -53
77 -89 311 -148 58 -14 111 -32 119 -40 10 -9 14 -34 13 -84 -2 -64 -1 -70 18
-70 11 0 20 -7 20 -15 0 -8 -9 -15 -20 -15 -21 0 -21 0 -39 -108 -7 -42 -22
-82 -43 -115 l-33 -52 4 -160 c3 -88 4 -176 3 -195 -8 -174 -10 -188 -41 -251
-20 -41 -47 -78 -77 -103 -41 -34 -51 -39 -98 -38 -156 1 -477 221 -638 437
-88 117 -109 165 -111 244 -2 51 -7 73 -24 98 -24 33 -30 63 -12 63 12 0 6 89
-12 195 -46 270 -95 347 -316 495 l-112 75 -1 53 c0 87 -44 338 -70 408 -8 21
-8 34 1 52 11 19 9 43 -10 140 -12 64 -26 131 -31 147 -5 17 -17 56 -26 89
-17 56 -55 116 -75 116 -6 0 1 -15 14 -32 65 -89 130 -374 102 -445 -8 -17
-11 -33 -9 -36 4 -4 16 -52 49 -194 12 -50 -13 -19 -35 45 -13 37 -36 90 -51
118 -14 28 -29 57 -32 65 -4 11 -8 10 -21 -6 -8 -11 -16 -15 -16 -10 0 6 5 16
11 22 6 6 9 25 7 43 -3 29 -10 38 -46 57 -12 6 22 73 39 78 33 11 46 -11 59
-95 7 -44 16 -80 21 -80 15 0 19 18 10 46 -5 16 -17 60 -26 97 -17 67 -18 68
-46 62 -33 -7 -36 1 -14 33 15 20 14 24 -6 51 -17 23 -20 37 -15 66 6 28 3 42
-10 56 -23 26 -40 24 -61 -7 -15 -24 -16 -37 -4 -151 9 -97 9 -128 0 -139 -10
-12 -8 -19 10 -37 22 -25 28 -76 11 -93 -13 -13 -117 13 -144 35 -33 28 -50 2
-68 -103 -25 -145 -137 -373 -220 -444 -62 -54 -129 -147 -115 -161 8 -8 8
-11 0 -11 -6 0 -13 6 -16 13 -6 16 -80 -60 -74 -76 8 -24 32 -11 42 21 6 21
15 32 27 32 22 0 23 4 -8 -66 -28 -63 -32 -106 -19 -191 8 -52 20 -64 42 -42
7 7 6 21 -3 47 -30 85 -7 182 56 235 51 44 107 69 128 58 9 -5 35 -9 57 -9 49
-1 89 -15 133 -48 36 -28 72 -91 72 -128 0 -14 5 -37 10 -51 23 -61 -27 -155
-108 -202 -39 -23 -59 -28 -113 -28 -65 0 -94 9 -151 48 -25 16 -28 17 -28 2
0 -9 5 -26 11 -37 8 -14 8 -23 0 -31 -17 -17 -13 -24 14 -24 31 0 30 0 39 -38
7 -28 7 -29 -12 -12 -19 18 -32 14 -32 -11 0 -8 -11 -27 -25 -44 -14 -16 -25
-36 -25 -44 0 -9 -7 -22 -15 -30 -8 -9 -15 -24 -15 -34 0 -11 -9 -24 -20 -30
-11 -6 -20 -19 -20 -30 0 -10 -4 -21 -9 -25 -5 -3 -17 -29 -26 -58 -10 -28
-21 -56 -26 -61 -5 -6 -9 -18 -9 -28 0 -9 -7 -38 -15 -62 -14 -41 -14 -49 0
-76 17 -33 19 -34 45 -20 26 14 37 -6 16 -29 -21 -23 -20 -38 1 -50 14 -7 15
-12 4 -24 -7 -9 -16 -28 -21 -44 -7 -25 -8 -24 -9 17 -1 46 -14 79 -24 63 -3
-5 -9 -33 -13 -63 -4 -30 -15 -61 -26 -72 -15 -15 -16 -21 -6 -38 15 -24 -2
-46 -27 -36 -12 4 -16 14 -12 31 6 35 -6 39 -32 11 -27 -29 -24 -56 7 -72 32
-16 34 -19 26 -49 -6 -24 -10 -26 -40 -20 -19 3 -34 3 -34 0 0 -19 45 -88 92
-140 65 -73 98 -119 120 -165 30 -65 58 -175 69 -265 5 -49 14 -105 19 -122 6
-24 5 -33 -3 -33 -12 -1 -57 -64 -57 -81 0 -5 6 -9 13 -10 6 -1 1 -4 -13 -8
-19 -5 -27 -16 -33 -46 -22 -109 -51 -213 -67 -244 -10 -20 -44 -62 -74 -95
-31 -32 -56 -62 -56 -67 0 -5 -5 -9 -11 -9 -19 0 -196 -139 -239 -188 -23 -26
-54 -68 -69 -94 -15 -27 -31 -45 -34 -41 -12 11 -8 99 8 173 21 101 61 215 99
285 18 33 40 85 50 115 10 30 37 98 59 150 37 85 42 104 42 175 0 66 -4 89
-25 130 -24 48 -27 50 -70 53 -47 2 -46 -2 6 -34 13 -7 18 -22 17 -50 -1 -21
3 -62 8 -91 8 -40 7 -62 -7 -102 -9 -28 -20 -51 -25 -51 -5 0 -9 -5 -9 -11 0
-11 -24 -39 -34 -39 -2 0 -18 -14 -36 -31 -26 -26 -36 -30 -63 -25 -35 6 -77
47 -77 74 0 10 -3 12 -9 7 -9 -9 3 -90 28 -185 7 -29 9 -31 10 -10 2 41 106
100 106 60 0 -10 -8 -14 -27 -12 -32 3 -49 -21 -41 -61 7 -35 16 -34 47 6 23
28 26 29 26 11 0 -12 -9 -33 -20 -47 -12 -14 -36 -48 -54 -75 -29 -44 -31 -51
-18 -70 17 -25 4 -76 -25 -97 -14 -10 -15 -17 -4 -41 7 -20 9 -43 3 -69 -8
-41 4 -163 18 -178 4 -5 21 9 36 30 48 63 183 195 194 188 5 -3 10 -17 10 -31
0 -19 5 -24 26 -24 18 0 28 6 31 20 4 14 11 19 23 15 10 -3 34 4 55 16 36 22
37 22 93 4 32 -9 69 -24 84 -31 27 -14 27 -13 33 20 4 19 5 42 3 52 -4 22 -78
53 -130 53 -20 1 -40 6 -44 12 -5 9 8 10 47 6 30 -4 86 -10 125 -13 l71 -7 31
45 c17 25 38 48 46 51 28 11 56 83 56 142 0 70 -27 125 -75 154 -41 24 -39 30
19 94 19 21 42 58 52 82 19 51 31 57 40 20 3 -14 13 -29 21 -34 13 -7 14 -13
2 -46 -13 -35 -13 -38 9 -53 16 -10 22 -25 23 -51 0 -20 4 -45 8 -56 7 -17 13
-13 45 38 20 31 46 63 56 70 11 6 20 21 20 32 0 12 9 38 19 58 15 29 19 60 20
145 0 59 5 121 10 138 9 31 5 114 -6 144 -4 8 -5 19 -4 24 1 5 -5 16 -12 25
-8 9 -18 30 -22 48 -16 79 -132 179 -193 167 l-32 -6 0 49 c0 36 6 58 20 76
12 15 22 44 23 69 2 34 10 51 40 81 21 22 45 53 54 70 8 18 23 39 32 48 36 37
48 58 54 95 4 21 20 81 37 133 28 86 29 96 15 117 -19 29 -19 64 -1 90 12 15
27 19 80 19 58 0 66 -2 66 -18 0 -31 71 -156 100 -177 14 -10 39 -22 54 -26
16 -4 31 -15 33 -25 7 -24 19 -24 25 -1 4 13 21 22 62 30 74 15 99 2 90 -44
-5 -27 0 -37 31 -67 22 -21 53 -39 81 -46 49 -13 64 -9 64 17 0 9 4 23 8 29
10 15 8 -64 -3 -127 -4 -25 -12 -51 -18 -58 -5 -7 -7 -16 -3 -20 4 -4 14 2 22
13 15 20 15 20 35 -4 11 -14 17 -31 14 -42 -5 -15 -1 -19 19 -19 31 0 62 38
77 94 14 54 40 129 50 140 12 14 82 -14 117 -47 34 -33 36 -52 10 -135 -7 -24
-7 -37 2 -47 17 -20 30 -19 30 3 0 25 35 58 45 42 4 -7 2 -17 -4 -23 -16 -16
-14 -52 4 -67 21 -17 38 -4 24 21 -15 28 -8 38 20 28 18 -7 22 -14 17 -32 -4
-12 -10 -39 -13 -60 -3 -21 -14 -44 -24 -51 -18 -12 -18 -13 2 -34 11 -12 28
-22 37 -22 24 0 59 -26 49 -36 -4 -4 -24 0 -43 10 -20 9 -39 15 -41 12 -3 -2
-9 -100 -14 -218 -5 -117 -13 -260 -17 -318 -7 -104 -7 -105 -34 -108 -15 -2
-40 4 -57 12 -16 9 -44 16 -61 16 -17 0 -45 7 -61 16 -29 14 -32 14 -45 -3
-13 -17 -13 -17 -14 4 0 12 5 25 10 28 9 5 -10 52 -37 94 -2 2 -18 -4 -36 -14
-25 -13 -45 -16 -82 -11 -28 4 -67 8 -89 10 -21 2 -42 9 -46 16 -4 7 -16 9
-29 5 -18 -5 -22 -2 -27 24 -8 37 -9 37 -44 9 -15 -13 -41 -30 -58 -39 -47
-26 -80 -94 -104 -214 -12 -59 -27 -109 -32 -110 -6 -2 -28 -6 -48 -10 -35 -5
-39 -10 -54 -58 -43 -140 -70 -447 -44 -512 l12 -30 14 33 c17 40 34 34 29
-11 -3 -17 -8 -59 -11 -92 -7 -52 -8 -56 -15 -30 l-7 30 -1 -30 c-1 -31 11
-74 49 -179 31 -87 56 -131 87 -155 26 -21 26 -22 10 -50 -18 -31 -22 -61 -9
-61 4 0 16 13 25 30 45 76 167 -13 167 -121 0 -46 -28 -105 -55 -115 -24 -9
-61 4 -96 33 l-33 28 7 -25 c4 -14 7 -28 7 -32 0 -5 9 -8 19 -8 33 0 58 -33
69 -90 22 -109 22 -115 0 -129 -15 -9 -23 -10 -31 -2 -29 29 -54 -9 -99 -149
-31 -95 -42 -98 -33 -11 3 40 9 80 12 89 5 12 2 14 -11 9 -10 -4 -24 -7 -32
-7 -17 0 -19 -27 -2 -32 8 -3 9 -11 3 -24 -5 -10 -14 -50 -21 -89 -11 -68 -11
-69 -14 -25 -3 37 -4 31 -10 -30 -5 -56 -3 -78 7 -86 7 -6 13 -14 13 -17 0 -8
-79 -37 -103 -37 -36 0 -68 -43 -60 -81 4 -20 2 -30 -4 -26 -28 17 -174 -188
-219 -307 -34 -89 -36 -92 -82 -100 -54 -9 -133 -86 -88 -86 7 0 19 7 26 15
25 31 30 14 6 -22 -14 -20 -31 -58 -37 -85 -7 -26 -16 -48 -20 -48 -10 0 1 72
12 84 18 20 9 44 -16 43 -20 0 -30 -9 -45 -38 -11 -21 -20 -48 -20 -60 0 -19
-4 -21 -36 -16 -29 5 -35 3 -32 -11 2 -12 17 -19 50 -22 26 -3 50 -9 54 -13 4
-4 13 -2 21 5 7 6 15 9 17 7 5 -6 15 -79 11 -79 -3 0 -20 9 -40 20 -29 16 -35
17 -35 5 0 -8 -8 -15 -17 -15 -15 0 -15 -2 -3 -14 21 -19 136 -44 264 -56 137
-13 416 -13 416 -1 0 5 -12 19 -26 30 -17 14 -24 26 -20 37 6 15 9 15 29 -5
18 -16 36 -21 75 -21 41 0 52 -3 52 -16 0 -12 -5 -14 -17 -8 -34 14 -77 10
-81 -8 -3 -16 7 -18 96 -18 54 0 101 2 104 5 3 3 1 24 -4 48 -51 224 -84 298
-146 318 -49 15 -63 29 -29 29 20 0 25 4 20 16 -3 8 -16 19 -28 24 -20 8 -22
13 -16 42 20 86 168 301 244 355 35 24 212 57 300 56 26 -1 47 0 47 2 0 11
-46 105 -61 123 l-18 24 -26 -26 c-14 -14 -28 -26 -30 -26 -2 0 -6 13 -10 28
-8 40 12 157 36 203 19 38 21 39 72 39 55 0 97 24 97 54 0 30 148 143 174 133
11 -4 13 -1 9 10 -5 12 -1 14 18 8 13 -4 29 -12 35 -16 8 -7 14 2 18 26 4 20
10 44 13 53 3 10 -3 7 -16 -8 l-20 -25 -35 34 c-20 19 -36 41 -36 48 0 7 -7
13 -15 13 -8 0 -15 6 -15 14 0 22 -15 27 -44 16 -19 -7 -26 -17 -26 -37 -1
-27 -1 -27 -14 7 -7 19 -21 53 -31 75 -28 63 -47 154 -46 219 1 32 -3 64 -8
70 -5 6 -7 30 -4 53 5 39 7 41 30 32 35 -13 79 13 104 64 23 46 47 77 60 77 4
0 1 -12 -7 -27 -7 -16 -14 -36 -14 -45 0 -20 22 -36 28 -20 2 7 11 12 21 12
24 0 41 20 41 48 0 21 2 22 15 12 24 -20 19 21 -8 61 -24 37 -71 50 -111 31
-78 -36 -116 -41 -116 -18 0 8 5 18 10 21 13 8 13 122 0 130 -5 3 -10 1 -10
-4 0 -6 -11 -11 -25 -11 -15 0 -25 -6 -25 -14 0 -19 17 -29 25 -16 4 6 10 8
15 5 13 -8 1 -63 -27 -119 -34 -68 -47 -50 -40 56 7 112 21 156 55 169 l26 10
-29 24 c-17 13 -35 24 -41 25 -21 0 -64 41 -64 61 0 14 7 19 25 19 26 0 31 9
17 25 -5 6 -19 37 -32 70 -29 73 -50 104 -71 105 -21 0 -29 29 -29 104 0 48 3
57 15 52 9 -3 24 0 35 6 10 7 22 10 25 6 3 -3 10 -48 16 -99 16 -160 62 -220
130 -170 32 24 46 26 51 10 3 -8 10 -8 25 2 16 10 19 16 11 26 -14 17 30 35
54 22 9 -5 32 -9 50 -9 18 0 38 -4 44 -8 6 -4 14 -56 18 -120 15 -245 52 -368
131 -441 50 -46 110 -66 173 -57 57 8 97 30 158 87 38 35 57 46 72 42 11 -3
48 5 82 16 34 12 65 19 71 16 5 -4 9 -50 9 -103 1 -161 34 -347 67 -373 15
-12 16 -12 9 6 -29 77 -39 144 -43 299 -5 155 -4 171 13 183 24 17 59 17 74
-2 7 -8 21 -15 31 -15 18 0 19 -9 19 -119 0 -196 -24 -332 -62 -352 -23 -12
-11 -33 14 -24 36 14 56 109 68 320 12 215 10 208 48 240 18 15 32 33 32 41 0
8 5 14 11 14 6 0 8 -8 5 -17 -5 -15 -4 -15 9 1 8 11 15 25 15 31 0 7 26 40 59
73 l58 62 66 0 c55 0 70 4 87 22 11 12 20 28 20 35 0 13 22 20 75 25 29 3 30
4 28 54 l-2 52 68 6 c67 7 101 2 101 -15 0 -5 14 -9 32 -9 22 0 38 -8 53 -25
12 -15 32 -27 49 -28 35 -2 38 7 62 163 18 115 13 352 -8 377 -16 20 -27 16
-21 -8 5 -19 4 -20 -15 -10 -17 9 -24 6 -46 -20 -27 -32 -33 -54 -16 -64 17
-10 11 -28 -6 -21 -10 4 -25 -1 -35 -10 -14 -13 -21 -13 -40 -3 -17 9 -24 9
-27 0 -2 -6 -10 -11 -18 -11 -9 0 -12 5 -9 10 3 6 -3 10 -14 10 -11 0 -23 -4
-26 -10 -9 -15 -75 -12 -75 3 0 14 -41 57 -54 57 -13 0 -118 -104 -160 -160
-23 -30 -56 -80 -74 -111 -43 -75 -54 -84 -84 -66 -13 8 -40 18 -61 22 -36 6
-42 3 -75 -33 -53 -56 -68 -62 -131 -49 -37 7 -59 7 -70 0 -32 -20 -78 -3
-116 43 -20 24 -43 44 -52 44 -10 0 -13 6 -9 16 3 8 1 25 -6 37 l-11 21 -8
-22 c-10 -27 -29 -29 -36 -2 -3 11 -9 17 -14 14 -15 -9 -10 -36 9 -50 19 -14
11 -28 -25 -38 -18 -6 -27 0 -49 36 -122 193 -211 308 -238 308 -16 0 -51 38
-43 46 15 15 54 -16 166 -131 67 -69 127 -125 134 -125 17 0 37 20 37 37 0 7
-9 21 -21 32 -11 10 -17 21 -12 24 4 2 46 -2 93 -10 119 -20 365 -20 459 0 83
19 150 54 193 103 17 19 39 34 49 34 10 0 19 4 19 9 0 5 12 12 27 16 26 6 26
8 10 19 -22 17 -22 28 3 44 12 7 18 18 14 24 -4 6 -1 9 7 6 8 -3 14 -11 15
-19 2 -34 5 -39 22 -39 29 1 49 24 49 55 1 17 4 59 8 95 15 119 13 135 -14
138 -17 3 -30 -4 -43 -20 -14 -18 -18 -20 -18 -6 0 41 -23 25 -50 -36 -30 -65
-46 -84 -58 -71 -4 4 -1 10 6 12 21 8 13 21 -19 28 -40 9 -35 35 10 50 l33 11
-26 12 c-16 7 -24 17 -20 26 3 8 -2 28 -10 45 -20 39 -20 41 5 41 19 0 19 2
-7 35 -26 34 -26 36 -10 69 21 45 20 84 -3 121 -22 37 -32 95 -16 95 6 0 17 6
24 13 6 6 24 12 39 12 21 0 28 5 30 25 2 14 13 57 24 95 11 39 33 122 48 185
16 63 36 142 45 175 15 53 16 71 5 155 -14 114 -10 394 6 410 6 6 27 15 45 20
173 42 249 71 292 108 11 10 17 30 17 57 0 49 12 67 62 90 49 22 124 89 145
129 13 24 18 75 24 241 8 243 -2 327 -51 432 -38 79 -109 173 -130 170 -20 -3
-51 -98 -37 -114 5 -7 31 -13 57 -13 29 0 52 -6 60 -15 19 -23 4 -33 -37 -23
-26 7 -47 7 -65 -1 -26 -10 -28 -14 -28 -71 0 -47 3 -60 15 -60 21 0 19 -30
-6 -87 -20 -45 -22 -47 -32 -25 -11 24 -22 28 -33 11 -3 -6 -1 -15 6 -19 16
-10 -3 -22 -23 -14 -8 3 -17 -2 -20 -10 -4 -10 -1 -16 9 -16 9 0 13 -5 10 -12
-3 -7 -9 -21 -12 -30 -3 -9 -16 -18 -28 -20 -16 -2 -20 -9 -18 -27 3 -34 9
-37 32 -16 11 10 23 15 27 11 12 -11 -38 -96 -70 -119 -15 -12 -45 -49 -66
-82 -36 -56 -71 -96 -71 -81 0 11 31 69 61 113 32 47 37 73 13 73 -13 0 -14 3
-4 15 7 8 10 25 6 40 -11 42 61 203 101 228 7 4 19 22 27 40 17 37 29 110 17
102 -5 -2 -11 -23 -14 -46 -3 -24 -12 -46 -20 -51 -8 -4 -29 -30 -47 -58 -37
-57 -61 -75 -78 -58 -7 7 -12 18 -12 25 0 7 -9 17 -20 23 -18 10 -19 8 -13
-40 4 -38 0 -65 -17 -112 -36 -101 -110 -204 -110 -155 0 7 16 36 36 66 20 29
42 68 50 87 16 37 19 100 5 108 -4 3 -11 31 -14 63 -5 51 -10 61 -47 94 -43
38 -104 56 -218 62 -72 4 -52 22 28 25 92 4 134 -8 191 -53 51 -41 63 -43 54
-12 -13 44 43 -35 60 -85 l16 -48 30 22 c31 23 39 58 14 58 -9 0 -34 18 -56
39 -38 36 -42 44 -46 105 -6 71 2 91 45 107 18 7 22 14 16 32 -10 32 -12 33
-42 15 -26 -16 -29 -16 -39 0 -9 14 -17 4 -49 -63 l-39 -80 -90 3 c-49 2 -97
5 -106 8 -9 2 -25 23 -35 47 -10 23 -34 62 -53 86 -18 24 -40 60 -48 80 -8 20
-20 50 -28 66 -7 17 -29 70 -49 118 -108 262 -251 492 -350 559 -22 15 -17 6
21 -33 109 -115 238 -329 303 -507 12 -34 27 -65 31 -68 16 -10 9 -24 -12 -24
-16 0 -19 -4 -14 -17 4 -10 15 -40 25 -66 9 -26 27 -57 38 -68 21 -19 30 -49
15 -49 -27 1 -73 61 -93 120 -33 95 -172 374 -235 470 -30 46 -55 86 -55 89 0
17 -87 104 -125 127 -48 28 -66 31 -107 21 -17 -4 -28 -3 -28 2 0 14 83 61
107 61 12 0 23 6 26 13 7 20 133 54 298 82 168 29 193 30 247 11 55 -20 132
-31 132 -19 0 15 -156 45 -255 48 -49 2 -119 0 -155 -4z m-495 -500 c60 -71
71 -94 78 -168 11 -126 95 -246 282 -403 43 -36 103 -87 134 -113 31 -27 69
-56 85 -64 22 -12 26 -17 15 -24 -18 -11 -48 8 -187 114 -62 48 -117 87 -123
87 -6 0 -9 -9 -6 -20 3 -11 1 -20 -4 -20 -5 0 -9 6 -9 14 0 8 -15 25 -32 37
-18 12 -39 29 -45 37 -10 12 -13 12 -13 3 0 -8 8 -20 17 -27 10 -7 14 -16 10
-21 -10 -10 -87 74 -123 134 -19 32 -25 54 -23 85 2 24 -2 66 -8 93 -7 28 -14
66 -18 86 -6 41 -77 129 -102 129 -9 0 -22 -8 -29 -17 -15 -21 -19 -18 -28 20
-6 26 -5 28 21 25 26 -3 28 0 31 40 4 52 12 49 77 -27z m370 -38 c11 -21 29
-51 41 -68 11 -16 45 -73 74 -125 29 -52 64 -110 78 -129 14 -19 40 -68 58
-110 28 -65 38 -77 65 -85 34 -10 56 -45 44 -73 -6 -15 -8 -15 -12 -3 -18 51
-73 65 -111 30 -26 -25 -27 -29 -6 -58 23 -33 52 -46 70 -31 11 9 18 9 26 1
18 -18 -2 -32 -48 -32 -39 0 -47 4 -64 33 -27 44 -25 57 14 103 l33 38 -52 66
c-28 36 -80 112 -115 170 -35 58 -72 118 -82 133 -16 23 -18 33 -9 58 8 24 7
31 -4 36 -8 3 -15 14 -15 24 0 12 -7 19 -20 19 -23 0 -26 10 -8 28 18 18 22
16 43 -25z m-149 -774 c3 -5 10 -6 16 -3 22 14 78 14 110 1 45 -19 93 -61 128
-112 42 -61 34 -98 -32 -149 -45 -34 -53 -37 -74 -26 -13 7 -34 24 -46 38
l-23 25 33 -19 c32 -18 33 -18 70 1 34 19 37 24 40 71 3 47 0 55 -30 87 -19
19 -52 40 -75 47 -36 11 -47 10 -76 -4 -46 -21 -54 -20 -63 6 -3 12 -25 42
-49 67 -65 71 -63 90 5 31 33 -29 63 -56 66 -61z m824 16 c48 -25 90 -85 90
-127 -1 -19 -5 -15 -20 17 -23 45 -63 85 -87 85 -14 0 -13 -4 4 -22 32 -36 43
-63 43 -110 0 -52 -25 -95 -75 -134 -31 -23 -48 -28 -92 -28 -47 0 -52 -2 -37
-13 10 -7 38 -13 62 -13 38 0 43 -2 32 -15 -7 -9 -29 -15 -51 -15 -22 0 -39
-5 -39 -10 0 -6 -12 -3 -27 7 -81 50 -126 119 -121 186 3 36 6 42 24 40 16 -2
23 4 27 26 7 32 105 133 139 143 29 8 96 -1 128 -17z m-314 -400 c16 -11 34
-20 39 -20 6 -1 31 -11 56 -23 63 -30 141 -31 203 -3 54 24 66 26 66 11 0 -5
-5 -10 -11 -10 -6 0 -18 -7 -27 -16 -14 -15 -14 -18 9 -35 13 -10 19 -19 12
-19 -6 0 -15 5 -18 10 -10 16 -55 12 -55 -5 0 -9 -12 -20 -26 -25 -35 -14 -44
-13 -44 6 0 14 -9 16 -56 12 -56 -5 -57 -4 -100 40 -68 69 -124 139 -117 146
3 3 14 -7 23 -22 10 -15 30 -36 46 -47z m160 -1151 c-1 -39 -7 -68 -15 -73
-16 -10 -109 -13 -124 -4 -7 4 -19 8 -27 8 -16 0 -17 26 -5 92 6 36 16 40 112
42 l62 1 -3 -66z m-2410 -95 c54 -11 106 -27 116 -35 14 -14 17 -14 28 3 9 16
10 15 4 -7 -8 -32 -24 -50 -24 -27 0 9 -4 17 -10 17 -16 0 -12 -38 5 -42 9 -2
12 -8 6 -17 -7 -10 -13 -11 -31 -1 -30 16 -37 5 -14 -21 l19 -21 -35 6 c-19 3
-55 10 -80 16 -25 6 -78 15 -119 21 -84 11 -91 14 -91 36 0 12 7 14 35 10 34
-6 36 -4 56 39 12 24 24 44 29 44 4 0 51 -9 106 -21z m2409 -609 c11 -1 14 -4
8 -7 -7 -2 -13 -11 -13 -18 0 -8 -11 -25 -25 -39 -30 -30 -32 -57 -5 -81 18
-16 20 -16 26 -1 9 24 34 19 34 -7 0 -30 -10 -40 -27 -26 -10 9 -17 8 -28 -1
-18 -15 -20 -59 -2 -65 8 -4 12 -28 12 -74 0 -38 -3 -67 -7 -65 -4 2 -25 62
-47 132 -38 120 -59 231 -48 249 4 7 62 9 122 3z m-823 -37 c3 -58 -5 -139
-14 -150 -13 -16 -50 -17 -66 -1 -13 13 -17 159 -5 171 3 4 24 7 45 7 34 0 38
-3 40 -27z m-935 -880 c8 -38 15 -81 14 -98 0 -16 4 -32 10 -36 8 -5 6 -29 -6
-80 -18 -80 -22 -210 -7 -249 5 -14 19 -34 31 -45 18 -16 25 -17 41 -7 11 7
22 12 24 12 11 0 25 -82 32 -180 4 -65 12 -114 21 -128 29 -46 15 -401 -20
-522 -11 -40 -16 -45 -42 -45 -28 0 -31 4 -41 50 -7 28 -13 97 -13 156 -1 92
-4 112 -27 157 -14 29 -42 65 -62 82 -34 28 -35 30 -18 43 18 13 19 21 7 153
-7 76 -12 179 -11 229 1 49 2 97 1 107 0 9 -29 34 -63 56 -35 22 -71 49 -80
61 -20 24 -12 27 16 6 24 -18 44 -19 43 -2 -1 6 2 31 6 54 6 29 14 43 29 46
16 4 18 10 12 29 -13 41 -6 161 11 177 13 14 15 12 15 -17 0 -39 27 -45 35 -7
3 14 7 37 10 51 8 37 16 24 32 -53z m728 -79 l0 -49 40 -6 c22 -3 45 -7 50 -9
24 -7 78 14 82 32 3 10 9 18 12 18 17 0 71 -81 71 -105 0 -13 -29 -3 -45 15
-17 19 -18 19 -35 -2 -19 -24 -23 -16 50 -99 22 -25 40 -52 40 -60 0 -8 11
-37 24 -65 17 -36 32 -54 55 -63 17 -8 31 -17 31 -20 0 -4 -12 -19 -27 -33
-158 -146 -313 -68 -361 182 -16 82 -23 198 -16 263 8 71 29 72 29 1z m749
-240 c9 -8 16 -24 16 -35 0 -16 7 -19 41 -19 53 0 48 -22 -7 -32 -21 -3 -59
-11 -83 -18 -63 -16 -71 -10 -71 53 0 30 3 57 7 60 13 13 82 7 97 -9z"/>
<path d="M5030 7443 c0 -4 12 -24 26 -45 36 -51 74 -202 75 -297 1 -47 -9
-122 -25 -200 -31 -145 -32 -177 -5 -101 32 91 62 276 56 355 -6 83 -55 236
-88 271 -22 23 -39 31 -39 17z"/>
<path d="M5308 7324 c-58 -37 -58 -65 -7 -217 10 -31 19 -72 19 -91 0 -19 6
-36 14 -39 7 -3 15 -27 19 -59 3 -30 13 -72 23 -94 9 -21 18 -45 20 -52 9 -46
34 -18 38 44 3 35 10 53 26 66 l23 19 -24 17 c-13 9 -31 17 -39 17 -12 0 -15
14 -15 69 0 47 -4 71 -12 73 -7 3 -13 10 -13 18 0 9 25 14 85 17 95 5 105 10
140 80 21 41 23 42 66 40 68 -5 118 -21 129 -42 19 -35 12 -87 -16 -119 -21
-25 -24 -34 -14 -46 6 -8 9 -19 5 -25 -4 -6 -9 -38 -12 -71 -4 -56 -3 -59 17
-59 18 0 20 3 11 14 -12 15 -5 73 13 95 14 18 20 196 6 221 -15 29 -56 47
-125 55 -33 4 -67 14 -76 22 -11 9 -32 12 -68 9 -46 -4 -53 -2 -60 16 -5 15
-23 25 -57 34 -66 17 -73 17 -116 -12z m162 -79 c7 -8 19 -15 27 -15 23 0 73
-30 73 -44 0 -21 -37 -48 -62 -44 -17 2 -22 9 -20 23 2 18 -5 22 -64 31 -64
10 -66 9 -75 -14 -5 -13 -9 -35 -9 -50 0 -21 -2 -24 -10 -12 -14 22 -12 96 3
108 14 12 73 30 103 31 12 1 27 -6 34 -14z"/>
<path d="M3382 7253 c-2 -25 -12 -29 -29 -12 -20 20 -33 -1 -33 -49 0 -54 21
-92 52 -92 15 0 18 -4 13 -17 -32 -77 -32 -73 5 -104 34 -29 34 -30 12 -35
-12 -4 -22 -9 -22 -13 0 -10 50 -30 55 -21 2 4 8 40 11 79 6 64 5 71 -10 65
-13 -5 -16 1 -16 30 0 25 -5 36 -15 36 -11 0 -15 18 -18 78 -1 42 -4 67 -5 55z"/>
<path d="M2775 6888 c-11 -6 -21 -12 -23 -13 -2 -1 8 -27 22 -58 13 -30 27
-70 31 -88 l8 -34 9 28 c11 31 44 37 51 10 9 -33 36 -148 53 -225 10 -45 22
-78 29 -78 23 0 64 40 70 71 17 77 -55 238 -150 337 -64 66 -69 68 -100 50z"/>
<path d="M5708 6854 c-4 -3 4 -21 17 -40 28 -41 59 -131 80 -232 8 -40 21 -85
29 -100 26 -48 102 -122 126 -122 17 0 21 4 16 17 -4 9 -11 37 -17 62 -16 74
-60 212 -84 266 -41 94 -137 179 -167 149z"/>
<path d="M5522 6827 c-6 -7 -14 -47 -18 -89 -5 -56 -12 -82 -25 -94 -22 -20
-24 -41 -6 -63 8 -9 28 -68 46 -131 24 -86 39 -120 57 -135 26 -21 43 -75 44
-138 0 -54 17 -37 25 26 9 71 -7 125 -53 181 -40 49 -94 166 -94 204 0 29 19
52 60 69 29 12 32 17 32 57 0 80 -40 147 -68 113z"/>
<path d="M2087 6481 c-121 -44 -303 -174 -337 -242 -23 -44 -24 -49 -9 -49 5
0 16 15 24 34 21 49 187 186 226 186 6 0 -3 -10 -22 -23 -36 -24 -104 -119
-145 -202 -13 -27 -34 -65 -45 -83 -12 -18 -24 -56 -28 -84 -3 -29 -12 -53
-19 -56 -10 -3 -12 9 -7 59 6 59 5 63 -9 45 -16 -19 -16 -19 -16 2 0 13 -6 22
-15 22 -14 0 -20 -14 -27 -65 -2 -12 -12 -21 -26 -23 -19 -3 -23 -9 -20 -35 2
-20 9 -32 18 -32 15 -1 16 -8 5 -37 -7 -18 6 -23 48 -20 15 2 18 -4 15 -31 -3
-29 -6 -32 -38 -32 -31 0 -36 -4 -41 -30 -12 -56 -10 -72 11 -78 17 -4 19 -9
11 -29 -21 -57 83 -327 115 -295 3 3 -10 52 -30 108 -38 113 -52 216 -37 264
8 26 9 23 10 -31 1 -65 23 -153 49 -192 l16 -24 17 23 c28 37 29 19 3 -45
l-24 -60 25 24 c31 29 58 99 80 210 22 112 51 163 157 277 67 72 98 115 130
180 44 91 49 129 33 231 -11 71 -28 66 -23 -8 2 -39 0 -56 -7 -49 -11 11 -14
153 -3 165 4 4 14 2 21 -5 11 -8 18 -7 31 8 16 17 15 19 -8 35 -14 9 -27 16
-28 15 -2 0 -38 -13 -81 -28z"/>
<path d="M6265 6354 c-33 -8 -70 -16 -82 -19 -13 -3 -23 -13 -23 -21 0 -11 5
-14 17 -10 9 4 36 10 59 13 36 5 44 2 53 -16 7 -12 10 -25 7 -29 -3 -5 4 -16
15 -25 30 -26 24 -53 -12 -61 -50 -10 -58 -8 -85 21 -34 37 -40 24 -48 -106
-8 -111 -3 -141 20 -141 16 0 19 -16 4 -25 -5 -3 -10 -17 -10 -29 0 -13 -7
-29 -15 -36 -8 -7 -15 -18 -15 -26 0 -7 -30 -39 -67 -71 -164 -141 -273 -270
-273 -325 0 -9 11 -34 25 -54 14 -20 23 -39 21 -42 -9 -8 -27 10 -37 36 -7 19
-13 22 -21 14 -15 -15 -87 -249 -88 -282 0 -15 -4 -30 -9 -35 -9 -10 -71 -163
-71 -176 0 -12 44 -19 55 -9 11 9 80 1 133 -15 19 -6 31 0 65 38 59 63 73 91
61 125 -12 33 8 94 42 132 17 18 20 29 14 40 -5 8 -10 18 -10 23 0 20 27 0
100 -73 44 -44 78 -80 75 -80 -2 0 -20 8 -40 17 -19 9 -38 14 -41 10 -4 -3 3
-32 15 -64 16 -44 20 -71 15 -111 -4 -42 -1 -61 16 -94 11 -22 20 -48 18 -57
-1 -9 6 -33 16 -54 16 -35 16 -40 2 -56 -20 -22 -20 -45 0 -62 14 -11 19 -9
34 11 16 22 20 23 25 8 4 -9 1 -26 -5 -38 -9 -17 -9 -25 2 -38 8 -9 19 -29 26
-44 6 -16 16 -28 21 -28 5 0 11 -15 13 -32 2 -25 7 -32 21 -30 25 4 21 -21 -8
-52 -31 -34 -31 -38 0 -24 18 8 29 8 36 1 16 -16 2 -33 -25 -33 -32 0 -48 -23
-44 -61 3 -28 -1 -34 -27 -42 -44 -14 -85 -46 -85 -65 0 -15 -14 -44 -78 -166
-21 -41 -26 -370 -5 -403 7 -13 11 -34 7 -47 -3 -14 2 -36 15 -57 12 -19 21
-41 21 -50 0 -9 6 -22 14 -29 8 -6 17 -21 20 -33 2 -12 2 3 -1 34 l-5 55 41
16 c40 16 51 31 31 43 -18 11 -11 47 10 52 23 6 35 41 27 78 -6 33 36 149 56
153 22 4 79 -87 72 -115 -9 -37 5 -73 35 -88 17 -9 30 -25 33 -45 4 -17 18
-41 32 -54 21 -19 55 -82 55 -101 0 -3 -8 -5 -18 -5 -36 0 -56 -37 -60 -111
-6 -95 2 -128 43 -173 19 -22 35 -43 35 -46 0 -18 64 -85 81 -86 21 -1 40 -14
20 -14 -8 0 -9 -5 -1 -19 16 -31 12 -34 -16 -12 -15 12 -36 21 -46 21 -61 0
-136 -75 -124 -124 5 -21 -7 -37 -78 -106 -46 -45 -95 -88 -108 -94 -27 -14
-148 -181 -148 -205 1 -11 11 -5 33 20 18 19 40 41 50 49 22 16 106 30 113 18
3 -4 -2 -8 -10 -8 -24 0 -19 -17 6 -23 30 -8 38 -1 38 34 0 16 3 29 8 29 4 0
29 18 56 40 26 22 56 40 66 40 9 0 25 9 35 20 13 15 31 20 65 20 51 0 63 -9
74 -52 3 -16 13 -28 21 -28 36 0 11 -66 -62 -165 -74 -101 -86 -114 -112 -120
-31 -8 -107 -63 -144 -104 -15 -17 -36 -31 -48 -31 -33 0 -59 19 -60 43 l0 22
-9 -21 c-7 -19 -13 -99 -11 -144 1 -8 10 -21 22 -28 18 -11 23 -11 33 4 9 12
20 15 44 9 38 -8 40 -18 7 -33 -14 -6 -25 -18 -25 -26 0 -7 -14 -16 -31 -20
-39 -8 -34 -27 12 -42 41 -14 88 5 97 38 4 17 7 19 16 7 16 -21 89 -57 104
-52 17 6 15 23 -5 45 -15 17 -15 21 -3 29 8 5 26 12 40 15 14 4 41 19 60 34
l36 28 41 -39 41 -38 -32 -21 c-44 -26 -56 -25 -56 5 0 18 -5 25 -20 25 -23 0
-26 -10 -8 -28 7 -7 13 -30 13 -53 1 -40 1 -40 -31 -35 -24 5 -33 2 -38 -10
-6 -15 -9 -15 -29 3 -13 13 -44 24 -77 28 l-55 7 19 -21 c22 -24 11 -45 -29
-55 -14 -4 -25 -11 -25 -16 0 -15 92 -12 123 5 26 13 31 13 50 0 26 -18 38
-19 32 -2 -3 7 16 22 48 37 28 14 66 35 83 47 17 13 42 23 55 23 48 0 32 70
-31 137 -29 30 -30 34 -16 54 l15 22 12 -26 c7 -15 18 -27 24 -27 19 0 36 25
30 42 -4 9 4 22 19 32 24 15 28 15 52 -1 l26 -17 -23 -20 c-14 -12 -39 -32
-57 -46 -30 -24 -31 -28 -20 -53 7 -15 18 -27 23 -27 6 0 28 21 50 47 21 27
45 52 52 56 17 10 17 32 -1 46 -17 14 -10 51 13 69 11 9 12 15 5 20 -24 15
-27 53 -4 74 30 28 52 8 45 -41 -4 -29 -4 -32 4 -14 13 30 2 123 -15 130 -33
12 -10 23 39 18 69 -8 117 19 117 65 0 55 -53 98 -248 198 -99 51 -189 103
-201 116 -19 20 -20 27 -10 50 13 28 70 58 145 77 34 9 48 8 74 -6 18 -9 42
-14 55 -11 13 3 27 2 30 -4 10 -16 65 -12 65 4 0 27 21 28 47 5 14 -13 45 -53
69 -89 24 -36 44 -59 44 -51 0 33 -67 134 -128 192 -134 128 -221 221 -237
255 -20 43 -45 156 -45 209 -1 66 -19 126 -50 166 -33 40 -40 93 -18 132 6 12
13 51 14 87 8 198 17 233 81 316 73 96 109 194 85 230 -15 24 -51 26 -78 5
-15 -12 -31 -21 -37 -21 -6 0 -25 -11 -43 -25 -40 -30 -40 -30 -55 -4 -9 18
-7 27 11 52 20 27 21 31 6 39 -9 5 -16 20 -16 33 0 23 -12 39 -22 29 -3 -3 -2
-21 2 -40 4 -19 4 -37 -1 -39 -5 -3 -11 7 -14 22 -4 15 -10 38 -15 51 -8 18
-6 22 9 22 10 0 21 6 24 13 4 10 -2 13 -21 9 -15 -3 -32 -9 -38 -13 -6 -5 -14
-6 -17 -2 -11 11 -8 23 6 23 8 0 13 15 13 38 l1 38 -60 -9 c-66 -10 -82 -1
-72 42 4 13 -1 33 -10 47 -13 21 -19 23 -36 13 -17 -9 -20 -17 -16 -45 4 -25
2 -34 -9 -34 -10 0 -14 12 -14 39 0 48 -22 71 -51 53 -25 -16 -29 -15 -29 7 0
11 -4 23 -10 26 -5 3 -10 15 -10 27 0 15 -5 19 -20 15 -23 -6 -24 -4 -34 38
-7 29 -7 29 13 11 21 -19 21 -19 21 2 0 12 5 22 10 22 10 0 15 -9 40 -77 l12
-32 49 36 c27 19 49 41 49 49 0 8 13 17 30 21 17 3 33 10 36 15 7 11 -54 1
-71 -12 -5 -4 -17 -8 -25 -8 -8 -1 -27 -4 -42 -8 -45 -11 -33 14 13 26 27 7
43 18 46 31 4 14 14 19 38 19 21 0 35 6 39 16 5 13 9 14 21 4 8 -7 15 -21 15
-31 0 -24 20 -35 34 -18 6 8 20 14 31 14 31 0 29 36 -5 101 l-32 58 25 21 c14
11 41 31 61 45 34 24 40 38 39 93 0 20 13 23 20 5 7 -17 27 9 27 34 0 14 -6
16 -27 12 -58 -11 -69 -10 -93 5 -14 9 -34 21 -45 27 -35 18 -84 124 -86 185
-2 61 10 139 21 139 20 0 33 -31 22 -53 -19 -40 -21 -68 -6 -118 18 -58 61
-92 140 -110 48 -11 56 -10 101 12 75 37 114 113 99 192 -4 20 -26 55 -52 85
-73 82 -128 88 -236 29 -46 -25 -60 -16 -29 17 13 14 20 29 17 34 -3 6 10 16
29 22 43 14 41 31 -6 43 -19 5 -38 13 -43 18 -6 5 -18 9 -27 9 -23 0 -33 18
-20 34 15 18 -68 58 -92 44 -19 -10 -23 -63 -7 -73 6 -3 10 -15 10 -27 0 -18
-4 -20 -31 -14 -17 3 -35 6 -39 6 -5 0 -13 14 -19 30 -7 23 -16 30 -35 30 -14
0 -27 4 -30 8 -8 14 47 49 103 66 40 12 63 27 98 66 49 54 72 61 113 32 37
-24 109 -105 169 -188 45 -64 81 -97 81 -76 0 4 -16 32 -35 62 -78 124 -102
167 -119 210 -22 57 -43 90 -57 90 -11 0 -9 -17 6 -67 4 -13 3 -23 -3 -23 -9
0 -82 139 -82 156 0 20 -79 161 -106 191 -35 37 -35 37 -119 17z m60 -2282 c0
-72 -3 -102 -12 -102 -6 0 -17 -17 -23 -37 -7 -21 -22 -53 -33 -72 -20 -32
-21 -33 -71 -26 -57 7 -74 18 -59 37 5 7 15 38 22 68 8 30 29 88 48 128 29 61
39 74 63 78 16 4 31 13 34 21 3 8 12 13 19 10 8 -2 12 -33 12 -105z m622
-1513 c36 -17 72 -28 79 -25 17 7 19 -39 4 -80 -10 -25 -12 -26 -63 -19 -28 4
-73 6 -99 6 -44 -2 -48 0 -48 22 0 13 -6 29 -12 36 -11 11 -8 12 15 7 56 -13
91 15 42 34 -52 20 -115 51 -115 56 0 16 137 -11 197 -37z m-428 -358 c12 -22
-3 -38 -69 -71 -25 -13 -39 -25 -33 -27 15 -5 120 41 145 64 16 14 20 14 44
-1 31 -21 28 -24 -36 -47 -27 -10 -67 -31 -87 -48 -41 -33 -90 -41 -99 -16 -4
8 -1 22 6 30 10 13 9 15 -9 15 -21 0 -22 1 -4 25 10 13 25 25 35 25 9 0 31 15
50 34 40 40 44 41 57 17z"/>
<path d="M2937 6252 c-26 -3 -27 -6 -21 -40 3 -20 9 -40 13 -44 8 -10 160 -42
166 -36 9 8 -6 86 -19 102 -11 14 -88 24 -139 18z"/>
<path d="M2229 6078 c-21 -42 -62 -94 -124 -158 -125 -128 -173 -206 -211
-345 -9 -33 -29 -86 -45 -118 -16 -33 -23 -57 -16 -55 11 4 60 65 83 103 14
25 34 10 34 -26 0 -16 5 -29 10 -29 6 0 10 16 10 35 0 24 -6 39 -20 47 -27 17
-25 43 9 132 34 88 42 100 167 229 88 91 154 191 154 234 0 30 -22 9 -51 -49z"/>
<path d="M3405 5838 c-70 -25 -84 -66 -36 -112 22 -21 36 -27 53 -23 30 8 90
48 95 64 5 14 -55 83 -71 82 -6 0 -24 -5 -41 -11z"/>
<path d="M2182 5709 c-43 -13 -118 -88 -127 -127 -8 -40 10 -128 34 -168 30
-50 113 -91 197 -97 71 -6 73 -5 112 28 101 87 103 225 3 304 -97 77 -181 67
-251 -31 -28 -38 -31 -50 -30 -108 2 -89 2 -89 -16 -55 -34 65 7 183 77 223
16 10 31 23 34 30 2 6 3 12 2 11 -1 0 -17 -5 -35 -10z"/>
<path d="M3805 4975 c-119 -30 -295 -117 -295 -145 0 -22 152 -125 218 -148
32 -11 32 -11 32 23 0 19 9 59 21 90 20 54 21 55 59 55 63 0 90 15 90 49 0 43
-9 60 -41 76 -15 8 -29 15 -31 14 -2 0 -25 -7 -53 -14z"/>
<path d="M5280 4943 c8 -3 18 -11 22 -17 17 -25 7 -35 -39 -38 -37 -2 -49 -7
-51 -22 -5 -22 14 -36 49 -36 19 0 35 10 53 35 15 19 34 35 42 35 19 0 18 -3
-12 -47 -23 -34 -25 -44 -19 -96 6 -54 4 -59 -14 -64 -22 -6 -27 -18 -12 -27
11 -7 146 82 180 118 l25 26 -40 41 c-43 45 -141 99 -176 98 -15 0 -18 -3 -8
-6z"/>
<path d="M3840 4801 c-18 -5 -28 -18 -37 -51 -18 -60 -10 -74 13 -25 24 50 71
66 134 45 51 -17 115 -71 128 -108 15 -43 -8 -88 -48 -97 -38 -8 -49 -1 -21
15 30 16 26 28 -11 32 -23 2 -32 8 -34 26 -3 15 1 22 12 22 23 0 13 19 -21 38
-17 9 -32 18 -35 20 -3 2 4 10 14 18 19 13 18 14 -15 14 -42 0 -55 -8 -68 -42
-20 -52 23 -128 92 -165 38 -19 101 -19 132 1 21 14 25 24 25 69 0 126 -134
223 -260 188z"/>
<path d="M5164 4712 c-9 -14 -8 -22 2 -37 12 -17 11 -22 -13 -47 -15 -15 -32
-28 -37 -28 -16 -1 -63 -40 -48 -40 22 0 12 -20 -11 -20 -30 0 -50 34 -43 73
l6 32 -14 -35 c-16 -42 -8 -71 26 -87 78 -39 214 88 196 184 -5 25 -50 29 -64
5z"/>
<path d="M5362 4536 c-74 -72 -84 -86 -68 -92 11 -4 32 0 52 11 l34 18 49 -46
c80 -75 168 -88 292 -44 34 12 36 14 23 31 -9 13 -10 24 -3 37 12 23 11 23
-42 -1 -58 -26 -132 -26 -175 0 -41 26 -48 46 -53 148 -1 12 -6 22 -11 22 -6
0 -50 -38 -98 -84z"/>
<path d="M5240 4425 c-7 -9 -42 -34 -76 -57 -69 -44 -81 -63 -34 -53 27 6 30
4 30 -19 0 -52 84 -59 116 -11 13 20 15 38 9 90 -7 67 -20 81 -45 50z"/>
<path d="M5554 3737 c-7 -20 -28 -28 -89 -33 -27 -3 -53 -8 -57 -12 -3 -4 -2
-27 4 -52 26 -117 19 -278 -18 -407 -16 -57 -40 -85 -53 -64 -6 9 -13 5 -24
-13 -10 -14 -17 -32 -17 -40 0 -8 -5 -18 -11 -22 -15 -9 9 -24 39 -24 51 0 -3
-76 -75 -104 l-49 -19 4 -124 c4 -124 4 -125 -17 -118 -17 5 -21 2 -21 -14 0
-16 -6 -21 -24 -21 -32 0 -43 17 -14 23 22 3 22 4 3 11 -11 4 -34 15 -51 23
-39 20 -80 11 -90 -19 -8 -28 44 -78 81 -78 38 0 92 -25 105 -49 16 -32 25
-147 11 -155 -14 -9 -14 -69 0 -83 15 -15 -2 -84 -38 -159 -24 -50 -26 -51
-67 -50 -37 1 -47 -4 -79 -38 -20 -21 -37 -42 -37 -47 0 -11 -38 -22 -50 -14
-8 5 -10 -9 -8 -42 3 -45 5 -49 38 -60 27 -9 30 -12 12 -12 -17 -1 -24 -8 -28
-31 -6 -28 -10 -30 -48 -30 -39 0 -66 -13 -66 -31 0 -4 20 -11 45 -14 35 -6
50 -15 71 -42 35 -46 67 -131 60 -158 -3 -12 1 -30 9 -41 23 -31 19 -140 -8
-194 l-22 -45 -5 155 c-5 150 -6 157 -36 210 -38 67 -70 86 -128 74 -35 -8
-45 -16 -66 -54 -25 -44 -26 -45 -72 -42 -46 3 -47 3 -58 -35 -6 -21 -16 -92
-22 -159 -9 -103 -8 -129 5 -175 11 -34 13 -57 7 -63 -15 -15 -12 -44 5 -53
23 -13 55 -119 65 -211 5 -46 14 -90 21 -98 6 -7 9 -20 6 -28 -3 -8 7 -31 23
-52 15 -22 34 -61 42 -89 18 -65 50 -83 162 -95 97 -10 147 -30 166 -65 7 -14
24 -32 37 -40 22 -15 53 -20 276 -44 52 -6 118 -5 182 2 55 5 143 8 195 7 203
-8 371 2 425 24 41 18 38 36 -6 36 -26 0 -29 3 -23 25 16 65 8 133 -23 194
-30 59 -31 60 -9 63 16 2 8 10 -36 31 -55 28 -68 42 -68 75 0 9 -14 46 -31 82
-17 36 -46 108 -66 160 -51 137 -105 219 -159 240 -19 8 -22 19 -28 112 -8
139 -20 216 -34 230 -15 15 -15 -9 -3 -102 5 -36 6 -99 2 -140 -5 -68 -8 -75
-26 -72 -11 2 -28 13 -37 25 -9 12 -27 34 -38 50 -12 15 -30 27 -40 27 -9 0
-23 7 -30 15 -10 12 -16 13 -27 4 -10 -9 -18 -8 -33 6 -19 17 -20 17 -20 0 0
-12 -3 -15 -9 -9 -12 12 -21 144 -10 144 5 0 11 -12 15 -27 3 -16 9 -37 14
-48 8 -19 9 -19 9 3 1 15 10 26 27 32 14 6 22 14 19 20 -3 6 9 9 32 7 35 -2
38 0 41 26 2 17 -4 37 -14 48 -14 15 -18 40 -20 114 -2 90 -1 96 22 114 27 21
31 33 9 25 -25 -10 -75 16 -90 47 -42 80 16 208 102 225 26 5 34 2 48 -20 10
-14 21 -26 26 -26 11 0 0 30 -19 53 -14 16 -13 20 19 47 41 33 86 125 96 196
l6 48 -28 -22 c-57 -45 -133 -20 -150 51 -8 31 10 38 20 8 3 -11 22 -27 42
-36 32 -16 40 -16 62 -4 13 8 33 26 44 40 18 25 18 28 2 62 -24 52 -58 71 -98
57 -18 -6 -42 -23 -55 -38 l-23 -27 7 25 c10 38 53 79 91 86 39 7 40 15 12 56
-21 28 -21 30 -3 43 11 8 23 13 29 11 10 -3 35 -92 28 -100 -8 -7 17 -76 28
-76 14 0 11 68 -6 130 -8 30 -15 69 -15 85 l-1 30 -24 -28 c-14 -15 -49 -39
-79 -52 -71 -32 -98 -65 -90 -115 4 -21 1 -124 -6 -230 -11 -172 -11 -193 4
-209 15 -16 14 -19 -9 -31 -33 -18 -72 -70 -89 -118 -19 -53 -29 -168 -19
-222 5 -25 6 -61 3 -80 -4 -30 -9 -34 -35 -35 -26 0 -31 5 -48 50 -28 73 -49
306 -42 450 3 66 8 165 10 219 4 95 6 100 32 116 16 9 40 20 55 23 47 12 69
64 75 177 3 55 9 97 13 95 12 -8 19 33 30 186 12 166 16 181 38 178 37 -3 43
1 38 29 -2 15 -5 30 -5 34 -1 4 -11 8 -23 10 -22 3 -23 9 -30 104 -3 56 -12
120 -18 143 -6 24 -9 45 -7 48 3 2 20 -2 39 -10 l34 -14 18 -119 c27 -171 36
-198 32 -89 -2 50 -11 122 -20 160 -14 60 -21 73 -49 90 -46 28 -46 28 -53 12z
m-473 -2011 c1 -12 1 -27 0 -34 -1 -6 3 -20 8 -30 8 -13 10 -7 11 30 0 53 9
62 77 71 42 5 42 5 57 -37 38 -103 47 -202 25 -279 -9 -32 -13 -36 -25 -26 -8
7 -36 13 -62 13 -40 1 -47 4 -44 20 2 10 -2 32 -9 48 l-12 29 -18 -28 c-11
-15 -19 -37 -20 -48 -1 -20 -7 11 -28 155 -6 41 -14 83 -17 93 -3 9 -1 17 5
17 6 0 11 11 11 23 0 13 3 27 7 31 10 10 33 -23 34 -48z m290 -62 c-17 -14
-31 -30 -31 -35 0 -17 21 -9 45 17 31 33 37 21 33 -67 l-3 -64 -40 0 c-22 -1
-45 -4 -52 -8 -17 -10 -20 -1 -27 84 l-7 76 43 10 c67 16 72 15 39 -13z m-123
-315 c29 -6 65 -22 82 -35 36 -31 191 -264 213 -322 25 -62 22 -76 -15 -87
-38 -12 -43 -29 -10 -33 31 -5 17 -22 -18 -22 -20 0 -45 -14 -79 -42 -45 -39
-68 -79 -95 -161 -4 -11 -11 -15 -18 -11 -10 6 -10 4 0 -8 8 -10 9 -19 3 -22
-15 -10 -20 7 -16 50 5 62 -7 73 -45 41 -17 -15 -35 -27 -40 -27 -13 0 -17 43
-6 61 7 12 2 33 -19 74 -44 86 -88 114 -127 79 -16 -16 -18 -15 -24 2 -10 28
-35 54 -52 54 -11 0 -13 -11 -10 -45 4 -59 -9 -58 -18 1 -5 38 -4 48 10 56 18
10 56 79 56 103 0 8 8 15 18 15 10 0 31 14 47 30 35 36 58 40 46 8 -9 -26 -3
-98 10 -114 10 -13 2 -44 -12 -44 -5 0 -9 5 -9 10 0 6 -5 10 -12 10 -6 0 13
-24 42 -54 52 -54 94 -76 111 -59 5 5 2 42 -7 83 -8 41 -17 95 -20 120 -10 86
-12 90 -45 90 -27 0 -30 2 -19 15 7 9 11 37 9 72 -2 32 0 64 4 71 5 6 4 12 -1
12 -5 0 -15 -12 -23 -27 -7 -16 -21 -36 -31 -46 -10 -10 -16 -23 -12 -29 4 -7
9 -6 15 3 13 22 21 3 13 -35 -7 -37 -25 -45 -30 -12 -4 28 -10 29 -53 4 -66
-38 -69 -16 -11 85 28 48 50 92 50 98 0 12 45 8 148 -12z m736 -560 c37 -29
57 -72 63 -138 6 -69 -17 -137 -43 -127 -8 3 -21 6 -28 6 -10 0 -13 22 -13 83
0 64 -5 91 -21 124 -12 23 -26 44 -32 48 -19 12 -10 25 19 25 15 0 40 -9 55
-21z m-273 -65 c19 -23 19 -185 0 -208 -8 -10 -18 -13 -23 -8 -5 5 -45 7 -88
5 -72 -3 -98 5 -71 21 20 13 28 98 15 169 l-7 37 80 0 c62 0 84 -4 94 -16z"/>
<path d="M2030 2792 c-20 -16 -20 -19 -6 -47 9 -17 16 -38 16 -47 0 -25 -68
-61 -227 -122 -154 -59 -239 -104 -283 -148 -34 -34 -36 -45 -16 -93 20 -47
68 -75 115 -68 30 5 34 3 24 -8 -20 -21 -15 -93 11 -163 14 -35 22 -74 19 -85
-4 -14 7 -36 37 -71 40 -48 43 -50 61 -34 18 16 17 18 -26 59 -32 29 -44 47
-39 58 8 23 21 21 27 -2 2 -11 15 -21 28 -23 15 -2 24 -10 24 -21 0 -10 8 -25
18 -32 16 -12 16 -14 -13 -38 -35 -30 -37 -42 -9 -57 11 -7 19 -19 17 -30 -2
-14 16 -32 66 -65 37 -25 71 -44 74 -41 7 7 -39 45 -55 46 -7 0 -13 5 -13 11
0 7 9 9 21 6 24 -6 59 12 59 30 0 17 22 16 46 -2 35 -27 39 -15 4 15 -41 35
-21 40 27 8 27 -19 32 -28 28 -47 -5 -19 -3 -22 11 -17 10 4 20 2 24 -4 9 -14
40 -2 40 16 0 7 -13 41 -29 74 -16 33 -25 62 -20 66 17 10 9 20 -36 42 -25 12
-48 29 -52 38 -6 15 51 84 70 84 5 0 27 -15 48 -34 45 -38 96 -51 119 -30 12
12 8 20 -35 64 -53 54 -109 80 -128 61 -6 -6 -14 -11 -18 -11 -11 0 -27 60
-26 96 0 17 -14 61 -31 99 -18 37 -32 79 -32 94 0 35 26 71 52 71 17 0 18 2 8
15 -10 12 -10 19 -1 28 9 9 13 7 17 -10 4 -14 11 -19 25 -16 14 4 19 0 19 -16
0 -13 9 -25 24 -31 13 -5 27 -14 31 -19 3 -6 14 -11 24 -11 9 0 43 -19 74 -42
51 -39 56 -47 57 -81 0 -35 2 -38 23 -30 36 12 88 6 111 -15 33 -30 99 -72
113 -72 21 0 15 37 -12 67 -17 19 -24 23 -25 13 0 -9 5 -21 12 -28 16 -16 -3
-15 -24 2 -13 9 -14 16 -6 24 17 17 -79 74 -103 62 -33 -18 -38 -11 -22 35 18
54 41 59 63 13 9 -17 26 -38 38 -46 l22 -14 -17 33 c-18 39 -72 99 -87 99 -6
0 -30 20 -53 44 -33 34 -48 43 -65 38 -13 -3 -26 -10 -30 -16 -12 -17 -9 -56
3 -56 7 0 23 -12 36 -26 16 -17 31 -24 43 -21 22 6 25 0 11 -22 -13 -20 -49
-7 -95 34 -21 19 -42 35 -47 35 -10 0 31 83 43 88 19 8 7 43 -18 52 l-26 10
21 18 21 17 -26 50 c-50 100 -121 140 -174 97z m-134 -289 c18 -24 17 -33 -3
-33 -34 1 -213 -55 -210 -65 2 -5 29 -11 60 -13 52 -3 57 -5 57 -26 0 -38 -23
-49 -88 -42 -31 3 -64 6 -72 7 -40 1 -61 12 -70 33 -12 31 -2 66 16 59 8 -3
25 2 39 11 14 9 30 14 35 11 5 -3 20 1 32 9 13 8 52 22 87 30 35 8 69 20 74
25 16 16 28 14 43 -6z m104 -345 c35 -40 37 -54 8 -85 -28 -30 -35 -29 -68 8
-19 22 -29 28 -35 20 -4 -8 3 -24 19 -40 14 -15 26 -34 26 -43 0 -8 10 -22 23
-31 l22 -15 -22 -23 c-22 -22 -23 -22 -42 -5 -11 10 -18 22 -15 27 2 4 -14 34
-36 66 -37 53 -38 58 -20 61 25 4 26 18 3 31 -10 5 -15 13 -11 17 4 4 14 1 22
-5 17 -15 36 -7 36 15 0 10 6 13 19 9 12 -3 21 0 25 10 8 21 12 19 46 -17z"/>
<path d="M2755 2240 c-29 -57 -8 -136 47 -168 24 -14 28 -14 53 2 35 23 48 59
35 104 -23 85 -104 123 -135 62z"/>
<path d="M5566 2216 c-31 -29 -36 -40 -36 -80 0 -77 61 -114 107 -63 39 42 45
63 29 101 -8 19 -12 37 -9 40 10 9 -18 36 -38 36 -9 0 -34 -15 -53 -34z"/>
<path d="M2390 2058 c-11 -18 -20 -39 -20 -45 0 -17 -22 -16 -46 2 -36 27 -54
19 -54 -25 0 -34 -4 -42 -30 -55 -30 -15 -33 -35 -5 -35 18 0 60 60 57 81 -5
27 15 32 38 9 22 -22 22 -44 2 -46 -23 -3 -24 -4 -12 -20 11 -12 11 -18 -1
-29 -15 -16 -65 -22 -90 -11 -10 5 -19 2 -22 -8 -5 -11 6 -16 47 -21 68 -9 93
4 102 51 7 38 31 56 45 33 5 -9 0 -22 -16 -39 -30 -32 -31 -40 -4 -40 30 0 49
56 49 144 0 41 -4 78 -10 81 -5 3 -19 -9 -30 -27z"/>
<path d="M3370 1770 c-11 -11 -37 -53 -56 -93 -34 -68 -36 -79 -41 -194 l-5
-121 30 -39 c17 -21 42 -69 56 -108 18 -52 36 -80 65 -106 37 -34 44 -36 91
-31 51 5 63 -5 36 -27 -42 -35 -166 -11 -166 32 0 18 -2 19 -10 7 -5 -8 -10
-35 -10 -60 0 -32 -9 -60 -30 -95 -31 -52 -37 -93 -20 -126 16 -28 27 -24 84
34 52 52 73 92 55 103 -5 3 -9 14 -9 25 0 13 7 19 24 19 13 0 31 3 40 6 13 5
16 -2 16 -43 0 -61 22 -138 48 -167 23 -26 35 -79 20 -94 -15 -15 -2 -42 21
-42 14 0 23 9 27 28 14 55 123 218 124 185 0 -15 30 -18 30 -3 0 5 -8 13 -17
19 -16 9 -16 11 -1 28 9 10 22 45 29 78 7 33 20 76 29 95 10 19 20 52 24 72 4
22 16 44 29 53 18 13 20 18 10 35 -9 13 -13 78 -13 215 1 119 -4 203 -10 215
-9 16 -21 20 -63 20 l-53 0 3 -62 3 -63 -14 47 c-19 66 -49 111 -98 144 -77
54 -188 30 -225 -47 -53 -111 -58 -133 -58 -244 0 -103 2 -114 32 -178 18 -37
47 -81 65 -97 58 -53 110 -49 187 16 34 28 40 22 15 -14 -41 -59 -167 -82
-225 -42 -18 14 -48 60 -81 128 -52 107 -53 107 -52 202 0 81 4 105 27 160 15
36 39 82 52 102 14 21 25 40 25 43 0 12 -21 4 -40 -15z m237 -31 c62 -23 95
-75 108 -170 l7 -54 -26 32 c-14 17 -26 36 -26 41 0 16 -64 62 -86 62 -11 0
-25 -5 -31 -11 -17 -17 -63 15 -63 43 0 29 38 68 66 68 13 0 35 -5 51 -11z"/>
<path d="M3010 1124 c-7 -16 -18 -56 -26 -89 -19 -77 -34 -116 -51 -137 -23
-27 2 -30 31 -3 15 13 33 22 41 19 19 -8 42 46 57 129 10 57 10 60 -15 85
l-26 26 -11 -30z"/>
<path d="M3207 927 c-9 -15 -17 -33 -17 -41 0 -24 -16 -27 -35 -6 -25 27 -47
25 -77 -7 -47 -51 -61 -133 -34 -198 12 -27 21 -35 40 -35 15 0 25 3 24 8 -5
18 44 92 60 92 34 0 78 130 64 185 l-8 28 -17 -26z"/>
<path d="M3252 742 c-17 -16 -38 -45 -48 -63 -9 -19 -29 -49 -43 -68 l-26 -34
115 7 c63 4 160 14 214 21 114 16 153 36 55 28 -47 -3 -60 -2 -49 6 13 10 13
12 0 21 -8 5 -24 10 -36 10 -23 0 -83 37 -125 77 l-27 25 -30 -30z"/>
</g>
</svg>
