<?xml version="1.0" standalone="no"?>
<!DOCTYPE svg PUBLIC "-//W3C//DTD SVG 20010904//EN"
 "http://www.w3.org/TR/2001/REC-SVG-20010904/DTD/svg10.dtd">
<svg version="1.0" xmlns="http://www.w3.org/2000/svg"
 width="860.000000pt" height="860.000000pt" viewBox="0 0 860.000000 860.000000"
 preserveAspectRatio="xMidYMid meet">
<metadata>
Created by potrace 1.16, written by Peter Selinger 2001-2019
</metadata>
<g transform="translate(0.000000,860.000000) scale(0.100000,-0.100000)"
fill="#000000" stroke="none">
<path d="M4211 7509 c-1 -3 8 -31 18 -61 l19 -56 -65 -66 c-63 -64 -65 -68
-60 -106 3 -22 2 -38 -2 -35 -4 2 -2 -26 5 -63 29 -158 26 -450 -7 -602 -6
-28 -22 -64 -36 -81 -14 -16 -24 -32 -22 -34 10 -9 212 -85 289 -109 329 -100
854 -165 1107 -138 210 23 322 67 360 142 57 114 76 466 35 664 -27 129 -58
189 -143 281 -72 76 -89 88 -89 59 0 -8 -20 -24 -47 -36 l-46 -20 -191 21
c-105 11 -378 39 -606 62 -228 22 -426 46 -439 52 -27 13 -32 21 -60 87 -11
25 -20 42 -20 39z m335 -295 c150 -51 244 -174 248 -326 l1 -68 45 -1 c25 0
113 -8 195 -17 141 -17 150 -19 153 -40 3 -18 -1 -22 -22 -22 -30 0 -318 28
-358 35 -23 4 -29 -2 -48 -38 -28 -54 -46 -74 -95 -105 -33 -21 -52 -26 -111
-26 -62 -1 -80 3 -140 34 -82 42 -134 108 -166 213 -17 56 -19 79 -12 135 5
37 8 81 9 99 0 44 35 86 96 117 63 31 131 34 205 10z m1168 -83 c-2 -2 1 -10
7 -18 6 -7 8 -13 4 -13 -4 0 -2 -7 5 -15 7 -8 16 -13 20 -10 8 5 22 -34 25
-70 1 -11 5 -36 9 -56 5 -24 4 -39 -3 -43 -6 -4 -11 -12 -11 -17 0 -6 4 -8 9
-5 5 3 14 -1 21 -9 10 -12 10 -15 -3 -15 -16 0 -33 -52 -23 -69 4 -5 2 -12 -4
-16 -5 -3 -10 -17 -10 -30 0 -39 -45 -127 -81 -161 -39 -36 -122 -60 -172 -49
-42 8 -110 59 -156 114 -20 25 -30 41 -23 37 15 -9 15 -7 -3 44 -8 23 -15 77
-15 119 0 95 -16 128 -26 53 -9 -69 -29 -69 -21 1 13 110 48 179 107 210 29
15 49 17 125 12 56 -3 104 -13 128 -24 20 -10 37 -15 37 -10 0 5 -4 9 -8 9 -4
0 -8 8 -8 19 0 15 7 18 37 17 21 0 36 -3 33 -5z"/>
<path d="M4449 7121 c-50 -16 -80 -44 -109 -105 -36 -73 -39 -141 -10 -201 44
-93 103 -130 190 -122 74 6 114 28 148 79 24 37 27 51 27 125 0 86 3 87 30 8
5 -13 9 -15 12 -8 6 15 -25 104 -41 118 -6 6 -19 22 -28 36 -9 15 -32 36 -50
47 -37 23 -130 35 -169 23z m106 -101 c20 -12 39 -37 49 -60 18 -44 22 -130 6
-130 -5 0 -12 -11 -16 -24 -6 -26 -56 -56 -93 -56 -61 0 -135 62 -146 123 -9
48 20 113 64 143 44 29 92 31 136 4z"/>
<path d="M5471 7023 c-63 -31 -119 -155 -107 -235 14 -91 68 -150 151 -163 83
-13 154 74 156 190 1 71 17 48 18 -25 1 -57 -27 -118 -68 -153 -27 -23 -29
-27 -13 -27 33 0 88 71 101 129 15 69 14 79 -8 144 -45 131 -136 186 -230 140z
m72 -104 c55 -42 61 -158 11 -210 -41 -43 -92 -41 -133 6 -37 42 -45 71 -38
131 7 63 38 94 92 94 28 0 52 -7 68 -21z"/>
<path d="M2702 7428 c-19 -19 -15 -51 6 -46 15 4 17 -1 13 -39 -2 -29 1 -43 9
-43 9 0 10 -3 1 -13 -8 -10 -7 -19 4 -33 8 -10 15 -15 15 -10 0 18 40 -43 40
-62 0 -20 81 -102 101 -102 7 0 21 8 32 17 18 17 19 17 33 -2 10 -13 14 -15
14 -4 0 8 -16 24 -36 37 -19 12 -32 27 -29 32 3 5 -4 14 -15 20 -12 6 -25 21
-31 33 -5 12 -23 44 -39 70 -17 26 -32 63 -34 82 -8 62 -15 75 -45 75 -15 0
-32 -5 -39 -12z"/>
<path d="M3491 7391 l24 -20 -30 2 c-25 2 -31 -2 -33 -22 -2 -13 -12 -26 -23
-28 -22 -6 -24 -21 -5 -45 7 -10 20 -15 32 -12 26 7 70 -28 93 -74 20 -39 46
-184 56 -317 6 -73 -6 -229 -18 -242 -3 -3 -28 -2 -56 2 l-50 7 6 113 c5 89 2
132 -13 206 l-19 94 -6 -185 c-6 -179 -15 -235 -42 -252 -20 -13 -27 -9 -27
17 0 25 -14 33 -25 15 -17 -28 -25 13 -25 128 0 197 -19 286 -79 380 -49 75
-80 98 -112 82 -17 -10 -19 -14 -8 -21 8 -5 24 -9 36 -9 30 0 67 -48 52 -66
-9 -11 -8 -14 4 -14 20 0 41 -58 27 -75 -8 -9 -5 -14 11 -18 19 -5 20 -10 14
-49 -8 -45 -18 -58 -47 -58 -9 0 -20 -4 -23 -10 -3 -6 5 -10 19 -10 55 0 74
-23 29 -35 -19 -5 -23 -9 -13 -13 40 -13 40 -24 -1 -63 -39 -37 -40 -39 -16
-39 14 0 32 -3 41 -6 23 -9 20 -41 -4 -49 -18 -6 -25 -17 -21 -38 1 -5 -3 -6
-8 -3 -13 8 -42 -4 -35 -15 3 -5 15 -9 27 -10 14 0 17 -3 7 -6 -8 -3 -23 -14
-34 -24 -15 -14 -17 -21 -7 -32 9 -12 7 -16 -11 -21 -13 -4 -18 -9 -12 -12 14
-6 6 -50 -12 -65 -7 -6 -31 -13 -51 -16 -52 -7 -63 -20 -27 -33 41 -16 136
-31 155 -25 11 4 28 -7 48 -32 31 -37 33 -38 98 -38 l67 0 14 -40 c43 -124 50
-130 177 -165 44 -12 113 -33 152 -46 40 -13 130 -38 200 -55 110 -26 202 -59
351 -126 19 -8 36 -12 39 -10 2 3 -5 8 -16 12 -25 8 -26 18 -6 49 14 21 22 23
58 19 65 -7 87 -13 87 -23 0 -5 -6 -7 -14 -4 -12 5 -65 -53 -55 -59 2 -2 58
-28 124 -59 109 -52 129 -58 220 -67 123 -12 375 -22 375 -15 0 14 -48 74
-108 136 l-65 67 36 5 c21 3 54 9 75 12 119 18 472 107 472 119 0 3 -30 2 -67
-1 -118 -10 -667 60 -953 122 -135 30 -355 102 -454 149 -65 31 -73 32 -102
20 -69 -29 -105 -28 -174 6 -36 18 -77 31 -92 30 -28 -1 -37 12 -18 24 5 3 15
15 20 25 8 16 8 18 -5 14 -20 -8 -19 11 5 81 39 114 36 396 -6 559 -32 122
-103 235 -173 274 -51 29 -83 30 -50 3z m100 -79 c27 -31 74 -120 67 -128 -2
-1 -20 -5 -40 -9 -26 -5 -38 -4 -38 4 0 23 -54 92 -76 97 l-23 6 20 38 c24 46
44 44 90 -8z"/>
<path d="M6158 7251 c-16 -15 -28 -35 -28 -44 0 -9 -9 -33 -21 -53 -17 -31
-19 -42 -9 -63 11 -25 11 -25 -8 -7 -20 17 -21 17 -34 -3 -7 -12 -16 -21 -20
-21 -4 0 -19 -11 -34 -25 -14 -13 -31 -22 -37 -18 -6 3 -7 1 -3 -5 4 -7 3 -12
-3 -12 -6 0 -8 -7 -5 -15 5 -11 18 -14 49 -11 72 6 185 109 189 172 0 13 7 26
13 28 21 8 6 107 -15 106 -4 0 -19 -13 -34 -29z"/>
<path d="M2929 6983 c-13 -38 -15 -209 -3 -266 8 -40 22 -22 30 38 4 28 15 64
26 82 20 34 18 76 -8 140 -20 46 -31 48 -45 6z"/>
<path d="M3086 6089 c-25 -28 -31 -30 -69 -24 -23 4 -46 8 -52 9 -6 0 -11 -32
-12 -79 -1 -95 -26 -292 -54 -428 -20 -99 -46 -177 -92 -278 -25 -56 -25 -56
-6 -85 10 -16 19 -32 19 -36 0 -16 -40 -7 -52 11 -14 24 -38 10 -38 -21 0 -17
48 -93 98 -157 14 -18 18 -34 15 -61 -6 -42 11 -81 52 -123 29 -28 42 -32 63
-19 10 7 11 22 4 65 l-9 56 62 -6 c39 -3 70 -1 83 6 18 10 22 9 22 -4 0 -8 6
-15 13 -15 6 0 -3 -12 -20 -26 -28 -21 -31 -29 -23 -45 6 -11 8 -25 4 -31 -4
-6 1 -17 10 -24 10 -7 26 -27 35 -46 16 -30 63 -59 75 -47 8 7 7 67 -3 154 -7
70 -6 87 12 130 11 28 21 60 22 73 2 12 13 38 24 58 21 35 31 105 11 74 -16
-24 -11 -6 9 41 36 80 55 229 48 374 -7 148 -29 249 -80 357 -30 65 -117 178
-136 178 -4 0 -20 -14 -35 -31z"/>
<path d="M6067 6109 c-24 -14 -57 -82 -57 -119 0 -27 3 -30 21 -25 15 5 29 -1
49 -20 42 -40 54 -76 41 -118 -11 -31 -17 -36 -56 -42 -55 -8 -63 -19 -31 -40
18 -12 36 -15 69 -10 36 6 45 4 50 -10 4 -9 3 -14 -3 -10 -6 3 -10 1 -10 -4 0
-6 -15 -11 -34 -11 -19 0 -36 -3 -39 -7 -4 -10 29 -74 35 -68 3 3 13 -5 24
-17 16 -19 16 -20 1 -9 -9 8 -20 11 -23 8 -4 -3 1 -43 10 -89 9 -46 18 -105
21 -133 17 -184 17 -186 31 -181 19 7 18 -1 -5 -38 -11 -17 -22 -47 -26 -67
-8 -41 6 -50 66 -43 23 3 30 1 23 -6 -6 -6 -34 -13 -62 -17 -38 -4 -52 -10
-53 -22 -1 -9 -3 -34 -4 -56 -6 -70 14 -187 42 -239 l26 -49 -27 7 c-37 9 -33
-1 21 -52 43 -42 47 -49 44 -88 -1 -23 3 -52 9 -63 9 -17 8 -23 -6 -28 -10 -4
-26 -15 -36 -25 -10 -10 -30 -18 -45 -18 -37 0 -48 -10 -48 -40 0 -20 -6 -26
-27 -28 l-28 -3 0 -102 c0 -102 12 -179 27 -184 33 -12 33 -21 1 -54 -32 -33
-32 -34 -10 -37 18 -3 22 -10 22 -40 0 -21 -4 -53 -10 -71 -5 -19 -8 -36 -6
-39 5 -5 168 25 231 43 28 8 91 22 140 32 50 10 91 21 93 24 1 3 14 4 29 1 24
-4 25 -3 20 21 -9 33 16 43 36 14 14 -21 16 -21 77 -9 120 25 171 58 111 72
-12 3 -32 22 -44 45 -31 56 -98 119 -138 131 l-34 10 -6 102 c-8 128 -30 191
-69 198 -30 6 -40 35 -40 117 0 23 -4 36 -10 32 -5 -3 -10 -36 -10 -72 0 -37
-2 -64 -5 -61 -5 4 -11 47 -14 91 0 9 -8 17 -17 17 -14 0 -14 3 -4 15 7 8 18
15 25 15 6 0 18 12 25 28 11 23 13 24 19 9 6 -15 10 -14 38 15 28 29 32 42 38
111 4 42 11 77 15 77 14 0 -7 58 -40 111 -41 67 -48 111 -53 339 -3 107 -10
206 -15 220 -6 14 -21 59 -33 100 -24 81 -41 121 -62 142 -7 7 -31 53 -52 103
-53 120 -89 171 -139 200 -46 27 -71 30 -99 14z"/>
<path d="M5455 5930 c-67 -10 -142 -40 -198 -78 -43 -30 -45 -34 -37 -63 5
-18 11 -32 12 -33 63 -33 100 -36 168 -15 58 18 132 58 145 79 14 23 87 51
116 45 21 -5 39 0 65 15 19 13 32 26 27 30 -25 24 -197 35 -298 20z"/>
<path d="M4690 5191 l0 -439 73 -6 c39 -3 173 -10 297 -16 124 -6 271 -13 328
-16 l102 -6 0 431 c0 336 -3 433 -12 436 -15 4 -708 55 -755 55 l-33 0 0 -439z
m710 167 c-2 -329 -13 -628 -22 -628 -4 0 -8 85 -8 188 0 289 12 642 22 642 5
0 8 -90 8 -202z m-45 4 c-3 -4 -9 -1 -13 5 -4 6 -106 18 -257 29 -227 16 -295
28 -249 44 14 5 292 -11 431 -25 l71 -7 8 54 9 53 3 -74 c2 -40 0 -76 -3 -79z"/>
<path d="M3648 5486 c-84 -23 -155 -98 -173 -183 -6 -32 -6 -32 55 25 34 31
82 69 108 85 43 25 55 27 143 26 96 -1 97 -2 149 -41 l52 -39 -27 35 c-15 20
-31 33 -36 31 -4 -3 -13 3 -19 14 -7 13 -16 18 -27 14 -10 -4 -14 -2 -10 4 8
12 -89 43 -134 42 -19 0 -55 -6 -81 -13z"/>
<path d="M1763 5419 c9 -5 23 -25 31 -44 12 -27 21 -34 55 -40 22 -4 50 -3 63
1 20 6 21 5 9 -10 -19 -23 -7 -31 50 -31 27 0 49 -1 49 -2 0 -1 -23 -54 -50
-118 -55 -128 -57 -152 -18 -216 19 -32 21 -32 34 -14 13 18 14 17 14 -7 0
-15 6 -33 14 -41 9 -9 11 -19 5 -28 -5 -8 -14 -31 -19 -52 -6 -21 -15 -35 -19
-32 -5 3 -24 -1 -42 -9 -31 -13 -31 -14 -10 -21 16 -5 20 -12 16 -23 -4 -10
-22 -64 -41 -121 -44 -130 -48 -137 -79 -145 -14 -4 -25 -11 -25 -17 0 -6 -4
-7 -10 -4 -5 3 -10 24 -10 46 0 24 -4 38 -10 34 -5 -3 -10 -16 -10 -29 0 -14
-9 -27 -23 -33 -29 -13 -33 -53 -6 -60 25 -7 24 -19 -1 -26 -29 -7 -25 -25 8
-33 15 -4 37 -14 50 -22 13 -8 148 -57 300 -108 l277 -93 6 30 c10 44 14 44
29 0 8 -25 20 -41 33 -45 12 -3 22 -4 24 -3 6 7 -56 125 -81 154 l-28 33 21
92 c11 51 23 121 26 155 6 53 4 64 -10 69 -10 4 -21 -1 -30 -12 -10 -13 -14
-15 -15 -5 0 8 -7 19 -15 25 -21 15 -27 93 -10 142 8 23 11 50 9 61 -4 15 3
25 30 41 20 12 39 28 42 36 3 8 11 13 17 11 24 -8 46 23 82 113 21 51 36 94
34 96 -2 2 -62 29 -134 59 -71 31 -215 93 -320 138 -202 86 -288 119 -314 119
-14 -1 -13 -2 2 -11z"/>
<path d="M3652 5383 c-76 -44 -112 -129 -92 -214 16 -64 42 -96 104 -125 71
-33 130 -32 188 5 140 89 106 288 -59 347 -54 19 -92 16 -141 -13z"/>
<path d="M5935 5360 c-17 -17 -23 -29 -14 -25 10 4 22 -6 37 -34 26 -45 28
-58 8 -41 -8 6 -25 10 -38 8 -46 -6 -62 -131 -28 -220 20 -52 20 -53 1 -28
-11 14 -25 46 -30 72 -10 43 -9 73 4 173 4 30 4 30 -12 -5 -17 -38 -31 -204
-15 -182 6 9 14 0 26 -33 18 -46 47 -72 68 -59 7 4 8 3 4 -4 -4 -7 -3 -12 3
-12 5 0 13 5 16 10 4 6 10 8 15 5 5 -3 13 3 19 12 8 14 11 15 11 3 0 -11 6 -9
19 8 11 12 24 22 29 22 5 0 9 19 9 43 0 23 5 52 11 64 14 26 16 70 3 78 -6 3
-8 -8 -4 -29 3 -18 1 -36 -5 -40 -12 -7 -18 8 -31 77 -6 37 -6 47 5 47 27 0
23 20 -11 55 -19 20 -33 42 -32 48 5 25 -40 17 -68 -13z"/>
<path d="M5476 4566 c3 -8 15 -17 27 -20 55 -14 137 -112 137 -164 0 -16 -53
-189 -76 -247 -12 -30 109 78 152 136 50 68 54 111 16 170 -16 25 -57 67 -90
93 -55 42 -65 46 -116 46 -44 0 -54 -3 -50 -14z"/>
<path d="M4135 4539 c-147 -49 -316 -147 -450 -260 -33 -28 -82 -66 -110 -84
-70 -48 -99 -94 -90 -142 4 -22 17 -48 33 -61 37 -32 141 -81 187 -89 l40 -6
-30 34 c-27 29 -27 31 -5 16 43 -30 74 -40 125 -43 28 -1 66 -7 85 -13 19 -6
45 -11 57 -11 23 0 134 -62 154 -86 10 -12 9 -13 -5 -8 -10 4 -16 1 -16 -9 0
-9 -13 -18 -32 -22 -42 -9 -80 -33 -73 -45 4 -6 -6 -15 -22 -20 -15 -6 -37
-15 -48 -20 -17 -8 -17 -9 5 -4 21 4 25 1 25 -20 0 -20 -8 -28 -40 -41 -55
-20 -58 -20 -53 14 4 26 2 29 -14 20 -10 -5 -25 -25 -33 -44 -17 -41 -21 -42
-45 -13 -15 19 -34 24 -116 33 -55 5 -163 9 -241 7 l-142 -4 24 -36 c13 -19
21 -40 18 -45 -3 -6 -1 -7 4 -4 30 19 76 -183 75 -329 0 -133 -8 -159 -65
-222 -28 -31 -48 -48 -44 -38 23 59 40 176 25 173 -21 -4 -58 75 -58 124 0
125 -57 316 -81 277 -6 -8 -4 -17 6 -23 12 -8 10 -13 -13 -33 -25 -21 -25 -23
-4 -17 27 8 27 4 2 -25 l-20 -23 -21 22 c-25 27 -66 25 -61 -3 3 -13 -1 -17
-11 -13 -15 6 -27 -19 -27 -58 0 -13 3 -16 8 -8 5 8 17 10 37 5 34 -10 43 -31
44 -114 1 -47 -3 -62 -24 -86 -25 -30 -33 -66 -16 -77 5 -3 12 -1 16 5 11 17
25 0 25 -30 0 -22 8 -32 38 -47 43 -23 52 -55 27 -103 l-16 -32 38 2 c21 1 42
2 48 1 11 -1 -93 -71 -106 -71 -14 0 -11 -58 4 -63 9 -3 9 -8 -2 -21 -12 -14
-11 -19 7 -39 16 -17 28 -59 48 -162 14 -77 33 -165 43 -195 14 -49 21 -57 61
-77 70 -35 187 -49 284 -34 44 7 97 21 118 32 49 25 50 19 -32 295 -25 84 -43
98 -128 99 l-56 0 -1 86 c0 86 0 87 23 78 15 -6 34 -4 57 6 38 15 46 39 18 50
-17 7 -16 8 2 15 11 5 37 9 57 9 20 1 48 5 61 10 38 15 96 70 117 111 18 36
78 81 110 84 8 1 25 7 38 14 26 15 29 2 12 -44 -9 -21 -7 -29 7 -40 20 -15 73
-9 85 9 14 22 18 -1 9 -44 -12 -52 -2 -64 61 -74 28 -5 38 -11 34 -21 -7 -18
26 -18 79 1 32 12 83 14 250 11 116 -2 190 -2 165 0 -25 2 -97 9 -160 14 -125
11 -253 41 -280 65 -9 8 -22 15 -28 15 -6 0 -15 6 -19 13 -4 6 -15 12 -23 12
-10 0 -14 8 -12 24 3 27 -15 54 -30 45 -6 -4 -8 1 -5 12 25 84 32 133 51 334
1 14 6 41 10 60 3 19 8 49 10 65 4 42 35 104 57 116 11 6 56 7 107 4 48 -3
139 -7 202 -10 98 -3 342 -21 537 -40 43 -4 51 -3 47 9 -3 8 -27 22 -52 32
-26 9 -56 20 -67 24 -11 5 -39 12 -62 15 -50 8 -57 15 -48 55 l6 29 170 -3
c157 -2 212 4 156 17 -12 3 -121 13 -242 21 -291 21 -443 34 -538 48 -106 14
-141 41 -190 144 -21 43 -43 88 -49 99 -51 92 -167 329 -170 347 -3 26 44 56
147 95 90 33 33 27 -70 -8z"/>
<path d="M2080 3960 c-11 -11 -20 -26 -20 -32 0 -10 -2 -10 -9 0 -15 25 -21
-29 -7 -63 28 -66 109 -99 164 -65 27 17 32 26 32 57 0 39 -23 83 -56 108 -28
21 -80 19 -104 -5z"/>
<path d="M6520 3742 c-55 -17 -77 -85 -42 -128 39 -49 96 -57 138 -21 24 21
26 28 20 61 -10 54 -73 102 -116 88z"/>
<path d="M5900 3730 c8 -5 11 -12 7 -16 -4 -4 -3 -12 1 -18 5 -6 15 -31 22
-56 7 -25 17 -50 21 -55 11 -16 -5 -36 -29 -38 -12 -1 -22 -7 -22 -14 0 -9 8
-11 25 -7 14 3 32 3 40 0 18 -7 10 -27 -25 -63 l-21 -23 35 0 c58 0 118 -89
115 -170 -1 -19 -3 -16 -10 12 -13 57 -58 136 -81 144 -31 9 -32 -2 -4 -33 19
-20 26 -39 26 -66 0 -21 5 -48 11 -59 8 -15 8 -26 -1 -44 -11 -19 -10 -26 0
-39 12 -14 11 -18 -1 -26 -11 -7 -9 -9 9 -9 20 0 21 -3 12 -20 -9 -17 -8 -20
11 -20 16 0 20 -5 16 -20 -8 -30 9 -33 45 -8 18 13 35 24 37 25 2 1 5 44 8 95
l4 93 -19 -40 c-10 -22 -25 -45 -33 -52 -12 -10 -13 -1 -11 58 3 61 0 78 -24
125 -15 29 -35 61 -46 70 -19 18 -25 64 -8 64 6 0 15 -10 20 -22 5 -13 23 -39
41 -58 l31 -35 -21 38 c-35 64 4 20 55 -62 2 -1 7 0 13 3 7 5 7 14 -2 29 -19
35 -99 117 -109 111 -4 -3 -8 2 -8 11 0 16 -2 20 -45 68 -23 26 -29 40 -26 60
0 4 -3 7 -9 7 -5 0 -10 8 -10 18 -1 23 -24 52 -41 52 -11 0 -11 -2 1 -10z"/>
<path d="M5226 3543 c-2 -2 3 -25 10 -50 19 -63 18 -127 -6 -246 -13 -67 -34
-130 -60 -182 -38 -78 -40 -81 -77 -83 -20 -2 -44 -9 -53 -16 -8 -7 -20 -11
-27 -9 -20 7 -24 -32 -7 -66 19 -38 46 -56 98 -66 l38 -6 -21 -22 c-13 -15
-18 -30 -15 -45 5 -16 1 -24 -12 -28 -24 -9 -54 -34 -54 -47 0 -5 11 -6 24 -3
20 5 25 1 29 -22 3 -15 0 -30 -5 -33 -6 -4 4 -10 21 -14 44 -9 126 -84 212
-191 68 -85 147 -170 153 -163 1 2 7 20 13 39 l11 35 1 -41 c1 -50 9 -57 85
-79 89 -26 252 -15 294 20 5 4 -69 127 -112 185 -52 72 -170 188 -202 200 -14
6 -43 10 -66 10 -32 0 -41 -4 -45 -20 -5 -19 -48 -39 -59 -27 -3 3 -8 40 -11
82 l-6 78 54 -5 c134 -13 246 72 300 230 31 91 29 95 -41 90 -56 -4 -79 5 -45
18 8 4 15 15 15 25 0 16 8 19 50 19 44 0 50 2 50 21 0 19 -5 20 -65 17 -64 -3
-65 -3 -65 22 0 44 -29 142 -65 220 -19 41 -28 66 -19 55 28 -34 84 -158 84
-185 0 -46 11 -52 68 -39 60 12 62 18 33 101 -48 141 -141 218 -258 215 -18 0
-33 -4 -33 -9 0 -12 -88 -9 -152 6 -32 7 -59 11 -62 9z"/>
<path d="M1812 3230 c-172 -22 -283 -71 -379 -168 -61 -62 -74 -87 -78 -148
-3 -34 2 -47 25 -73 32 -34 32 -34 45 44 9 53 42 108 107 176 46 50 65 61 143
89 186 67 467 49 647 -41 83 -42 116 -81 145 -172 13 -42 28 -77 33 -77 12 0
53 68 53 88 0 41 -5 52 -43 95 -116 132 -441 219 -698 187z"/>
<path d="M6795 3140 c-151 -22 -383 -114 -478 -188 -80 -63 -127 -129 -127
-178 0 -44 6 -56 36 -72 29 -15 46 -1 82 71 17 31 35 64 42 72 6 8 13 21 14
30 7 50 146 141 288 188 87 29 103 31 243 31 l151 1 49 -36 c29 -20 60 -54 74
-80 51 -95 71 -121 86 -109 7 6 18 24 23 39 19 54 -45 148 -129 191 -82 42
-228 59 -354 40z"/>
<path d="M1865 2963 c-157 -35 -303 -122 -346 -206 -44 -86 -19 -231 58 -327
7 -8 20 -26 31 -39 18 -23 19 -23 50 -7 21 11 32 24 33 39 0 18 3 16 15 -12
14 -31 14 -38 -5 -80 -13 -31 -20 -75 -23 -132 -2 -54 -8 -91 -16 -98 -10 -10
-12 -7 -7 16 5 25 4 26 -4 5 -12 -26 3 -69 31 -90 10 -7 36 -44 58 -81 40 -68
41 -68 24 -98 -15 -26 -16 -32 -3 -47 33 -40 60 -66 69 -66 4 0 26 -15 47 -33
22 -17 61 -43 89 -56 27 -13 61 -30 76 -38 33 -16 82 -17 95 0 20 24 23 63 7
86 -9 12 -14 24 -12 26 12 12 90 5 128 -13 25 -11 62 -23 83 -26 36 -7 38 -6
53 30 20 48 7 78 -43 101 -21 9 -49 27 -63 40 -23 20 -26 30 -24 85 2 59 2 62
-12 38 -8 -14 -13 -18 -12 -10 1 8 -4 26 -11 39 -10 19 -10 25 -1 31 9 6 7 11
-9 19 -13 7 -21 21 -21 36 0 14 -4 25 -9 25 -31 0 -107 -47 -169 -104 -101
-93 -110 -91 -185 39 -43 75 -56 106 -52 125 14 57 158 170 216 170 15 0 39
-10 54 -22 l28 -22 -6 45 c-4 29 -2 50 5 57 17 17 25 15 30 -6 3 -10 11 -19
19 -20 8 -1 31 -5 51 -8 37 -6 39 -5 58 37 26 59 26 129 -1 163 -42 54 15 80
63 29 39 -43 45 -62 42 -148 -2 -92 13 -140 50 -157 19 -8 26 -19 26 -40 0
-39 65 -111 93 -102 18 6 19 3 14 -22 -3 -16 -9 -56 -12 -89 -6 -49 -4 -63 9
-74 10 -9 16 -29 16 -56 0 -46 10 -60 51 -70 38 -9 59 16 59 70 0 24 -4 47
-10 50 -16 10 -12 19 13 30 21 9 22 16 24 119 1 61 -2 104 -7 97 -11 -18 -31
-4 -23 16 5 13 2 15 -20 9 -15 -3 -27 -4 -27 -1 0 17 22 45 35 45 25 0 17 16
-25 56 -22 21 -40 44 -40 51 0 8 -7 16 -16 20 -12 4 -13 8 -3 14 10 6 6 17
-14 48 -29 44 -63 59 -95 42 -36 -19 -46 -12 -22 14 l23 25 -24 0 c-21 1 -22
2 -7 11 18 10 48 95 48 133 0 157 -210 278 -474 275 -56 -1 -110 -3 -121 -6z
m199 -249 c10 -4 17 -26 22 -66 4 -38 10 -55 15 -46 13 20 11 -57 -2 -86 -8
-17 -50 -44 -141 -90 -71 -36 -137 -66 -147 -66 -9 0 -22 -5 -28 -11 -12 -12
-59 95 -69 160 -6 38 -4 43 36 81 55 53 119 97 167 114 40 14 121 20 147 10z"/>
<path d="M6810 2916 c-133 -28 -242 -87 -335 -181 -80 -80 -96 -179 -38 -241
24 -26 24 -28 10 -66 -14 -35 -14 -40 -1 -45 12 -4 11 -8 -7 -17 -12 -6 -34
-27 -48 -45 -14 -19 -21 -32 -16 -29 6 3 21 2 34 -3 19 -8 21 -12 11 -24 -6
-8 -9 -19 -5 -25 4 -6 -1 -18 -11 -25 -31 -23 -35 -17 -14 20 l20 35 -24 0
c-30 0 -78 -55 -74 -83 6 -38 34 -44 84 -18 25 14 48 31 51 38 3 7 17 13 32
13 15 0 31 3 35 7 3 4 17 8 29 10 33 5 73 54 97 122 13 33 26 59 30 56 3 -2 0
-39 -7 -82 -8 -43 -12 -93 -9 -111 7 -48 -8 -82 -38 -82 -13 0 -29 -6 -35 -14
-7 -8 -26 -18 -42 -21 -24 -6 -29 -10 -23 -27 6 -19 3 -20 -29 -15 -44 7 -69
-16 -70 -68 -1 -44 15 -57 63 -50 21 3 45 -1 60 -10 18 -10 20 -14 8 -15 -23
0 -48 -27 -48 -51 0 -10 9 -28 20 -39 16 -16 30 -19 87 -15 37 2 91 10 118 19
28 8 69 20 93 26 32 8 41 14 34 23 -14 16 20 57 47 57 29 0 26 -25 -6 -49
l-28 -20 35 9 c19 6 36 10 36 10 1 0 12 17 24 37 15 26 20 46 16 67 -4 17 -8
47 -10 66 -6 68 -71 150 -117 150 -20 0 -20 1 -2 30 9 17 37 49 60 72 l43 42
32 -30 c25 -22 28 -23 11 -4 -11 14 -21 37 -21 53 0 15 -11 45 -26 67 -14 22
-24 40 -21 40 15 0 45 -40 70 -93 17 -37 44 -72 76 -100 49 -41 50 -43 44 -86
-6 -41 -5 -44 10 -31 46 38 38 111 -20 180 -19 22 -53 74 -75 115 -23 41 -46
75 -52 75 -5 0 -8 -7 -4 -15 8 -22 -21 -19 -100 10 -109 41 -136 89 -89 161
18 28 38 32 102 21 97 -16 134 -88 76 -149 -15 -15 -22 -28 -15 -28 6 0 17 10
23 22 8 14 14 18 17 10 2 -6 8 -10 13 -6 5 3 7 28 3 57 l-7 51 60 -48 c38 -29
71 -66 88 -98 l28 -51 15 29 c40 75 52 192 30 268 -16 52 -84 121 -134 136
-61 18 -202 21 -274 6z"/>
<path d="M5745 1833 c-293 -8 -428 -22 -535 -53 -116 -33 -195 -38 -258 -16
-22 8 -43 12 -46 9 -3 -3 -12 0 -21 7 -8 7 -15 9 -15 4 0 -5 -7 0 -15 10 -19
25 -19 15 -1 -29 12 -28 21 -35 53 -40 156 -24 244 -55 273 -95 11 -16 30 -66
42 -112 24 -98 21 -181 -11 -252 -22 -51 -46 -58 -46 -14 -1 28 -21 58 -39 58
-24 0 -107 50 -132 79 -14 17 -31 31 -37 31 -14 0 -62 66 -76 102 -12 32 -85
72 -109 59 -22 -11 -42 -3 -42 17 0 39 -19 -7 -22 -53 l-3 -50 -28 89 c-16 48
-30 86 -32 84 -2 -2 3 -30 11 -63 18 -77 17 -85 -5 -58 -18 22 -18 22 -13 -22
4 -41 3 -45 -18 -45 -13 0 -24 -8 -27 -20 -6 -22 -18 -26 -28 -10 -3 6 -10 10
-14 10 -14 0 -34 -118 -28 -165 7 -49 -6 -62 -18 -17 -8 27 -8 27 -20 -13 -7
-22 -10 -43 -8 -47 7 -13 58 -9 79 7 38 29 45 20 38 -55 -6 -62 -5 -70 10 -70
10 0 14 -5 11 -10 -4 -6 -16 -8 -28 -4 -19 6 -20 5 -9 -9 18 -21 6 -43 -14
-26 -11 9 -11 15 1 40 19 35 19 40 1 65 -14 18 -15 18 -24 -6 -5 -14 -6 -36
-2 -50 11 -40 -1 -57 -16 -21 -7 17 -20 31 -30 31 -15 0 -15 -2 -1 -23 26 -40
27 -136 1 -161 -14 -15 -14 -17 2 -23 10 -4 22 0 29 11 11 14 15 15 26 3 8 -7
19 -12 25 -10 7 2 17 -10 22 -27 8 -21 8 -30 0 -30 -6 0 -8 -10 -4 -24 8 -33
-9 -76 -31 -76 -17 -1 -16 -2 1 -15 11 -8 39 -15 63 -15 36 0 47 5 75 36 52
57 80 84 89 84 8 0 12 -21 24 -112 6 -45 8 -48 43 -57 20 -6 89 -15 152 -22
118 -12 178 -28 108 -29 -21 0 -38 -4 -38 -8 0 -14 90 -30 231 -42 74 -6 175
-16 224 -23 101 -14 880 -14 1100 0 122 8 130 9 127 28 -2 11 -12 31 -23 45
-11 14 -36 47 -56 74 l-37 49 -123 -7 -123 -6 -63 -51 c-34 -27 -102 -70 -151
-95 -82 -41 -94 -44 -166 -44 -57 0 -81 4 -90 15 -7 8 -21 15 -31 15 -10 0
-21 5 -24 10 -3 6 -1 10 5 10 6 0 -5 17 -24 37 -32 35 -41 38 -93 40 -32 1
-61 2 -64 3 -3 0 -6 8 -7 18 -5 45 0 69 22 102 13 20 31 65 40 99 21 81 20
105 -2 66 -52 -93 -103 -125 -177 -111 -44 9 -105 62 -138 121 -31 55 -28 107
8 170 43 72 103 92 183 60 l37 -15 -23 19 c-21 19 -14 40 9 26 5 -4 18 0 27 8
36 32 107 40 321 35 l208 -5 21 41 c28 55 31 68 20 90 -7 13 -6 21 3 27 11 7
8 14 -13 30 -16 11 -28 29 -28 40 0 11 -6 30 -14 42 -8 12 -24 52 -36 90 -13
37 -24 66 -26 64 -8 -8 16 -110 36 -155 20 -45 20 -46 2 -27 -36 37 -73 117
-80 174 -7 53 -9 56 -35 56 -16 1 -32 6 -35 13 -6 8 -63 9 -236 2 -125 -6
-232 -13 -237 -16 -5 -3 10 -28 35 -55 96 -107 78 -247 -41 -320 -29 -18 -52
-24 -95 -23 -85 1 -141 42 -190 138 -39 78 -37 152 6 209 64 83 132 96 513
100 174 1 243 5 243 13 0 7 12 15 28 20 26 7 26 7 -13 15 -39 8 -81 8 -290 2z"/>
<path d="M2944 1800 c-3 -2 -21 -5 -41 -7 -50 -3 -62 -9 -72 -36 -10 -26 -46
-38 -77 -26 -10 4 -37 8 -59 8 -35 0 -37 -1 -20 -11 29 -17 43 -39 38 -62 -2
-12 3 -6 10 13 17 44 30 48 58 20 17 -17 25 -20 38 -11 66 47 79 50 291 53
359 5 804 2 842 -6 31 -6 39 -4 44 10 10 25 -7 35 -82 46 -67 10 -961 19 -970
9z"/>
<path d="M3215 1703 c-22 -2 -51 -6 -64 -9 l-24 -5 31 -32 c40 -41 52 -75 52
-143 0 -65 -22 -114 -77 -166 -100 -97 -232 -72 -291 54 -12 26 -22 62 -23 80
-1 67 -29 96 -40 43 -16 -73 -12 -113 36 -342 5 -25 4 -24 -10 6 -31 68 -46
166 -43 275 3 96 1 106 -14 106 -14 0 -18 -10 -20 -47 -4 -126 -4 -126 -47
-164 l-41 -37 0 -76 c0 -69 -2 -76 -17 -68 -13 8 -16 23 -14 81 3 81 -13 96
-23 21 -4 -27 -12 -52 -18 -56 -7 -4 -5 -10 6 -16 38 -22 59 -116 22 -102 -10
4 -12 -2 -9 -20 4 -17 12 -26 24 -26 11 0 16 -5 14 -12 -7 -17 -75 -22 -75 -6
0 30 -13 -8 -25 -74 l-13 -73 -1 60 c-1 33 -4 70 -7 82 -11 39 -24 14 -24 -45
0 -31 -4 -72 -9 -90 -9 -29 -7 -32 11 -32 16 0 18 -3 10 -13 -8 -10 -5 -13 16
-12 21 0 27 -6 33 -32 4 -20 2 -34 -5 -36 -8 -3 -7 -8 1 -18 10 -10 9 -17 -4
-31 -15 -17 -15 -20 -3 -28 29 -18 61 -10 91 22 16 18 29 36 29 40 0 11 38 10
45 -2 3 -5 23 -14 43 -19 32 -9 37 -15 39 -41 1 -17 -7 -46 -19 -66 -12 -20
-17 -39 -12 -44 16 -15 177 -41 188 -30 5 5 12 45 16 87 5 75 6 77 35 85 57
16 76 42 91 126 19 107 17 116 -10 50 -28 -68 -92 -158 -112 -158 -24 0 -112
41 -117 54 -3 7 -1 19 3 27 7 11 10 10 15 -4 8 -19 63 -32 93 -23 30 10 79 64
91 100 l11 31 -21 -25 c-15 -18 -19 -20 -15 -7 16 48 18 67 7 67 -6 0 -11 -9
-11 -20 0 -23 -56 -90 -76 -90 -8 0 -1 12 16 28 42 37 50 93 22 149 -30 57
-77 71 -117 33 -15 -14 -24 -16 -35 -9 -13 10 -13 10 1 6 8 -3 25 6 38 19 21
21 40 29 64 25 4 0 7 6 7 14 0 31 70 9 96 -30 9 -14 20 -40 25 -58 8 -29 8
-28 5 11 -3 27 -13 53 -26 67 -22 24 -20 45 5 45 8 0 20 -8 27 -17 20 -28 36
-26 60 7 13 18 37 34 58 40 20 6 208 11 418 13 406 4 384 1 444 56 30 26 28
47 -2 31 -32 -17 -109 45 -147 118 -27 52 -32 71 -30 125 2 51 8 72 30 105 21
33 24 42 12 42 -9 0 -18 7 -21 15 -5 13 -49 15 -318 13 -171 -1 -329 -3 -351
-5z"/>
<path d="M5527 1651 c36 -36 49 -83 34 -123 -13 -35 -86 -88 -122 -88 -34 0
-59 9 -59 21 0 6 8 5 19 -1 25 -13 31 -13 31 0 0 6 -7 10 -15 10 -21 0 -48 57
-41 86 8 30 41 64 62 64 9 0 32 -17 52 -37 31 -33 34 -34 27 -13 -10 36 -55
70 -91 70 -58 0 -77 -45 -62 -143 4 -22 3 -35 -3 -31 -5 3 -7 10 -4 15 3 5 -1
6 -9 3 -34 -13 -33 129 1 170 l18 21 -24 -20 c-76 -65 -65 -182 21 -235 40
-24 107 -26 134 -4 18 15 18 15 -3 5 -32 -16 -42 -13 -13 3 14 8 28 12 33 9
11 -7 46 26 64 61 28 54 -3 147 -60 178 -15 8 -12 2 10 -21z"/>
<path d="M3098 1618 c39 -43 46 -90 21 -142 -35 -75 -123 -110 -174 -69 -20
15 -19 15 4 10 15 -4 42 2 66 12 67 30 84 102 35 151 -45 45 -101 32 -140 -33
-26 -42 -26 -12 0 38 11 21 18 40 16 42 -11 11 -76 -100 -76 -130 0 -23 32
-86 59 -114 58 -61 181 -30 226 58 32 61 11 165 -38 190 l-22 12 23 -25z"/>
<path d="M5534 1125 c-30 -13 -46 -40 -60 -97 -14 -61 54 -148 116 -148 68 0
162 96 143 146 -4 11 -11 4 -23 -24 -19 -43 -73 -82 -112 -82 -91 0 -116 177
-30 209 15 5 20 9 12 9 -8 0 -29 -6 -46 -13z"/>
<path d="M3595 603 c-68 -3 -84 -8 -105 -28 -36 -34 -194 -131 -246 -151 -44
-17 -48 -17 -147 6 -56 13 -110 27 -119 32 -10 5 -19 4 -23 -2 -8 -13 27 -26
118 -45 85 -18 176 -19 272 -3 47 7 212 10 498 8 235 -1 427 0 427 2 0 3 -44
35 -98 71 -53 36 -108 77 -121 91 l-24 26 -176 -2 c-97 -1 -212 -4 -256 -5z"/>
</g>
</svg>
