<?xml version="1.0" standalone="no"?>
<!DOCTYPE svg PUBLIC "-//W3C//DTD SVG 20010904//EN"
 "http://www.w3.org/TR/2001/REC-SVG-20010904/DTD/svg10.dtd">
<svg version="1.0" xmlns="http://www.w3.org/2000/svg"
 width="640.000000pt" height="640.000000pt" viewBox="0 0 640.000000 640.000000"
 preserveAspectRatio="xMidYMid meet">

<g transform="translate(0.000000,640.000000) scale(0.100000,-0.100000)"
fill="#000000" stroke="none">
<path d="M2756 6182 c-42 -17 -61 -28 -50 -31 22 -4 154 40 154 51 0 14 -34 8
-104 -20z"/>
<path d="M2957 6184 c-112 -30 -225 -77 -276 -115 -49 -35 -61 -36 -61 -8 0
21 -3 22 -117 17 -74 -3 -132 -11 -155 -21 -20 -8 -39 -13 -42 -9 -3 3 -6 0
-6 -6 0 -6 -18 -21 -41 -32 -47 -25 -45 -38 3 -20 18 6 110 15 203 20 l170 8
70 -34 c155 -74 300 -240 410 -469 49 -103 107 -263 102 -279 -2 -6 -14 20
-26 57 -13 38 -25 66 -27 64 -3 -2 5 -41 16 -87 12 -45 19 -84 16 -87 -3 -3
-8 6 -12 21 -9 38 -23 32 -14 -6 4 -18 11 -32 16 -31 5 1 18 -29 30 -66 l20
-67 -38 -1 c-21 0 -38 3 -38 8 0 5 -5 9 -11 9 -5 0 -7 -4 -4 -10 3 -5 -4 -10
-15 -10 -42 0 -226 -42 -270 -61 -63 -28 -150 -90 -150 -106 0 -8 -4 -12 -9
-8 -6 3 -13 -11 -17 -32 -7 -36 -7 -36 -16 -13 -9 24 -10 24 -23 7 -9 -13 -14
-14 -17 -5 -5 15 -38 -48 -37 -71 0 -10 2 -12 6 -3 11 27 21 10 10 -18 -10
-26 -16 -30 -52 -31 -22 0 -67 -1 -99 -2 -63 -1 -88 16 -39 26 45 10 90 43
120 89 25 38 28 50 27 124 -1 45 -7 90 -12 101 -8 13 -10 -9 -5 -82 5 -100 5
-100 -26 -142 -17 -23 -45 -50 -63 -59 -28 -15 -31 -15 -20 -1 9 10 10 17 2
22 -5 3 -10 16 -10 28 0 27 -20 9 -23 -20 0 -11 -6 -20 -13 -20 -7 0 -18 42
-29 110 -46 305 -160 546 -287 613 -16 8 -28 22 -28 32 0 23 70 149 128 230
25 37 89 112 142 167 92 97 92 104 0 19 -41 -37 -51 -42 -108 -47 -72 -6 -78
-10 -139 -92 l-46 -60 55 58 c53 55 56 57 107 57 l52 0 -34 -42 c-82 -103
-197 -305 -191 -336 1 -7 1 -9 -2 -4 -2 4 -25 6 -50 5 l-47 -3 5 45 c4 28 22
73 47 116 22 39 35 66 28 60 -7 -6 -33 -48 -57 -94 -33 -64 -54 -90 -87 -113
-80 -53 -155 -158 -194 -270 -25 -73 -62 -224 -56 -231 3 -2 24 25 48 61 24
36 48 66 53 66 5 0 6 3 3 6 -4 4 4 19 16 35 12 15 30 39 39 52 9 13 27 27 40
30 20 6 19 3 -7 -18 l-30 -25 30 15 c131 65 259 -69 337 -355 30 -109 30 -331
1 -450 -28 -110 -56 -174 -98 -226 -75 -92 -181 -99 -255 -19 l-25 27 40 -21
c47 -25 123 -28 164 -7 62 32 117 116 148 227 27 98 24 374 -5 484 -45 165
-124 280 -210 306 -33 9 -48 9 -88 -5 -27 -9 -54 -20 -60 -24 -22 -14 -117
-148 -135 -189 -35 -81 -52 -208 -46 -333 9 -165 42 -270 109 -346 19 -22 56
-71 82 -111 51 -77 145 -172 214 -218 23 -15 42 -32 42 -37 0 -4 -11 -1 -24 7
-36 24 -43 0 -9 -30 15 -13 42 -30 58 -37 17 -6 52 -30 80 -51 27 -21 80 -54
117 -73 50 -25 68 -40 68 -54 0 -11 10 -30 21 -41 18 -18 29 -20 64 -16 37 6
151 -6 161 -16 2 -2 6 -35 10 -74 6 -68 6 -70 -17 -76 -46 -13 -75 -7 -117 24
-77 56 -217 88 -262 59 -12 -8 -10 -10 8 -10 13 0 21 -3 19 -7 -6 -10 19 -34
27 -26 3 4 6 1 6 -5 0 -6 19 -31 43 -55 62 -64 86 -95 80 -101 -3 -3 2 -8 11
-12 9 -3 13 -10 10 -15 -3 -5 1 -16 9 -24 9 -8 14 -25 13 -38 -4 -31 25 -29
54 4 l22 24 -17 -28 c-140 -235 -165 -267 -209 -267 -41 0 -63 12 -80 41 -35
59 -126 146 -188 180 -55 29 -72 34 -134 34 -81 0 -98 -10 -125 -70 -25 -56
-12 -119 31 -158 l32 -28 -16 -40 c-21 -53 -21 -55 17 -56 85 -2 168 -50 271
-156 24 -25 68 -62 99 -82 30 -20 58 -46 62 -58 15 -50 17 -252 2 -297 -7 -25
-18 -44 -24 -43 -5 1 -44 5 -85 9 -114 10 -148 -9 -217 -125 -73 -123 -96
-144 -178 -166 -37 -10 -74 -20 -80 -23 -10 -3 -13 28 -13 135 0 126 2 142 19
157 11 10 25 15 32 10 8 -4 10 -3 5 4 -4 6 6 18 23 27 17 8 41 30 54 47 29 38
72 130 83 173 4 16 13 36 21 43 19 20 16 77 -7 119 -11 21 -20 44 -20 51 0 7
-7 15 -15 18 -8 4 -15 11 -15 17 0 5 -11 25 -25 43 -89 117 -281 -20 -341
-243 -10 -37 -15 -98 -15 -166 1 -129 16 -174 59 -183 l29 -6 6 -126 c3 -70 8
-135 12 -144 5 -13 2 -18 -9 -18 -29 0 -96 -32 -96 -46 0 -18 24 -17 75 1 22
8 41 15 43 15 1 0 3 -15 3 -32 2 -32 2 -32 9 7 l7 40 2 -36 c1 -40 15 -121 31
-180 10 -36 11 -37 40 -26 20 8 28 17 25 27 -12 41 -35 165 -35 193 0 32 1 33
85 56 46 13 96 32 110 41 35 23 106 119 141 190 35 72 56 82 171 78 l88 -3 12
45 c14 53 16 239 4 293 -5 20 -6 37 -2 37 15 0 51 -32 46 -41 -4 -5 -2 -9 2
-9 5 0 9 -8 10 -17 1 -10 6 -36 12 -58 6 -22 14 -98 18 -168 l6 -129 -41 21
c-23 12 -47 21 -54 21 -7 -1 8 -12 33 -25 26 -13 48 -30 51 -37 7 -23 -6 -104
-15 -90 -17 26 -53 12 -107 -43 -36 -36 -61 -54 -72 -51 -24 6 -36 -13 -48
-74 -5 -29 -10 -55 -10 -57 0 -3 -17 -3 -37 -1 -35 3 -38 1 -44 -27 -14 -66
-11 -85 15 -85 14 0 27 -4 30 -9 7 -11 -31 -45 -79 -69 -61 -30 -254 -90 -355
-109 -49 -10 -90 -23 -90 -29 0 -5 18 -41 41 -78 24 -40 38 -74 34 -84 -6 -21
48 -67 70 -58 7 2 19 -2 26 -10 23 -28 117 -85 172 -104 43 -15 61 -17 88 -9
19 6 58 12 87 14 31 2 62 11 72 20 10 9 37 18 61 21 41 4 45 2 62 -28 l17 -33
-25 30 c-23 26 -27 28 -35 13 -6 -9 -25 -20 -43 -23 -42 -9 -77 -42 -77 -72 0
-31 18 -66 99 -186 60 -90 64 -100 48 -112 -18 -13 -24 -31 -7 -20 6 4 -2 -18
-17 -49 -14 -30 -31 -52 -37 -49 -5 4 -7 -1 -3 -10 4 -10 2 -16 -5 -14 -6 1
-13 -4 -16 -12 -3 -8 0 -11 7 -7 7 5 9 1 5 -8 -3 -9 -10 -13 -15 -10 -5 3 -10
0 -10 -5 -1 -6 -2 -15 -3 -20 -5 -37 -66 -5 -66 34 0 27 -54 137 -63 128 -3
-3 -2 -16 4 -30 13 -35 11 -42 -6 -13 -20 37 -28 118 -17 180 6 30 9 57 7 58
-11 12 -28 -55 -37 -147 -7 -74 -21 -136 -45 -205 -19 -54 -32 -103 -30 -110
2 -6 -2 -24 -10 -40 -10 -20 -14 -50 -11 -92 l4 -63 -73 -12 c-40 -6 -73 -16
-73 -20 0 -5 6 -9 13 -9 9 0 9 -2 -1 -9 -21 -13 25 -30 128 -47 19 -3 49 -10
65 -15 17 -5 50 -11 75 -14 25 -3 90 -12 145 -20 55 -8 127 -17 160 -20 33 -3
92 -9 130 -15 192 -26 787 3 810 40 3 5 -7 16 -22 24 l-28 14 26 10 c40 16 52
70 33 156 -9 39 -22 78 -29 86 -7 8 -22 34 -34 57 -33 66 -64 78 -201 75 -172
-3 -271 -17 -327 -46 -47 -23 -133 -99 -133 -117 0 -5 -7 -6 -16 -2 -10 4 -17
-1 -21 -16 -6 -25 -26 -26 -119 -10 -63 11 -64 11 -94 67 -16 30 -30 64 -30
75 0 29 58 168 86 204 13 18 37 34 55 38 26 6 36 2 67 -26 l36 -34 -27 33
c-14 18 -24 39 -21 46 8 21 -31 57 -46 43 -8 -9 -10 -8 -5 5 4 9 26 25 50 34
l44 16 43 -35 c40 -32 47 -34 99 -30 36 3 71 0 102 -11 60 -20 69 -20 65 2 -3
14 6 17 55 20 31 2 57 7 57 11 0 5 -18 25 -40 45 -22 20 -34 36 -26 36 32 0
145 -145 160 -206 13 -49 -9 -58 -149 -62 -165 -6 -185 2 -295 113 -47 47 -76
83 -65 79 18 -6 19 -5 4 10 -12 13 -21 15 -42 7 -35 -14 -37 -45 -3 -39 20 4
38 -8 93 -64 82 -83 114 -104 179 -118 60 -13 257 2 280 21 23 19 13 63 -31
137 -33 57 -130 183 -146 190 -12 5 2 42 16 42 7 0 32 17 55 38 37 33 44 45
51 93 13 95 10 197 -7 231 l-16 30 -131 -4 c-73 -3 -140 -8 -149 -13 -15 -6
-18 -2 -18 19 0 14 5 26 10 26 6 0 10 5 10 10 0 6 -7 10 -15 10 -8 0 -14 3
-13 8 6 22 -15 72 -30 72 -13 0 -14 2 -4 9 10 6 7 24 -18 85 -38 97 -76 171
-109 216 -22 31 -23 33 -3 16 12 -11 22 -14 22 -8 0 10 16 17 61 26 8 2 22 6
32 11 9 4 23 3 30 -3 6 -5 20 -10 30 -11 9 0 25 -2 35 -3 9 0 35 -12 57 -26
l40 -24 -40 43 -40 44 49 -45 c113 -105 214 -257 201 -304 -4 -14 -3 -17 3 -8
14 21 37 -93 37 -189 l0 -87 75 -35 c128 -60 268 -73 437 -38 121 25 212 71
269 134 40 45 47 49 60 35 14 -13 13 -19 -10 -53 -14 -21 -26 -42 -26 -46 0
-5 -13 -15 -30 -24 -31 -16 -65 -69 -55 -86 4 -5 1 -8 -5 -7 -23 6 -51 -64
-48 -120 2 -28 -1 -52 -5 -52 -5 0 -6 -4 -3 -9 4 -5 1 -20 -4 -33 -8 -17 -9
-6 -5 47 l5 69 -21 -21 c-17 -17 -22 -40 -29 -125 -7 -82 -16 -126 -44 -200
-20 -53 -36 -104 -36 -114 -1 -11 -7 -30 -15 -44 -8 -14 -14 -51 -15 -82 l0
-57 -57 -11 c-32 -7 -72 -19 -90 -27 -29 -13 -31 -17 -18 -30 8 -8 27 -16 42
-19 24 -4 65 -12 96 -20 4 -1 8 -2 10 -4 5 -4 45 -9 112 -15 123 -10 307 -24
395 -30 47 -4 135 -10 195 -16 148 -12 344 -11 505 2 168 14 226 28 223 53 0
10 8 27 19 38 16 16 19 29 15 66 -11 103 -24 143 -54 175 -17 18 -36 42 -42
54 -25 48 -63 56 -221 50 -175 -8 -224 -21 -302 -82 -48 -37 -62 -44 -74 -34
-8 6 -14 18 -14 25 0 8 -5 14 -11 14 -6 0 -8 9 -4 22 6 17 4 20 -9 15 -10 -4
-15 -3 -12 2 6 10 -29 87 -44 96 -5 3 -10 18 -10 33 0 26 0 26 43 -16 42 -42
67 -53 67 -30 0 10 -89 120 -115 141 -6 5 -3 7 8 3 12 -4 17 0 17 15 0 11 -4
17 -10 14 -6 -3 -10 -1 -10 4 0 22 43 10 103 -30 l62 -41 -70 66 c-74 69 -77
81 -11 42 33 -19 60 -24 139 -28 54 -3 100 -1 103 3 3 5 21 9 40 9 19 0 34 4
34 9 0 5 -21 27 -46 49 l-46 39 21 65 c17 51 31 72 61 97 23 18 40 41 40 52 0
13 -4 18 -11 13 -8 -5 -10 3 -6 27 4 19 9 59 13 89 5 36 13 59 26 68 23 16 23
45 1 67 -14 15 -33 16 -122 13 -58 -3 -115 -9 -125 -13 -17 -7 -18 -5 -13 17
4 16 -6 69 -29 144 -19 65 -39 153 -44 194 -6 53 -19 94 -44 145 -41 79 -43
99 -20 193 18 71 37 103 53 87 20 -22 82 -190 77 -210 -4 -17 2 -25 38 -42 23
-12 64 -39 90 -62 37 -32 55 -41 85 -41 46 0 61 -14 61 -57 0 -40 21 -93 43
-112 24 -19 21 -41 -10 -73 l-27 -28 11 -103 c8 -72 9 -126 1 -186 -7 -59 -7
-86 1 -94 17 -17 245 18 301 46 32 16 58 41 90 88 25 36 57 77 72 91 22 21 26
32 21 64 -3 24 3 63 15 102 l20 63 -34 27 c-38 30 -41 40 -18 57 25 17 7 89
-23 93 -15 2 -23 13 -27 35 -8 41 -20 55 -78 97 -27 18 -48 37 -48 41 0 15
-94 69 -121 69 -39 0 -59 9 -52 26 3 9 -2 14 -13 15 -13 0 -7 6 16 17 19 10
42 21 50 27 8 5 24 10 35 12 61 7 157 27 161 34 8 14 -37 21 -95 14 -67 -8
-70 -5 -127 100 -104 191 -119 186 -24 -8 32 -64 55 -119 51 -121 -3 -2 -23
-7 -43 -11 -35 -7 -38 -5 -54 29 -10 19 -20 33 -24 31 -7 -4 -56 92 -66 130
-1 6 -11 35 -22 66 l-20 57 29 21 c15 11 32 21 37 21 5 0 28 20 51 45 33 36
41 52 41 83 0 41 -30 92 -54 92 -13 0 -46 61 -46 84 0 8 13 19 30 25 30 10 38
25 20 36 -5 3 -41 48 -79 99 -87 115 -121 146 -220 195 -63 32 -85 50 -121 98
-24 32 -48 62 -54 66 -23 16 -111 1 -151 -26 -54 -37 -65 -35 -65 13 0 31 4
40 18 40 92 2 270 38 291 59 9 9 28 25 41 34 22 16 23 17 5 18 -11 0 -30 2
-43 3 -32 4 -110 -10 -147 -25 -16 -6 -39 -13 -50 -15 -31 -5 -155 -5 -163 -1
-6 4 -150 18 -214 20 -10 1 -18 4 -18 8 0 3 -16 5 -36 4 -19 -1 -37 2 -40 6
-5 10 -44 -1 -44 -12 0 -5 -4 -9 -10 -9 -5 0 -7 7 -4 15 4 10 0 15 -14 15 -11
0 -23 -8 -25 -17 -4 -14 -5 -13 -6 4 0 12 5 23 12 26 6 3 2 4 -10 4 -12 -1
-19 -6 -15 -12 3 -5 -1 -4 -10 2 -8 7 -17 10 -21 7 -3 -3 -15 0 -27 6 -15 8
-20 8 -16 1 4 -6 2 -11 -3 -11 -6 0 -11 5 -11 11 0 6 -8 8 -19 4 -15 -5 -24 1
-35 24 -10 19 -12 32 -6 36 6 3 10 12 10 18 0 7 -4 6 -10 -3 -5 -8 -12 -12
-15 -8 -7 7 12 49 29 61 7 5 4 6 -8 3 -16 -5 -17 -2 -11 21 4 16 7 28 8 29 1
1 11 7 22 13 15 9 16 11 3 7 -12 -4 -18 0 -18 12 0 9 -11 -14 -25 -52 -22 -62
-68 -146 -80 -146 -3 0 6 17 19 38 27 41 76 178 76 212 0 18 4 21 23 16 196
-54 462 -78 872 -79 307 -1 335 0 405 20 41 11 76 20 77 19 8 -7 -122 -143
-177 -187 -80 -63 -82 -65 -45 -46 48 25 131 98 190 168 30 35 55 67 55 71 0
3 19 17 43 31 23 14 58 42 77 63 l35 38 -46 -37 c-95 -76 -231 -118 -374 -115
l-80 1 100 7 c205 15 323 73 411 205 36 53 44 54 19 2 -15 -30 -15 -31 1 -12
66 80 136 365 104 425 -9 16 -14 19 -20 10 -4 -7 -8 52 -9 131 -1 78 1 140 4
138 2 -3 5 -44 6 -92 2 -137 31 -124 43 19 13 152 -14 234 -83 249 -26 6 -29
11 -36 63 -9 72 -60 299 -74 332 l-12 25 6 -25 c22 -94 54 -255 51 -258 -2 -2
-7 6 -11 17 -3 12 -12 21 -20 21 -19 0 -7 -37 20 -58 14 -11 24 -33 28 -61 l5
-43 -31 7 c-295 62 -714 95 -1228 95 l-308 0 -11 43 c-42 159 -113 353 -171
470 -96 191 -257 373 -392 442 l-77 40 23 18 c56 45 191 100 347 141 30 8 46
14 35 14 -11 0 -59 -10 -108 -24z m-882 -772 c-3 -3 -11 0 -18 7 -9 10 -8 11
6 5 10 -3 15 -9 12 -12z m-285 -69 c-59 -65 -66 -72 -48 -45 20 30 77 92 85
92 3 0 -14 -21 -37 -47z m368 5 c7 -10 17 -16 22 -13 5 3 12 0 16 -6 4 -8 3
-9 -4 -5 -19 12 -14 -12 6 -26 10 -7 29 -40 42 -73 13 -33 26 -64 30 -70 11
-16 44 -145 38 -150 -3 -3 -13 25 -23 62 -26 97 -68 186 -121 255 -25 33 -39
56 -32 52 7 -4 19 -16 26 -26z m-229 8 c-10 -9 -69 -36 -69 -32 0 7 52 35 64
36 5 0 7 -2 5 -4z m31 -70 c0 -2 -8 -10 -17 -17 -16 -13 -17 -12 -4 4 13 16
21 21 21 13z m-240 -36 c-6 -11 -13 -20 -16 -20 -2 0 0 9 6 20 6 11 13 20 16
20 2 0 0 -9 -6 -20z m-53 -132 c-3 -8 -6 -5 -6 6 -1 11 2 17 5 13 3 -3 4 -12
1 -19z m667 -214 l5 -49 -13 50 c-8 28 -14 59 -14 70 -1 37 16 -17 22 -71z
m2472 -19 c4 -14 4 -29 0 -32 -3 -4 -6 1 -6 10 0 8 -7 23 -16 31 -14 14 -14
16 0 16 9 0 18 -11 22 -25z m-2456 -120 c0 -14 -4 -25 -9 -25 -4 0 -6 11 -3
25 2 14 6 25 8 25 2 0 4 -11 4 -25z m2597 3 c-3 -8 -6 -5 -6 6 -1 11 2 17 5
13 3 -3 4 -12 1 -19z m-1653 -169 c57 -45 72 -118 36 -177 -24 -39 -79 -65
-118 -56 -79 19 -118 78 -105 157 13 83 122 127 187 76z m1292 -77 c61 -42 57
-195 -7 -231 -98 -55 -153 124 -67 217 21 22 53 28 74 14z m-2131 -72 c8 -6
19 -9 25 -5 17 11 11 25 -11 25 -19 0 -19 1 -5 16 9 8 14 20 11 25 -9 13 132
11 158 -3 32 -17 43 -34 77 -130 71 -197 209 -335 416 -415 64 -25 72 -31 68
-49 -6 -25 13 -41 28 -26 8 8 7 16 -3 28 -12 15 -12 17 1 12 11 -3 15 -20 15
-64 0 -81 -3 -91 -31 -97 -30 -5 -31 1 -1 14 18 8 17 8 -8 3 -16 -4 -46 -7
-65 -6 -26 1 -31 -1 -20 -8 13 -8 13 -11 1 -19 -7 -5 -19 -8 -25 -7 -6 2 -29
7 -51 11 -22 5 -45 8 -52 7 -6 -2 -14 2 -18 8 -3 5 -26 10 -51 10 -32 0 -43 3
-38 12 4 7 3 8 -5 4 -6 -4 -19 -2 -28 6 -11 8 -14 8 -10 1 5 -8 0 -11 -13 -10
-22 1 -27 13 -7 20 6 3 2 4 -9 4 -14 -1 -20 -6 -17 -14 3 -7 0 -13 -6 -13 -6
0 -11 7 -11 15 0 18 -16 20 -24 3 -3 -10 -8 -9 -18 2 -10 11 -25 14 -60 10
-27 -3 -48 -2 -48 2 0 13 -28 9 -33 -4 -3 -8 -6 -5 -6 6 -1 15 -4 16 -16 6 -8
-6 -19 -9 -25 -5 -17 10 -90 13 -90 3 0 -4 -5 -8 -11 -8 -5 0 -7 5 -4 10 3 6
1 10 -4 10 -6 0 -11 -3 -11 -7 0 -5 -18 -9 -40 -11 -22 -1 -52 -7 -66 -12 -14
-6 -31 -7 -37 -3 -7 3 -1 -6 13 -22 l25 -28 -32 23 c-18 13 -30 27 -27 31 2 4
-1 11 -7 15 -8 4 -9 3 -5 -4 9 -16 -5 -15 -26 1 -15 12 -13 16 18 41 83 66
130 229 142 496 7 143 7 144 32 150 22 5 25 2 28 -21 2 -15 9 -33 17 -39z
m2492 -22 c-3 -8 -6 -5 -6 6 -1 11 2 17 5 13 3 -3 4 -12 1 -19z m-2599 -86 c3
-72 2 -73 -20 -70 -16 2 -24 10 -25 28 -1 14 0 18 3 8 3 -10 12 -18 20 -18 22
0 19 106 -3 120 -16 10 -16 10 2 8 18 -3 20 -12 23 -76z m2552 -68 c-11 -54
-45 -144 -53 -144 -2 0 6 30 19 68 12 37 26 84 29 106 3 21 9 36 12 33 2 -3
-1 -31 -7 -63z m-2574 -153 c-15 -82 -60 -190 -83 -198 -7 -3 -10 -9 -7 -14 3
-5 -1 -6 -9 -3 -8 3 -18 1 -22 -5 -3 -6 -14 -11 -23 -11 -11 0 -7 6 13 19 17
10 38 27 47 37 31 35 66 128 79 209 7 44 15 72 17 63 2 -10 -3 -53 -12 -97z
m-272 -237 c18 -18 21 -34 6 -34 -5 0 -10 8 -10 18 0 13 -2 14 -9 4 -6 -10
-10 -9 -14 7 -6 25 5 27 27 5z m1789 -31 c-7 -2 -21 -2 -30 0 -10 3 -4 5 12 5
17 0 24 -2 18 -5z m235 -10 c-21 -2 -57 -2 -80 0 -24 2 -7 4 37 4 44 0 63 -2
43 -4z m-1887 -20 c13 -15 12 -15 -8 -5 -29 16 -77 16 -67 0 4 -7 3 -8 -4 -4
-23 14 -11 26 27 26 24 0 44 -6 52 -17z m19 -69 c22 -15 40 -29 40 -31 0 -5
-69 35 -84 49 -21 18 6 7 44 -18z m950 6 c6 9 10 11 10 3 0 -7 -8 -17 -18 -22
-14 -8 -18 -5 -19 12 -2 17 0 19 7 7 9 -13 11 -13 20 0z m38 -51 c-12 -21 -35
-51 -52 -66 l-31 -28 26 30 c38 44 62 83 55 93 -3 5 1 9 9 9 11 0 10 -9 -7
-38z m963 -493 c63 -43 132 -171 146 -271 5 -43 5 -45 -20 -45 -21 0 -30 8
-46 45 l-20 45 -485 0 -486 0 -19 -39 c-19 -37 -21 -38 -88 -44 -37 -4 -111
-6 -163 -5 -92 1 -93 1 -35 8 33 4 105 8 161 9 l101 1 11 39 c17 56 15 88 -8
111 -24 24 -72 26 -90 5 -18 -22 -7 -102 16 -121 18 -14 18 -15 -3 -5 -26 13
-46 69 -37 105 7 31 31 46 73 46 34 0 71 -39 71 -76 0 -23 3 -24 63 -23 57 2
59 2 22 9 -39 7 -39 7 -7 9 17 0 32 6 32 13 0 9 3 9 12 0 7 -7 26 -11 42 -11
30 2 30 2 4 6 -16 3 -29 12 -33 24 -3 10 -8 28 -11 39 -3 12 -1 20 7 20 7 0
10 -3 6 -6 -3 -3 -1 -19 5 -35 10 -31 44 -40 54 -16 3 8 10 14 17 14 22 1 176
21 212 28 11 2 34 4 50 5 29 2 29 2 5 9 -16 5 19 10 93 14 68 4 134 14 155 23
42 17 104 73 96 86 -12 19 64 6 97 -16z m-1059 -2 c-45 -31 -16 -84 45 -84 20
0 45 7 55 17 10 9 18 11 18 5 0 -17 -35 -32 -74 -32 -39 0 -76 28 -76 57 0 19
28 53 44 53 6 0 0 -7 -12 -16z m93 6 c3 -6 -1 -7 -9 -4 -18 7 -21 14 -7 14 6
0 13 -4 16 -10z m638 -27 c-7 -2 -19 -2 -25 0 -7 3 -2 5 12 5 14 0 19 -2 13
-5z m46 -33 c0 -10 -3 -8 -9 5 -12 27 -12 43 0 25 5 -8 9 -22 9 -30z m-244 21
c3 -5 1 -12 -4 -15 -5 -3 -11 1 -15 9 -6 16 9 21 19 6z m-1694 -25 c24 -13 43
-29 41 -36 -2 -8 3 -10 13 -6 9 3 14 2 11 -3 -3 -4 15 -22 39 -40 24 -17 47
-37 51 -43 4 -6 -17 8 -47 30 -126 95 -257 126 -313 73 -14 -14 -26 -20 -26
-14 0 6 14 23 31 37 42 36 136 37 200 2z m1917 1 c3 -15 -4 -17 -50 -15 l-53
2 48 3 c47 4 62 17 30 27 -14 4 -14 4 2 3 11 -1 21 -10 23 -20z m-1993 -22
c-23 -8 -83 -10 -79 -3 3 4 24 8 47 7 23 0 38 -2 32 -4z m1132 -37 c-3 -57
-12 -68 -50 -67 l-32 2 35 6 c27 5 35 11 33 26 -3 23 6 75 13 75 2 0 3 -19 1
-42z m-1231 20 c4 -7 3 -10 -1 -5 -5 4 -18 -1 -29 -10 -21 -18 -21 -18 -2 5
22 26 23 26 32 10z m141 6 c-3 -3 -12 -4 -19 -1 -8 3 -5 6 6 6 11 1 17 -2 13
-5z m1766 -1 c-13 -2 -33 -2 -45 0 -13 2 -3 4 22 4 25 0 35 -2 23 -4z m-773
-77 c0 -2 -7 -6 -15 -10 -8 -3 -15 -1 -15 4 0 6 7 10 15 10 8 0 15 -2 15 -4z
m1332 -111 c19 -40 26 -45 55 -45 l33 0 0 -115 c0 -77 -4 -115 -11 -115 -7 0
-9 -9 -5 -24 7 -27 -14 -92 -45 -143 l-22 -34 -19 43 c-11 24 -28 53 -40 65
l-20 22 -367 -6 -366 -6 -110 -57 c-129 -67 -150 -73 -190 -54 -24 11 -25 12
-5 7 14 -3 35 -6 48 -5 23 2 105 41 87 41 -5 1 -17 -3 -25 -9 -9 -5 -19 -5
-27 2 -10 8 -13 6 -13 -8 0 -15 -6 -12 -29 15 -21 25 -30 31 -36 21 -6 -9 -4
-11 6 -5 8 5 12 6 9 2 -8 -9 -25 -8 -26 3 -1 6 -2 14 -3 20 0 5 -8 7 -16 4
-11 -5 -15 1 -15 19 0 14 -6 28 -12 31 -7 3 -4 4 7 1 17 -4 20 0 19 23 -2 48
-4 52 -26 52 -13 0 -30 5 -38 11 -12 9 -11 10 5 5 20 -6 20 -6 1 9 -11 8 -14
15 -8 15 17 0 15 13 -6 36 -13 13 -16 26 -12 39 4 11 6 23 3 27 -2 4 3 5 12 2
9 -4 15 -3 14 2 -4 21 2 26 16 14 18 -15 20 1 3 18 -9 9 -9 12 -1 12 7 0 15
-4 18 -10 3 -5 12 -10 18 -10 9 0 8 3 -1 8 -7 5 15 9 53 10 43 1 75 8 96 21
19 12 26 20 18 23 -8 3 -20 -3 -29 -13 -13 -15 -36 -18 -157 -21 -78 -2 -135
0 -125 4 9 4 70 7 134 7 64 1 123 4 132 7 8 3 20 21 26 40 6 19 16 34 21 34 5
0 4 -9 -3 -20 -7 -10 -9 -23 -5 -27 5 -4 12 -1 18 7 8 13 10 13 19 0 7 -11 10
-11 10 -2 0 7 10 17 23 22 20 8 18 9 -13 10 -29 1 -32 3 -15 10 11 5 221 9
468 9 l447 1 22 -45z m-2667 -255 c-3 -5 -12 -10 -18 -10 -7 0 -6 4 3 10 19
12 23 12 15 0z m1520 -35 c0 -16 -12 -23 -65 -36 -66 -17 -90 -15 -90 4 0 8 3
8 11 0 8 -8 27 -6 67 4 67 18 77 22 65 34 -4 4 -37 2 -72 -7 -81 -18 -92 -12
-14 9 74 20 98 18 98 -8z m-95 -123 c0 -10 -66 49 -88 78 -19 25 -10 20 31
-20 31 -30 57 -56 57 -58z m1183 28 c14 -16 31 -45 37 -65 11 -35 11 -37 -38
-90 -62 -67 -93 -131 -127 -255 -43 -158 -86 -291 -111 -349 l-24 -54 -21 21
c-18 20 -30 22 -128 22 -81 0 -126 -5 -173 -20 -34 -11 -71 -20 -80 -20 -17 0
-48 36 -48 55 1 5 8 -2 16 -17 16 -31 35 -34 79 -13 19 10 22 13 8 9 -18 -4
-23 -1 -23 15 0 12 -3 21 -7 21 -9 0 -13 28 -16 107 -1 28 -5 49 -10 46 -9 -6
-4 28 7 46 6 10 5 12 -2 7 -7 -4 -12 -4 -13 1 0 4 -3 46 -5 93 -7 122 -8 129
-18 122 -5 -3 -7 5 -4 16 4 14 2 20 -5 15 -6 -4 -8 0 -4 10 4 11 1 17 -8 17
-14 0 -19 11 -16 38 1 6 -4 12 -12 12 -21 0 -80 66 -72 81 5 7 4 10 -3 5 -14
-8 -62 11 -62 25 0 7 8 18 18 25 9 8 -18 -2 -60 -21 -60 -27 -81 -33 -100 -26
-21 9 -20 10 10 10 31 1 158 58 243 110 24 15 51 21 90 21 50 0 57 -3 77 -30
20 -27 29 -30 74 -30 l51 0 -5 -125 c-7 -167 -8 -165 126 -165 129 0 140 9
156 120 17 113 19 160 10 160 -5 0 -10 -21 -12 -47 l-3 -48 -130 -3 -130 -3 1
53 2 53 176 5 176 5 20 33 c26 42 59 43 93 2z m-1789 -18 c13 -22 68 -240 67
-269 0 -38 14 -52 70 -61 54 -9 65 -39 25 -65 -15 -10 -30 -34 -37 -59 -19
-66 -23 -68 -110 -68 -44 0 -79 -4 -79 -10 0 -5 8 -6 18 -3 10 4 5 -5 -13 -24
-32 -33 -42 -36 -27 -6 19 34 33 301 22 404 -5 53 -12 102 -14 110 -3 8 8 23
27 36 37 24 44 26 51 15z m729 -82 c6 0 8 -3 4 -6 -7 -8 -88 38 -107 61 -7 9
11 0 40 -20 28 -19 57 -35 63 -35z m-23 34 c0 -2 -9 0 -20 6 -11 6 -20 13 -20
16 0 2 9 0 20 -6 11 -6 20 -13 20 -16z m866 -150 c-7 -60 -20 -94 -37 -94 -6
0 -6 6 0 18 5 9 11 40 12 67 3 47 2 50 -21 50 -21 0 -25 -5 -28 -35 -7 -96 -9
-100 -55 -100 l-42 0 0 67 c0 61 -2 68 -20 68 -18 0 -20 -8 -23 -68 -2 -58 -6
-68 -20 -65 -13 2 -18 16 -20 62 -2 32 -1 64 2 71 3 9 40 13 132 14 l127 2 -7
-57z m-190 -92 c-14 -13 -17 10 -9 69 l8 64 3 -64 c2 -35 1 -66 -2 -69z m139
41 c-3 -23 -10 -43 -14 -43 -4 0 -4 21 0 48 4 26 9 56 10 67 1 16 3 16 6 -4 3
-13 2 -44 -2 -68z m-675 6 c0 -5 -4 -9 -10 -9 -5 0 -10 7 -10 16 0 8 5 12 10
9 6 -3 10 -10 10 -16z m-830 -319 c0 -5 -16 -12 -36 -16 -25 -5 -34 -11 -30
-21 3 -8 1 -11 -4 -8 -18 11 -11 35 13 45 30 12 57 12 57 0z m2345 -40 c3 -5
2 -10 -4 -10 -5 0 -13 5 -16 10 -3 6 -2 10 4 10 5 0 13 -4 16 -10z m-2505 -50
c0 -5 -4 -10 -10 -10 -5 0 -10 5 -10 10 0 6 5 10 10 10 6 0 10 -4 10 -10z
m220 -140 c6 -11 8 -20 6 -20 -3 0 -10 9 -16 20 -6 11 -8 20 -6 20 3 0 10 -9
16 -20z m1151 -6 c11 -14 29 -15 124 -9 60 4 116 12 123 18 9 7 16 5 26 -8 11
-15 10 -23 -2 -49 -8 -17 -21 -39 -29 -48 -8 -9 -13 -20 -10 -25 3 -4 -8 -35
-24 -68 -16 -33 -26 -49 -24 -35 4 16 -3 9 -19 -20 -27 -49 -32 -65 -16 -55 6
4 7 -1 3 -11 -4 -10 -8 -13 -10 -7 -5 14 -63 -3 -63 -18 0 -5 -13 -9 -29 -9
-16 0 -36 -6 -43 -13 -17 -18 -57 -27 -64 -16 -3 6 -12 6 -21 0 -22 -12 -44 9
-32 31 6 11 4 18 -6 22 -23 8 -19 28 24 117 22 45 34 76 28 70 -14 -14 -47
-14 -67 -1 -11 7 -6 8 16 4 35 -7 56 12 33 28 -10 7 -8 8 9 5 14 -3 22 -1 20
6 -2 7 3 26 11 44 9 23 18 30 29 26 13 -5 14 -3 5 7 -9 10 -19 10 -44 1 -38
-13 -76 -14 -83 -3 -3 5 8 7 23 4 16 -2 41 3 57 12 37 19 39 19 55 0z m-1091
-129 c0 -5 -5 -3 -10 5 -5 8 -10 20 -10 25 0 6 5 3 10 -5 5 -8 10 -19 10 -25z
m976 -80 c-3 -8 -11 -15 -18 -14 -10 0 -10 2 0 6 6 2 12 14 13 26 0 12 3 16 6
9 3 -7 2 -19 -1 -27z m-936 -30 c0 -5 -5 -3 -10 5 -5 8 -10 20 -10 25 0 6 5 3
10 -5 5 -8 10 -19 10 -25z m1722 -18 c-24 -26 -48 -85 -38 -95 4 -3 44 -5 90
-3 58 2 86 -1 91 -10 15 -24 -26 -39 -105 -39 l-77 0 -12 -40 c-7 -23 -18 -40
-26 -40 -18 0 -18 -8 -1 83 17 86 36 129 68 151 32 22 35 20 10 -7z m231 1 c9
-31 2 -33 -11 -3 -6 14 -8 25 -3 25 5 0 11 -10 14 -22z m-1943 -62 c0 -2 -7
-7 -16 -10 -8 -3 -12 -2 -9 4 6 10 25 14 25 6z m317 -53 c13 -33 14 -51 3
-136 -7 -53 -16 -100 -21 -103 -5 -3 -10 1 -10 8 -1 7 -2 20 -3 28 0 8 2 17 5
20 3 3 9 42 12 87 8 111 6 113 -126 113 -56 0 -112 -3 -124 -6 -34 -9 -63 -68
-75 -156 -10 -70 -31 -118 -45 -105 -10 10 20 173 38 208 30 60 46 67 177 68
64 1 118 4 121 6 14 14 34 0 48 -32z m-341 0 c-28 -52 -33 -56 -39 -38 -4 9
-3 14 1 11 5 -3 16 8 26 25 22 37 32 38 12 2z m-52 -143 c-13 -67 -19 -80 -56
-115 l-42 -40 36 42 c26 30 39 57 48 100 14 70 21 96 25 91 2 -2 -3 -37 -11
-78z m83 48 c-3 -7 -5 -2 -5 12 0 14 2 19 5 13 2 -7 2 -19 0 -25z m211 -23
c15 -14 -23 -27 -93 -32 -87 -5 -107 0 -99 21 4 10 24 16 62 18 69 4 123 1
130 -7z m-221 -42 c-3 -10 -5 -2 -5 17 0 19 2 27 5 18 2 -10 2 -26 0 -35z
m290 -5 c-3 -7 -5 -2 -5 12 0 14 2 19 5 13 2 -7 2 -19 0 -25z m-300 -50 c-3
-7 -5 -2 -5 12 0 14 2 19 5 13 2 -7 2 -19 0 -25z m-307 -33 c13 -14 21 -25 18
-25 -2 0 -15 11 -28 25 -13 14 -21 25 -18 25 2 0 15 -11 28 -25z m2440 -465
c0 -5 -2 -10 -4 -10 -3 0 -8 5 -11 10 -3 6 -1 10 4 10 6 0 11 -4 11 -10z m68
-43 l23 -25 -36 -4 c-30 -3 -34 -2 -21 7 14 11 14 14 -4 35 -11 13 -20 25 -20
27 0 8 36 -17 58 -40z"/>
<path d="M2502 4473 l3 -38 58 -3 57 -3 -2 38 -3 38 -58 3 -58 3 3 -38z"/>
<path d="M2395 4467 c-4 -8 -5 -26 -3 -39 4 -22 5 -22 17 6 8 20 8 33 2 39 -7
7 -12 5 -16 -6z"/>
<path d="M2457 4396 c-16 -12 -16 -14 -1 -20 20 -8 34 1 34 20 0 17 -10 17
-33 0z"/>
<path d="M2650 4405 c0 -14 21 -45 31 -45 18 0 5 45 -13 48 -10 2 -18 1 -18
-3z"/>
<path d="M2540 4389 c0 -15 77 -15 94 1 4 4 -15 8 -43 8 -28 1 -51 -3 -51 -9z"/>
<path d="M2420 4176 c0 -9 5 -16 10 -16 6 0 10 4 10 9 0 6 -4 13 -10 16 -5 3
-10 -1 -10 -9z"/>
<path d="M2390 4160 c0 -5 5 -10 10 -10 6 0 10 5 10 10 0 6 -4 10 -10 10 -5 0
-10 -4 -10 -10z"/>
<path d="M4150 3192 c0 -5 16 -26 35 -48 40 -45 48 -27 9 23 -24 31 -44 43
-44 25z"/>
<path d="M4090 3102 c0 -24 23 -72 35 -72 12 0 12 6 1 37 -12 34 -36 58 -36
35z"/>
<path d="M4221 3047 c-1 -10 9 -37 21 -60 20 -38 23 -40 26 -18 5 34 -6 71
-22 71 -8 0 -17 6 -19 13 -3 7 -6 5 -6 -6z"/>
<path d="M3767 2958 c-2 -7 3 -37 10 -67 8 -29 12 -60 9 -68 -3 -8 -1 -11 4
-8 6 3 11 23 11 43 l2 37 8 -45 c5 -25 10 -53 10 -62 0 -14 9 -18 35 -18 31 0
34 3 33 28 -1 16 -3 20 -6 10 -2 -10 -9 -18 -14 -18 -6 0 -7 5 -3 11 3 6 0 15
-7 20 -10 6 -11 9 -1 9 16 0 16 42 0 58 -10 10 -10 15 2 22 12 8 13 10 1 10
-8 0 -11 3 -8 7 4 3 0 15 -10 25 -18 20 -69 24 -76 6z m65 -103 c3 -14 1 -28
-3 -31 -5 -3 -9 9 -9 25 0 38 6 40 12 6z"/>
<path d="M3694 2869 c3 -17 6 -49 6 -71 0 -37 2 -39 28 -36 23 3 28 9 36 47 9
41 8 46 -18 68 -40 34 -60 31 -52 -8z"/>
<path d="M3932 2888 c-27 -27 1 -118 36 -118 17 0 17 6 8 65 -9 64 -20 77 -44
53z"/>
<path d="M3145 2850 c-3 -6 1 -7 9 -4 18 7 21 14 7 14 -6 0 -13 -4 -16 -10z"/>
<path d="M3781 2784 c0 -11 3 -14 6 -6 3 7 2 16 -1 19 -3 4 -6 -2 -5 -13z"/>
<path d="M3814 2686 c-12 -30 4 -47 38 -44 28 2 33 7 33 28 0 21 -5 26 -33 28
-22 2 -34 -2 -38 -12z"/>
<path d="M3740 2630 c0 -5 5 -10 10 -10 6 0 10 5 10 10 0 6 -4 10 -10 10 -5 0
-10 -4 -10 -10z"/>
<path d="M3308 2539 c-21 -11 -38 -22 -38 -24 0 -3 18 4 40 15 22 11 40 23 40
25 0 7 0 7 -42 -16z"/>
<path d="M3171 2514 c0 -11 3 -14 6 -6 3 7 2 16 -1 19 -3 4 -6 -2 -5 -13z"/>
<path d="M3808 2493 c12 -2 32 -2 45 0 12 2 2 4 -23 4 -25 0 -35 -2 -22 -4z"/>
<path d="M3906 2189 c-2 -13 -10 -57 -16 -98 -6 -41 -13 -77 -15 -81 -2 -4
-44 -6 -92 -6 l-88 1 2 55 c3 73 12 120 23 120 5 0 11 -8 13 -17 3 -13 5 -12
6 5 1 19 -3 23 -21 20 -21 -3 -24 -12 -34 -83 -13 -89 -7 -111 32 -121 42 -11
158 4 170 21 12 17 39 193 30 202 -3 3 -7 -5 -10 -18z"/>
<path d="M3926 2137 c-4 -34 -15 -99 -25 -145 -11 -45 -15 -82 -11 -82 4 0 15
39 24 88 19 108 30 202 24 202 -3 0 -9 -28 -12 -63z"/>
<path d="M3710 2034 c0 -8 5 -12 10 -9 6 4 8 11 5 16 -9 14 -15 11 -15 -7z"/>
<path d="M3611 2003 c0 -11 3 -13 6 -5 2 6 13 12 22 12 16 0 17 -5 9 -51 -5
-28 -7 -54 -4 -57 10 -9 13 1 20 61 l7 57 -30 0 c-23 0 -31 -4 -30 -17z"/>
<path d="M3930 2010 c0 -5 5 -10 10 -10 6 0 10 5 10 10 0 6 -4 10 -10 10 -5 0
-10 -4 -10 -10z"/>
<path d="M3628 1703 c6 -2 18 -2 25 0 6 3 1 5 -13 5 -14 0 -19 -2 -12 -5z"/>
<path d="M3580 1664 c0 -8 5 -12 10 -9 6 3 10 10 10 16 0 5 -4 9 -10 9 -5 0
-10 -7 -10 -16z"/>
<path d="M3836 1665 c-3 -8 -1 -15 4 -15 6 0 10 7 10 15 0 8 -2 15 -4 15 -2 0
-6 -7 -10 -15z"/>
<path d="M3815 1610 c-3 -5 -1 -10 4 -10 6 0 11 5 11 10 0 6 -2 10 -4 10 -3 0
-8 -4 -11 -10z"/>
<path d="M3590 1590 c0 -5 5 -10 10 -10 6 0 10 5 10 10 0 6 -4 10 -10 10 -5 0
-10 -4 -10 -10z"/>
<path d="M3510 1486 c-23 -54 -23 -56 -11 -56 11 0 45 89 37 97 -3 3 -15 -15
-26 -41z"/>
<path d="M3510 1380 c0 -5 5 -10 11 -10 5 0 7 5 4 10 -3 6 -8 10 -11 10 -2 0
-4 -4 -4 -10z"/>
<path d="M2560 1335 c-12 -19 -23 -51 -25 -72 l-5 -38 10 39 c6 22 20 54 31
73 11 18 18 33 16 33 -3 0 -15 -16 -27 -35z"/>
<path d="M2522 1175 c0 -16 2 -22 5 -12 2 9 2 23 0 30 -3 6 -5 -1 -5 -18z"/>
<path d="M3850 5752 c0 -26 40 -101 57 -105 10 -3 59 -8 108 -12 50 -3 107 -8
128 -11 33 -5 37 -3 37 16 0 35 -37 97 -62 104 -47 12 -268 19 -268 8z m255
-21 c28 -7 66 -53 54 -65 -2 -3 -40 -1 -84 5 -44 5 -99 9 -122 9 -32 -1 -45 4
-57 22 -31 44 -23 48 82 42 53 -3 110 -9 127 -13z"/>
<path d="M4050 5700 c6 -11 13 -20 16 -20 2 0 0 9 -6 20 -6 11 -13 20 -16 20
-2 0 0 -9 6 -20z"/>
<path d="M2751 5659 c-19 -8 -21 -12 -11 -24 14 -17 40 -20 40 -6 0 5 3 16 6
25 7 18 0 19 -35 5z"/>
<path d="M1950 5560 c-6 -11 -8 -20 -6 -20 3 0 10 9 16 20 6 11 8 20 6 20 -3
0 -10 -9 -16 -20z"/>
<path d="M1930 5516 c0 -2 8 -10 18 -17 15 -13 16 -12 3 4 -13 16 -21 21 -21
13z"/>
<path d="M4770 5415 c0 -5 5 -17 10 -25 5 -8 10 -10 10 -5 0 6 -5 17 -10 25
-5 8 -10 11 -10 5z"/>
<path d="M2471 5269 c21 -68 43 -144 49 -168 l11 -43 25 23 c31 29 31 46 0 26
-24 -16 -24 -15 -31 20 -9 51 -74 246 -84 256 -5 5 8 -46 30 -114z"/>
<path d="M2400 5298 c0 -18 -2 -20 -10 -8 -8 13 -10 12 -10 -2 0 -11 8 -18 20
-18 21 0 29 33 10 45 -6 3 -10 -4 -10 -17z"/>
<path d="M2435 5259 c-4 -6 -5 -13 -2 -16 7 -7 27 6 27 18 0 12 -17 12 -25 -2z"/>
<path d="M2348 5230 l-26 -20 33 -112 c18 -62 36 -121 40 -130 8 -20 21 -23
30 -8 3 6 11 10 17 10 7 0 2 -9 -10 -20 -12 -12 -22 -26 -22 -33 0 -6 12 1 26
16 14 16 23 31 20 34 -3 3 -1 11 4 18 16 20 -53 265 -74 265 -8 0 -25 -9 -38
-20z"/>
<path d="M3300 5186 c0 -3 4 -16 9 -29 8 -20 15 -23 40 -19 36 5 44 13 35 36
-4 11 -19 16 -45 16 -21 0 -39 -2 -39 -4z"/>
<path d="M3166 5112 c-4 -13 -5 -26 -2 -29 10 -11 18 4 14 29 l-4 23 -8 -23z"/>
<path d="M2578 5063 c-10 -2 -18 -9 -18 -14 0 -13 13 -11 36 6 19 14 14 17
-18 8z"/>
<path d="M1888 4103 c7 -3 16 -2 19 1 4 3 -2 6 -13 5 -11 0 -14 -3 -6 -6z"/>
<path d="M3300 3869 c0 -10 5 -19 11 -19 5 0 7 5 4 11 -5 7 5 8 32 3 47 -8 41
0 -9 14 -34 9 -38 9 -38 -9z"/>
<path d="M3408 3853 c7 -3 16 -2 19 1 4 3 -2 6 -13 5 -11 0 -14 -3 -6 -6z"/>
<path d="M3598 3823 c7 -3 16 -2 19 1 4 3 -2 6 -13 5 -11 0 -14 -3 -6 -6z"/>
<path d="M3305 3790 c-10 -17 4 -29 40 -36 20 -3 39 -14 45 -23 7 -12 11 -13
21 -4 16 16 -4 41 -48 60 -39 16 -50 16 -58 3z"/>
<path d="M3650 3763 c1 -21 30 -44 47 -39 28 10 70 46 54 46 -8 0 -23 -7 -33
-17 -17 -15 -19 -15 -36 0 -20 18 -32 22 -32 10z"/>
<path d="M4340 3730 c0 -16 3 -30 6 -30 13 0 64 35 64 44 0 5 -8 2 -18 -7 -24
-22 -32 -21 -32 3 0 11 -4 20 -10 20 -5 0 -10 -13 -10 -30z"/>
<path d="M4513 3729 c-45 -31 -55 -46 -25 -35 26 10 82 50 82 59 0 13 -14 7
-57 -24z"/>
<path d="M3345 3730 c-3 -6 1 -13 10 -16 19 -8 30 0 20 15 -8 14 -22 14 -30 1z"/>
<path d="M2015 3581 c-28 -6 -31 -11 -39 -64 -5 -31 -7 -59 -5 -61 2 -2 34 10
71 27 72 34 86 58 52 91 -16 17 -29 18 -79 7z"/>
<path d="M1901 3336 c-9 -11 -7 -15 11 -19 23 -6 48 7 48 26 0 5 -9 2 -20 -8
-18 -17 -20 -17 -14 -2 7 20 -9 23 -25 3z"/>
<path d="M1960 3325 c-20 -24 -6 -28 15 -5 10 11 13 20 8 20 -6 0 -16 -7 -23
-15z"/>
<path d="M1918 3293 c7 -3 16 -2 19 1 4 3 -2 6 -13 5 -11 0 -14 -3 -6 -6z"/>
<path d="M2239 3189 c-22 -33 -39 -62 -37 -65 3 -2 23 25 46 61 52 82 46 85
-9 4z"/>
<path d="M2396 3183 c-6 -14 -5 -15 5 -6 7 7 10 15 7 18 -3 3 -9 -2 -12 -12z"/>
<path d="M2060 3136 c0 -2 8 -10 18 -17 15 -13 16 -12 3 4 -13 16 -21 21 -21
13z"/>
<path d="M2155 3091 c-8 -15 3 -31 21 -31 9 0 14 7 12 17 -4 20 -24 28 -33 14z"/>
<path d="M2274 2998 l-19 -23 23 19 c21 18 27 26 19 26 -2 0 -12 -10 -23 -22z"/>
<path d="M4808 2634 c-11 -10 3 -34 19 -34 8 0 13 7 11 17 -3 18 -20 27 -30
17z"/>
<path d="M1880 2581 l0 -41 63 0 63 0 -4 35 c-4 33 -6 35 -41 35 -20 0 -46 3
-58 6 -21 6 -23 3 -23 -35z"/>
<path d="M1680 2229 c0 -5 5 -7 10 -4 6 3 10 8 10 11 0 2 -4 4 -10 4 -5 0 -10
-5 -10 -11z"/>
<path d="M2178 2040 c-32 -34 -58 -66 -58 -72 0 -5 21 13 47 42 26 29 60 58
76 65 25 10 26 13 11 19 -13 5 -32 -8 -76 -54z"/>
<path d="M2533 1883 c9 -9 20 -13 24 -9 4 4 1 11 -7 16 -25 16 -35 11 -17 -7z"/>
<path d="M1625 1610 c-3 -5 -2 -10 4 -10 5 0 13 5 16 10 3 6 2 10 -4 10 -5 0
-13 -4 -16 -10z"/>
<path d="M2887 1517 c4 -28 2 -37 -8 -37 -9 0 -10 -3 -4 -8 6 -4 17 -26 25
-50 7 -23 15 -41 16 -39 6 6 -18 152 -26 161 -6 5 -7 -6 -3 -27z"/>
<path d="M1974 996 c-3 -14 2 -51 11 -83 17 -60 89 -193 105 -193 5 0 -6 22
-25 50 -47 70 -77 156 -73 208 3 45 -8 57 -18 18z"/>
<path d="M2070 951 c0 -6 5 -11 10 -11 6 0 10 -11 10 -25 0 -14 5 -25 11 -25
8 0 8 -4 -1 -15 -10 -12 -8 -14 9 -10 17 3 20 1 12 -12 -6 -11 -4 -21 5 -31 9
-8 12 -22 8 -34 -4 -15 -3 -18 6 -13 9 6 11 4 5 -5 -4 -7 -9 -28 -10 -48 l-2
-35 14 27 c8 15 15 38 16 52 1 14 9 29 17 34 12 7 5 22 -36 81 -49 70 -74 93
-74 70z"/>
<path d="M2072 803 c-10 -17 11 -63 28 -63 18 0 19 34 1 56 -18 23 -20 23 -29
7z"/>
<path d="M2100 816 c0 -2 8 -10 18 -17 15 -13 16 -12 3 4 -13 16 -21 21 -21
13z"/>
<path d="M2354 751 c3 -4 -5 -13 -17 -18 -12 -6 -29 -22 -36 -37 -12 -22 -12
-30 -1 -51 8 -14 16 -22 19 -18 10 14 72 63 79 63 4 0 20 -20 35 -45 32 -50
52 -60 36 -18 -12 32 -96 133 -110 133 -6 0 -8 -4 -5 -9z"/>
<path d="M2030 610 c0 -5 9 -14 19 -20 30 -15 33 -12 11 10 -22 22 -30 25 -30
10z"/>
<path d="M2210 522 c0 -18 47 -109 62 -118 8 -5 9 -2 3 12 -4 10 -10 28 -12
40 -6 26 -52 84 -53 66z"/>
<path d="M2290 410 c0 -5 5 -10 11 -10 5 0 7 5 4 10 -3 6 -8 10 -11 10 -2 0
-4 -4 -4 -10z"/>
</g>
</svg>
