<svg width="213.71" height="26.32" viewBox="0 0 213.71 26.32" xmlns="http://www.w3.org/2000/svg"><g id="svgGroup" stroke-linecap="round" fill-rule="nonzero" font-size="9pt" stroke="#ffffff" stroke-width="0.25mm" fill="#ffffff" style="stroke:#ffffff;stroke-width:0.25mm;fill:#ffffff"><path d="M 57.26 25.9 L 54.11 25.9 L 54.11 0 L 57.26 0 L 57.26 10.605 Q 58.24 9.17 59.745 8.225 Q 61.25 7.28 63.28 7.28 A 8.129 8.129 0 0 1 65.053 7.461 Q 66.836 7.86 67.883 9.135 Q 69.405 10.99 69.405 14.035 L 69.405 25.9 L 66.255 25.9 L 66.255 14.385 A 6.868 6.868 0 0 0 66.137 13.076 Q 65.987 12.301 65.643 11.689 A 3.844 3.844 0 0 0 65.345 11.235 A 2.947 2.947 0 0 0 63.19 10.064 A 4.193 4.193 0 0 0 62.79 10.045 A 4.63 4.63 0 0 0 60.44 10.698 A 6.155 6.155 0 0 0 59.728 11.183 Q 58.275 12.32 57.26 13.86 L 57.26 25.9 Z M 87.605 25.9 L 84.455 25.9 L 84.455 7.7 L 87.5 7.7 L 87.5 10.745 Q 88.48 9.275 90.003 8.278 Q 91.525 7.28 93.625 7.28 A 8.129 8.129 0 0 1 95.398 7.461 Q 97.181 7.86 98.228 9.135 Q 99.75 10.99 99.75 14.035 L 99.75 25.9 L 96.6 25.9 L 96.6 14.385 Q 96.6 12.425 95.673 11.235 A 3.003 3.003 0 0 0 93.476 10.061 A 4.222 4.222 0 0 0 93.1 10.045 A 4.593 4.593 0 0 0 90.703 10.732 A 6.074 6.074 0 0 0 90.055 11.183 Q 88.62 12.32 87.605 13.86 L 87.605 25.9 Z M 108.325 25.9 L 105.175 25.9 L 105.175 7.7 L 108.22 7.7 L 108.22 10.745 Q 109.2 9.275 110.723 8.278 Q 112.245 7.28 114.345 7.28 A 8.129 8.129 0 0 1 116.118 7.461 Q 117.901 7.86 118.948 9.135 Q 120.47 10.99 120.47 14.035 L 120.47 25.9 L 117.32 25.9 L 117.32 14.385 Q 117.32 12.425 116.393 11.235 A 3.003 3.003 0 0 0 114.196 10.061 A 4.222 4.222 0 0 0 113.82 10.045 A 4.593 4.593 0 0 0 111.423 10.732 A 6.074 6.074 0 0 0 110.775 11.183 Q 109.34 12.32 108.325 13.86 L 108.325 25.9 Z M 10.85 25.9 L 7.525 25.9 L 7.525 4.34 L 0 4.34 L 0 1.4 L 18.375 1.4 L 18.375 4.34 L 10.85 4.34 L 10.85 25.9 Z M 33.285 18.095 L 20.545 18.095 Q 20.838 20.475 22.134 21.884 A 5.243 5.243 0 0 0 22.33 22.085 A 4.95 4.95 0 0 0 24.999 23.419 A 7.007 7.007 0 0 0 26.215 23.52 Q 27.79 23.52 29.05 23.188 Q 30.31 22.855 31.465 22.33 L 32.2 25.025 Q 30.94 25.585 29.365 25.953 A 13.62 13.62 0 0 1 27.583 26.239 A 18.209 18.209 0 0 1 25.83 26.32 A 9.911 9.911 0 0 1 23.119 25.968 A 7.388 7.388 0 0 1 19.618 23.817 A 8.232 8.232 0 0 1 17.796 20.479 Q 17.443 19.254 17.354 17.797 A 16.494 16.494 0 0 1 17.325 16.8 A 12.375 12.375 0 0 1 17.616 14.062 A 10.094 10.094 0 0 1 18.357 11.917 A 8.625 8.625 0 0 1 20.113 9.439 A 8.011 8.011 0 0 1 21.245 8.522 A 7.367 7.367 0 0 1 24.836 7.307 A 9.172 9.172 0 0 1 25.55 7.28 A 9.994 9.994 0 0 1 27.465 7.454 Q 28.852 7.724 29.908 8.418 Q 31.64 9.555 32.515 11.48 A 9.865 9.865 0 0 1 33.364 14.932 A 11.702 11.702 0 0 1 33.39 15.715 A 26.321 26.321 0 0 1 33.288 18.059 A 24.34 24.34 0 0 1 33.285 18.095 Z M 20.51 15.54 L 30.485 15.54 Q 30.485 13.608 29.783 12.322 A 4.348 4.348 0 0 0 29.155 11.445 A 4.371 4.371 0 0 0 26.719 10.124 A 6.438 6.438 0 0 0 25.48 10.01 Q 23.45 10.01 22.12 11.428 Q 20.79 12.845 20.51 15.54 Z M 213.605 18.095 L 200.865 18.095 Q 201.158 20.475 202.454 21.884 A 5.243 5.243 0 0 0 202.65 22.085 A 4.95 4.95 0 0 0 205.319 23.419 A 7.007 7.007 0 0 0 206.535 23.52 Q 208.11 23.52 209.37 23.188 Q 210.63 22.855 211.785 22.33 L 212.52 25.025 Q 211.26 25.585 209.685 25.953 A 13.62 13.62 0 0 1 207.903 26.239 A 18.209 18.209 0 0 1 206.15 26.32 A 9.911 9.911 0 0 1 203.439 25.968 A 7.388 7.388 0 0 1 199.938 23.817 A 8.232 8.232 0 0 1 198.116 20.479 Q 197.763 19.254 197.674 17.797 A 16.494 16.494 0 0 1 197.645 16.8 A 12.375 12.375 0 0 1 197.936 14.062 A 10.094 10.094 0 0 1 198.677 11.917 A 8.625 8.625 0 0 1 200.433 9.439 A 8.011 8.011 0 0 1 201.565 8.522 A 7.367 7.367 0 0 1 205.156 7.307 A 9.172 9.172 0 0 1 205.87 7.28 A 9.994 9.994 0 0 1 207.785 7.454 Q 209.172 7.724 210.228 8.418 Q 211.96 9.555 212.835 11.48 A 9.865 9.865 0 0 1 213.684 14.932 A 11.702 11.702 0 0 1 213.71 15.715 A 26.321 26.321 0 0 1 213.608 18.059 A 24.34 24.34 0 0 1 213.605 18.095 Z M 200.83 15.54 L 210.805 15.54 Q 210.805 13.608 210.103 12.322 A 4.348 4.348 0 0 0 209.475 11.445 A 4.371 4.371 0 0 0 207.039 10.124 A 6.438 6.438 0 0 0 205.8 10.01 Q 203.77 10.01 202.44 11.428 Q 201.11 12.845 200.83 15.54 Z M 154.28 25.9 L 150.99 25.9 L 143.675 8.54 L 146.545 7.35 L 152.74 22.33 L 158.935 7.35 L 161.63 8.54 L 154.28 25.9 Z M 186.375 19.635 L 186.375 11.095 L 183.225 11.095 L 183.225 8.365 L 186.445 8.365 L 187.11 2.625 L 189.525 2.625 L 189.525 8.365 L 194.565 8.365 L 194.565 11.095 L 189.525 11.095 L 189.525 19.88 A 7.545 7.545 0 0 0 189.584 20.859 Q 189.749 22.121 190.383 22.715 Q 191.24 23.52 192.43 23.52 Q 193.305 23.52 194.093 23.24 A 9.006 9.006 0 0 0 195.205 22.761 A 7.969 7.969 0 0 0 195.545 22.575 L 196.42 25.095 Q 195.944 25.38 195.242 25.658 A 15.178 15.178 0 0 1 194.53 25.917 Q 193.34 26.32 192.045 26.32 A 6.414 6.414 0 0 1 190.231 26.076 A 4.877 4.877 0 0 1 187.897 24.587 Q 186.623 23.137 186.415 20.643 A 12.172 12.172 0 0 1 186.375 19.635 Z M 50.155 8.365 Q 49.07 7.84 47.898 7.56 Q 46.725 7.28 45.185 7.28 A 10.363 10.363 0 0 0 43.879 7.36 A 8.074 8.074 0 0 0 40.495 8.557 Q 38.5 9.835 37.433 12.005 A 10.079 10.079 0 0 0 36.825 13.551 A 11.213 11.213 0 0 0 36.365 16.8 A 13.307 13.307 0 0 0 36.492 18.669 A 10.277 10.277 0 0 0 37.415 21.752 Q 38.465 23.905 40.408 25.113 A 7.726 7.726 0 0 0 42.477 26.009 A 9.381 9.381 0 0 0 44.94 26.32 Q 46.655 26.32 48.003 25.97 A 12.002 12.002 0 0 0 48.819 25.727 A 9.988 9.988 0 0 0 50.435 25.025 L 49.455 22.365 A 18.518 18.518 0 0 1 49.447 22.369 Q 48.366 22.926 47.425 23.223 Q 46.48 23.52 45.15 23.52 A 5.917 5.917 0 0 1 44.737 23.506 A 4.712 4.712 0 0 1 42.228 22.61 A 5.696 5.696 0 0 1 41.304 21.762 A 6.497 6.497 0 0 1 40.285 20.16 A 7.508 7.508 0 0 1 39.832 18.851 A 8.817 8.817 0 0 1 39.585 16.73 A 11.296 11.296 0 0 1 39.589 16.417 Q 39.669 13.525 41.248 11.848 A 5.646 5.646 0 0 1 42.822 10.655 A 5.561 5.561 0 0 1 45.36 10.08 A 9.224 9.224 0 0 1 46.273 10.124 A 7.19 7.19 0 0 1 47.337 10.308 A 8.197 8.197 0 0 1 48.193 10.578 A 10.648 10.648 0 0 1 49.21 11.025 L 50.155 8.365 Z M 176.54 9.17 L 176.54 7.7 L 179.41 7.7 L 179.41 21.49 Q 179.41 22.82 180.058 23.223 Q 180.705 23.625 181.475 23.625 L 180.81 26.075 Q 177.45 26.075 176.75 23.345 Q 175.945 24.465 174.563 25.393 Q 173.18 26.32 171.045 26.32 Q 168.77 26.32 166.915 25.165 A 8.031 8.031 0 0 1 164.32 22.531 A 9.773 9.773 0 0 1 163.957 21.893 A 9.53 9.53 0 0 1 163.037 19.113 A 12.825 12.825 0 0 1 162.855 16.905 A 11.6 11.6 0 0 1 163.204 14.011 A 9.789 9.789 0 0 1 163.958 12.005 Q 165.06 9.835 167.003 8.558 Q 168.945 7.28 171.465 7.28 Q 173.04 7.28 174.318 7.823 A 9.101 9.101 0 0 1 175.818 8.625 A 7.736 7.736 0 0 1 176.54 9.17 Z M 176.26 21.245 L 176.26 11.48 Q 175.315 10.815 174.178 10.413 Q 173.04 10.01 171.78 10.01 A 5.574 5.574 0 0 0 170.04 10.274 A 4.908 4.908 0 0 0 168.822 10.868 A 5.705 5.705 0 0 0 167.066 12.766 A 6.987 6.987 0 0 0 166.81 13.248 A 7.232 7.232 0 0 0 166.196 15.234 A 9.687 9.687 0 0 0 166.075 16.8 A 8.949 8.949 0 0 0 166.259 18.651 A 7.12 7.12 0 0 0 166.81 20.282 A 6.161 6.161 0 0 0 167.897 21.874 A 5.494 5.494 0 0 0 168.84 22.663 Q 170.135 23.52 171.745 23.52 Q 173.075 23.52 174.265 22.873 A 6.808 6.808 0 0 0 175.917 21.629 A 6.325 6.325 0 0 0 176.26 21.245 Z M 130.536 25.851 A 8.596 8.596 0 0 1 128.905 25.112 Q 126.84 23.905 125.668 21.753 Q 124.495 19.6 124.495 16.8 A 12.252 12.252 0 0 1 124.723 14.382 A 9.108 9.108 0 0 1 125.685 11.725 Q 126.875 9.59 128.94 8.435 A 9.159 9.159 0 0 1 133.007 7.294 A 10.964 10.964 0 0 1 133.56 7.28 A 9.708 9.708 0 0 1 136.538 7.726 A 8.697 8.697 0 0 1 138.163 8.435 Q 140.21 9.59 141.418 11.708 A 9.028 9.028 0 0 1 142.455 14.662 A 12.09 12.09 0 0 1 142.625 16.73 A 11.964 11.964 0 0 1 142.364 19.288 A 9.189 9.189 0 0 1 141.435 21.788 Q 140.245 23.94 138.198 25.13 A 8.84 8.84 0 0 1 134.356 26.291 A 10.754 10.754 0 0 1 133.56 26.32 A 9.525 9.525 0 0 1 130.536 25.851 Z M 133.56 23.52 A 6.56 6.56 0 0 0 135.389 23.278 A 4.9 4.9 0 0 0 137.865 21.648 A 6.581 6.581 0 0 0 139.202 18.816 A 9.487 9.487 0 0 0 139.405 16.8 Q 139.405 14.98 138.635 13.458 A 6.719 6.719 0 0 0 137.175 11.508 A 6.36 6.36 0 0 0 136.552 11.008 Q 135.24 10.08 133.56 10.08 A 6.737 6.737 0 0 0 131.731 10.315 A 4.913 4.913 0 0 0 129.255 11.9 A 6.257 6.257 0 0 0 127.969 14.481 Q 127.715 15.507 127.715 16.73 Q 127.715 18.55 128.485 20.108 A 6.803 6.803 0 0 0 129.72 21.871 A 6.17 6.17 0 0 0 130.568 22.592 Q 131.88 23.52 133.56 23.52 Z M 78.505 25.9 L 75.18 25.9 L 75.18 1.4 L 78.505 1.4 L 78.505 25.9 Z" vector-effect="non-scaling-stroke"/></g></svg>